<svg width="210mm" height="297mm" version="1.1" viewBox="0 0 210 297" xmlns="http://www.w3.org/2000/svg">
 <defs>
  <filter id="filter2141" x="0" y="0" width="1" height="1" color-interpolation-filters="sRGB">
   <feTurbulence baseFrequency="0.14" type="fractalNoise"/>
   <feColorMatrix result="result5" values="1 0 0 0 0 0 1 0 0 0 0 0 1 0 0 0 0 0 6 -3.5 "/>
   <feComposite in="SourceGraphic" in2="result5" operator="in" result="result6"/>
   <feMorphology in="result6" operator="dilate" radius="5" result="result3"/>
   <feDisplacementMap in="result3" in2="result3" result="result4" xChannelSelector="R"/>
   <feComposite in2="result4" k1="1" k3="1" operator="arithmetic" result="result2"/>
   <feBlend in="result2" in2="result2" mode="darken"/>
   <feConvolveMatrix divisor="2" kernelMatrix="2 0 0 0 1 0 0 0 -1 " order="3 3" targetX="1" targetY="1"/>
  </filter>
 </defs>
 <path d="m59.088 52.763c-0.81254 0.0078-1.6202 0.10127-2.4303 0.1881-1.1261 0.05411-2.2374 0.20715-3.3543 0.34933-1.0963 0.13088-2.1461 0.59083-3.1647 1.0077-0.5672 0.25252-1.0802 0.58677-1.5653 0.96066 2.161 0.24167 4.3271 0.44027 6.4942 0.62425 0.47474-0.151 0.95719-0.27149 1.4562-0.31368 1.1135-0.14681 2.2277-0.26172 3.3481-0.34261 1.0711-0.11291 2.1401-0.18928 3.2179-0.11576 1.0446 0.0399 2.0891 0.11294 3.1202 0.29352 1.1831 0.19517 2.3768 0.32077 3.5512 0.56844 1.2513 0.24245 2.4952 0.54936 3.7631 0.68316 4.2178 0.01842 8.4366-0.05281 12.652-0.19947 2.0504-0.09201 4.0989-0.21283 6.1464-0.34727-0.79266-0.14638-1.5902-0.26238-2.3931-0.35088-1.2255-0.05562-2.4349-0.25596-3.6535-0.38344-1.4938-0.10552-2.9933-0.10655-4.4902-0.1142-1.2547-0.0059-2.5094-0.0138-3.7641-0.01292-1.1638 0.03201-2.3269-0.09445-3.4758-0.27182-1.3758-0.20282-2.731-0.51599-4.115-0.66301-0.20549-0.01688-0.41279-0.01876-0.6165-0.05064-0.02188-0.0034-1.2113-0.28355-1.219-0.28525-0.65329-0.14397-1.3137-0.24384-1.9689-0.37827-1.1849-0.22252-2.3803-0.37235-3.5698-0.56482-1.0431-0.1722-2.0997-0.22524-3.1548-0.25632-0.27229-0.01997-0.54357-0.02688-0.81442-0.02429zm47.918 5.6911c-2.7271 0.26731-5.4559 0.51791-8.1866 0.74311 0.55443 0.09072 1.1115 0.1632 1.6738 0.19792 1.0395 0.06036 2.0727 0.17645 3.0825 0.44235 1.1506 0.24397 2.312 0.30643 3.4788 0.43098 1.098 0.17674 2.1875 0.40409 3.2815 0.60358 1.0048 0.18262 2.0139 0.35139 3.0272 0.47852 1.1691 0.15263 2.3399 0.22863 3.5176 0.28215 1.2635 0.10279 2.5259 0.25391 3.7962 0.20774 0.89989 0.0029 1.7998 0.01055 2.6996-0.0047 0.73778-0.01945 1.4762-0.05333 2.2071-0.1633 0.64262-0.09499 1.2842-0.19897 1.9327-0.20206-0.0132 0.01615-0.0198 0.02998-0.0341 0.04651-0.52306 0.41414-1.1128 0.74426-1.7565 0.92914-0.86398 0.31189-1.7474 0.59011-2.6629 0.6997-1.3267 0.171-2.6671 0.27334-4.0034 0.32349-1.3085 0.05845-2.613 0.164-3.9176 0.27905-1.4774 0.07213-2.9588 0.03-4.4344 0.14676-1.2594 0.11716-2.5001 0.34406-3.7548 0.49868-2.0456 0.27107-4.0927 0.5291-6.134 0.83096-2.5069 0.37941-5.0254 0.76008-7.5696 0.69505-1.6661 0.0039-3.3324 8e-3 -4.9981-0.03101-1.4439-0.05386-2.8855-0.15748-4.3103-0.40979-1.8185-0.30027-3.6426-0.59484-5.4793-0.75603-1.9262-0.14174-3.8327-0.40876-5.7418-0.69712-1.9057-0.27509-3.8072-0.58414-5.7232-0.78238-2.1927-0.23173-4.3635-0.63363-6.5624-0.80925-2.4372-0.19083-4.8738-0.42888-7.321-0.43408l3.2019 2.326v-5.16e-4c2.4162-0.0588 4.821 0.22798 7.2269 0.40153 2.2089 0.19913 4.3861 0.6299 6.5934 0.84543 1.9068 0.21374 3.8017 0.51815 5.7015 0.786 1.9136 0.31394 3.8311 0.54956 5.7661 0.68006 1.8323 0.1832 3.6509 0.49006 5.4668 0.79323 1.4378 0.25026 2.8924 0.34084 4.3491 0.37207 1.667 0.02384 3.3342 0.01778 5.0012 0.0186 2.5379 0.02492 5.0507-0.40196 7.552-0.77876 2.0587-0.27768 4.1198-0.53483 6.182-0.78548 1.2558-0.15241 2.4964-0.37615 3.7589-0.47697 1.4706-0.11089 2.9473-0.0421 4.4173-0.14624 1.3064-0.12629 2.6148-0.21719 3.9264-0.26303 1.3404-0.07754 2.6935-0.16016 4.023-0.35708 0.9416-0.11807 1.8409-0.43505 2.7296-0.75293 0.67705-0.19469 1.304-0.58358 1.835-1.0423 0.65795-0.82301 0.62912-1.4882-0.19896-2.1487-2.3397-1.6586-3.4296-2.2618-5.8012-2.3244-0.84357-0.06271-1.6666 0.12962-2.497 0.24288-0.72375 0.09348-1.4536 0.11144-2.1823 0.12247-0.89277 0.0077-1.7857 0.0081-2.6784 0.0098-1.261 0.04671-2.5114-0.13579-3.7667-0.22324-1.1831-0.02487-2.3503-0.15251-3.5207-0.31264-1.0048-0.14522-2.0196-0.28286-3.0127-0.49868-0.0603-0.01029-0.12014-0.02251-0.18035-0.03307zm-61.171 0.06253c-0.4237 0.68888-0.55144 1.5084-0.8077 2.2717-0.37813 1.0604-0.52345 2.175-0.59376 3.2923-0.0371 1.4765 0.39502 2.904 0.91467 4.2695 0.63959 1.2578 1.1764 2.5604 1.6888 3.8742 0.83393 1.8173 1.8259 3.5665 2.8034 5.3118 0.85891 1.4897 1.8845 2.8653 3.082 4.0974 0.25806 0.26521 0.52636 0.51695 0.79892 0.76378-0.6939 0.32333-1.3756 0.677-2.0526 1.049-2.1466 1.083-4.2438 2.2577-6.1996 3.6587-1.6489 1.2687-3.0908 2.7842-4.3134 4.4633-1.0066 1.5122-1.499 2.9533-1.6237 4.7522 0.06267 1.9637 0.77335 3.7465 1.9529 5.3087 0.30964 0.4101 0.66357 0.78474 0.99529 1.1772 1.2345 1.2758 2.6737 2.3364 4.2049 3.2293 0.59122 0.34472 1.1853 0.68507 1.7792 1.0253-1.7172 0.84538-3.3795 1.7962-4.9568 2.8918-1.608 1.2019-3.0706 2.5616-3.761 4.4974-0.12057 0.33805-0.19433 0.69112-0.29146 1.0366-0.25286 1.4888-0.02126 3.0008 0.86248 4.2116-0.05497-0.47346-0.11442-0.94657-0.17932-1.419-0.25395-1.8488 0.62285-2.8262 1.572-2.8143 0.51154 6e-3 1.0439 0.30073 1.432 0.9002 5.85e-4 -2e-3 9.15e-4 -3e-3 0.0016-5e-3 0.64611-1.8722 2.069-3.1713 3.6075-4.3382 1.6666-1.1577 3.4288-2.1575 5.2581-3.0226 0.81287 0.37429 2.0138 0.85279 2.606 1.0945 1.1337 0.41609 2.2856 0.76392 3.4479 1.0712 0.31995-0.4693 0.64016-0.93842 0.96015-1.4077-1.8877-0.37159-3.761-0.80724-5.5929-1.3963 0.69588-0.2977 1.399-0.57955 2.1105-0.84181 1.8515-0.56053 3.7493-0.95242 5.6839-0.98961 0.27895-0.40858 0.55757-0.81775 0.83664-1.2263 0.22307-0.31097 0.49552-0.7035 0.74207-1.0537-1.2919-5e-3 -2.5838-8e-3 -3.8757-0.0108-1.7435 0.0176-3.5378 0.16515-5.2214 0.65474-0.45734 0.13299-0.90301 0.30392-1.3544 0.45579-1.0559 0.41405-2.097 0.86126-3.1213 1.342-0.22064-0.10538-0.48512-0.2278-0.60306-0.2806-0.46784-0.31492-0.93009-0.63877-1.3694-0.99219-0.43178-0.34735-0.82349-0.74256-1.2351-1.1136-1.7472-1.9744-2.8322-3.4864-3.0081-6.1841 0.07296-1.6558 0.5618-3.1815 1.496-4.5651 1.2087-1.6397 2.6139-3.1254 4.2349-4.3661 1.9531-1.3827 4.0385-2.5473 6.1795-3.6137 0.63109-0.33167 1.2671-0.64678 1.912-0.93999 1.7139 1.0225 3.4398 2.0536 5.2715 2.8386 1.719 0.7158 3.4594 1.3628 5.2452 1.8903 1.7569 0.48306 3.5008 1.0242 5.2679 1.4712 0.3995-0.48615 0.79864-0.9597 1.1984-1.4216-1.1972-0.1911-2.3863-0.42816-3.5595-0.75654-2.0107-0.50514-3.9981-1.1043-5.9908-1.6748-1.7839-0.55188-3.5295-1.2104-5.2441-1.9508-0.21053-0.09691-0.41558-0.20087-0.62167-0.30386-0.21096-0.16135-0.42489-0.31999-0.63097-0.48679 0.6602-0.26045 1.3322-0.49197 2.035-0.65009 1.951-0.4243 3.9155-0.845 5.9237-0.83354 2.2436-0.0041 4.4873-0.0026 6.7309-0.0052 1.8009 0.0047 3.6019 0.0066 5.4028 0.01602 1.1308 0.0095 2.262 0.02541 3.3915 0.07906 1.4365-0.85407 2.9799-1.5183 4.5749-1.6764-0.08958-1.27e-4 -0.17914-4.25e-4 -0.26872-5.17e-4 -2.0086-0.10124-4.0036-0.3806-6.0069-0.5581-1.6192-0.11977-3.244-0.14114-4.8669-0.15555-1.7901-0.0054-3.5802 0.0052-5.3702 0.0124-2.2458 7.93e-4 -4.4913 0.0034-6.7371 0-2.0292 0.01781-4.0114 0.471-5.9852 0.89142-0.45271 0.1063-0.89294 0.23958-1.325 0.39171-0.69008-0.82248-1.3151-1.6987-1.8681-2.6257-0.4973-0.86576-0.95065-1.7516-1.4345-2.6246-0.19002-0.34284-0.8315-1.4451-1.0061-1.7932-0.13626-0.27156-0.2474-0.55498-0.37104-0.83251-0.49404-1.32-0.9973-2.6411-1.6816-3.8768-0.54314-1.3037-0.97177-2.6842-0.98134-4.1088 0.0709-1.0816 0.18538-2.166 0.55759-3.1926 0.29018-0.83684 0.39162-1.7537 0.96376-2.4644 0.30084-0.39613 0.57882-0.8085 0.86765-1.2128-1.4965-0.15054-2.9917-0.31577-4.4834-0.50488zm50.423 22.646c-1.7243 0.0026-3.4485 0.01266-5.1728 0.01602-1.2396 3e-3 -2.4791-0.0015-3.7186-0.0047 2.0486 0.18879 4.1065 1.0435 5.7909 2.295 0.35932-3.12e-4 0.71866-0.0026 1.078-0.0021 1.7353 0.0016 3.4706 0.0074 5.2059 0.0088 1.3051 0.0079 2.6103 0.0095 3.9145 0.06821 1.7899 0.08716 3.5828 0.20003 5.3495 0.51676 1.1069 0.14727 2.2147 0.14229 3.329 0.19069 1.5783 0.10742 3.1498 0.29548 4.7088 0.56741 1.62 0.26796 3.2419 0.53512 4.8783 0.68316 1.6299 0.18859 3.2608 0.35608 4.8958 0.49454 1.5006 0.1353 3.0054 0.23758 4.5098 0.31471 1.3191-5.29e-4 2.6383-0.0028 3.9574-0.01499 0.69575-0.0026 1.3967-0.0088 2.0934 0.03049 0.28575 1.5386-0.0419 2.2047-1.5674 2.7678-1.7693 0.46803-3.597 0.51703-5.4183 0.59686-1.3415 0.01281-2.6868 0.01322-4.023 0.1478-1.2588 0.12824-2.5139 0.28961-3.7812 0.30799-1.1942 0.07838-2.3832 0.24988-3.5812 0.24288-1.15-5.29e-4 -2.2999 0.0016-3.4499 0.0047-1.6551 0.0031-3.3104 9e-3 -4.9656 0.0067-2.014 0.0034-4.028 0.0058-6.042 5.16e-4 -1.8866-0.0016-3.7731 0.0013-5.6596 0.0021-0.03721 1.21e-4 -0.07442-1.2e-4 -0.11162 0 0.36766 0.74417 0.70614 1.511 1.0222 2.2929 0.74879 0.0011 1.4976-4.52e-4 2.2464 1e-3 1.8876-7.94e-4 3.7752 0.0018 5.6627 0 2.0142-0.0054 4.0283-0.0029 6.0425 5.17e-4 0.43615-6.3e-4 0.8723 0.0012 1.3084 0.0016 0.47049-0.16265 1.0469-0.1484 1.5994 0.0021 0.69229 0.0015 1.3846 0.0013 2.0769 0.0026 1.154 3e-3 2.3083 0.0056 3.4623 0.0052 1.1977-0.025 2.3879-0.19806 3.5848-0.27182 1.2734-0.0045 2.5315-0.19494 3.7967-0.31316 1.3261-0.11424 2.6584-0.11875 3.9884-0.12919 1.8434-0.11505 3.688-0.16305 5.4684-0.68833 1.6575-0.65239 2.0722-1.5564 1.8728-3.2566-0.17139-0.63837-0.41905-1.3932-1.0335-1.7529-3.6857-2.1575-2.3993-1.8621-4.2726-2.2159-1.1641-0.13194-2.3393-0.1062-3.5088-0.10077-1.3134 0.01095-2.6269 0.02035-3.9403 0.02636-1.4943-0.12752-2.9943-0.19589-4.4866-0.34416-1.6373-0.11928-3.2645-0.31712-4.8948-0.50385-1.6264-0.15014-3.2397-0.41911-4.8504-0.68575-1.5767-0.27011-3.1651-0.45523-4.761-0.55966-1.1092-0.02495-2.2041-0.0365-3.3016-0.20722-1.7698-0.30079-3.5694-0.39401-5.3604-0.47904-1.3131-0.05792-2.6278-0.06904-3.9419-0.06511zm39.636 3.6892c-0.12583-0.07598 0.2716 0.11877 0.39015 0.20567 0.0214 0.01568 0.0365 0.03665 0.0569 0.05323-0.16467-0.09727-0.26875-0.15127-0.447-0.2589zm-76.81 0.40049c0.63429 0.36481 0.8641 0.49363 0.03514 0.02687-0.01179-0.0089-0.02335-0.01795-0.03514-0.02687zm19.015 4.7119c-0.51447 0.54238-1.0331 1.1245-1.5524 1.7229 1.3449 0.2108 2.6997 0.36295 4.053 0.52348 2.3864 0.2896 4.7899 0.39298 7.1913 0.4563 2.3373 0.04036 4.675 0.02667 7.0125 0.02791 0.2949-8.67e-4 0.5898 1e-3 0.8847 5.16e-4 -0.35156-0.77779-0.72534-1.5431-1.1415-2.2846-0.96066 0.0015-1.9213 0.0058-2.882 0.0047-2.3389 0.0034-4.6781 0.0041-7.0166-0.04393-2.187-0.05932-4.374-0.16297-6.549-0.40721zm1.881 13.559c-1.4189 0.0546-2.818 0.26931-4.2204 0.47284-1.0167 0.15963-2.0435 0.20355-3.0706 0.22583-1.853 0.0277-3.7062 0.0339-5.5594 0.0351-0.57673 0.82959-1.1067 1.5834-1.5942 2.2738 1.1494-3e-3 2.2989-8e-3 3.4484-7e-3 2.3008 2.7e-4 4.6017 0.0223 6.9024 0.0103 1.0357-0.0281 2.0689-0.0949 3.0918-0.27027 1.3866-0.21048 2.7759-0.4043 4.1811-0.42943 1.6715-2e-3 3.3432-0.0109 5.0147-0.0103 2.2468-6e-3 4.4934-6e-3 6.7402-0.015v-5.1e-4c1.5324-4e-3 3.0651 4e-5 4.5977 0.0103-0.15802-0.7552-0.32605-1.5138-0.49351-2.2748-2.411-0.0278-4.8226-8e-3 -7.2337-9e-3 -2.2552-3e-3 -4.5103-3.3e-4 -6.7655-4e-3 -1.6797 2e-3 -3.3592-6e-3 -5.039-8e-3zm22.679 0.19534c0.16083 0.73629 0.31274 1.4456 0.46509 2.1621 1.8618 0.0716 3.7206 0.20435 5.5707 0.4315 0.98951 0.1245 1.9785 0.25384 2.9678 0.37931 0.0182-0.11435 0.041-0.27107 0.0589-0.38293 0.0829-0.51738 0.17078-1.0341 0.25786-1.5508-2.1328-0.17115-4.2506-0.49073-6.3748-0.75034-0.98-0.1224-1.962-0.21554-2.9456-0.28887zm14.813 1.6438c-0.0574 0.61997-0.11629 1.2464-0.17932 1.896 1.8724 0.22725 3.739 0.50142 5.6053 0.77359 2.3396 0.29315 4.685 0.54294 7.0171 0.89142 2.7586 0.46175 5.5172 0.92841 8.2708 1.4164 0.44901 0.0978 0.89985 0.19257 1.3503 0.28887-0.73553 0.61421-1.9832 1.0435-2.5704 1.2583-2.0182 0.63727-4.0883 1.0529-6.2022 1.2087-2.08 0.25417-4.144 0.61953-6.2249 0.86868-2.1389 0.31585-4.2787 0.64222-6.4389 0.77463-0.53019 0.0277-1.0604 0.0466-1.5906 0.0703-0.0862 0.801-0.16588 1.5768-0.25424 2.3828 1.6694 4e-3 3.3348-0.0938 5.0023-0.18552 2.169-0.14355 4.3152-0.48762 6.4637-0.8015 2.08-0.2375 4.1393-0.61665 6.2182-0.86042 2.1344-0.13759 4.2185-0.6086 6.2466-1.2686 1.259-0.48247 3.0344-1.0457 3.4318-2.5094-0.0588-0.13781-0.0491-0.33401-0.17622-0.41341-1.2725-0.79508-2.6029-1.4979-3.9476-2.1637-0.27472-0.13602-0.59251-0.15909-0.89039-0.23151-1.1595-0.28186-2.3328-0.50756-3.499-0.75965-2.762-0.4504-5.5187-0.93447-8.2786-1.3999-2.3418-0.3435-4.6965-0.58729-7.0435-0.89194-0.76985-0.11351-1.5401-0.22984-2.3104-0.34416zm22.069 4.2897c0.016-0.0166 0.19244 7e-3 0.57206 0.0501-3e-3 0.0707-0.0143 0.14-0.0336 0.20774-0.34451-0.15599-0.5569-0.23869-0.53847-0.25786zm-76.691 0.78703c-0.35922 0.52626-0.71368 1.0448-1.0718 1.5694 1.5925 0.30806 3.196 0.56628 4.7987 0.81132 4.3901 0.64545 8.7976 1.1479 13.187 1.8009 3.3443 0.45625 6.7106 0.7191 10.063 1.1017 3.4694 0.49915 6.9589 0.84087 10.451 1.1328 0.40847 0.0324 0.81746 0.0546 1.2263 0.0806-0.092-0.71258-0.18967-1.4244-0.28888-2.1363-1.3404-0.046-2.6798-0.11283-4.0173-0.22014-3.4899-0.2862-6.9733-0.6563-10.442-1.14-3.3471-0.38044-6.7066-0.64754-10.045-1.1038-4.3786-0.62914-8.7777-1.1006-13.15-1.7777-0.23743-0.0383-0.47463-0.0801-0.7121-0.11886zm41.95 4.4349c0.10167 0.74059 0.19749 1.4818 0.29146 2.2231 1.2412 0.0357 2.4828 0.0607 3.7243 0.0739 0.42649 3e-3 0.85301 1e-3 1.2795 3e-3 0.11102-0.77368 0.22035-1.5199 0.33124-2.281-1.581 3e-3 -3.1619 9e-3 -4.7429-2e-3 -0.29456-3e-3 -0.58909-0.0132-0.88367-0.017zm-60.744 6.4952c0.03055 0.33586 0.0597 0.67152 0.08682 1.0077 0.49942 0.28917 0.99751 0.58102 1.5064 0.85318 0.3356 0.1795 0.71327 0.2651 1.0713 0.39429 0.76756 0.27698 1.5455 0.50905 2.3275 0.72606 0.30188-0.44012 0.60324-0.88056 0.90485-1.3208-0.0544-0.0139-0.10944-0.0248-0.16381-0.0388-1.6174-0.4055-3.2551-0.76641-4.8395-1.2919-0.30132-0.0999-0.59728-0.21525-0.89348-0.3297zm34.909 0.26355c-2.2353-0.031-4.4629 0.16909-6.6859 0.37311-2.1167 0.1024-4.2151 0.36388-6.3133 0.64492-2.4275 0.37855-4.8604 0.7014-7.2828 1.1152-0.93734 0.18237-1.8785 0.35876-2.8143 0.55758-0.73766-0.13778-1.472-0.29217-2.2066-0.44545-1.3934 2.031-2.7883 4.0615-4.1956 6.0989 1.2279-0.67186 2.5033-1.2596 3.8101-1.7462 1.7995-0.63309 3.6168-1.1995 5.4658-1.6469 1.7432 0.31453 3.4952 0.57781 5.2498 0.82114-1.7596-0.88613-1.2181-3.2107 1.6252-3.2107h6.7861c0.4974 0 0.92401 0.0711 1.2805 0.19327 0.58464-0.0503 1.1698-0.0944 1.7565-0.1266 2.2179-0.18832 4.4394-0.38668 6.6683-0.34314 2.5867-7e-3 5.1736-5e-3 7.7602-0.0129v-5.1e-4c3.1332-5e-3 6.2663-5e-3 9.3994 4e-3 1.009 8.1e-4 2.0181 9e-3 3.0272 0.0109-0.0754-0.75855-0.1545-1.5168-0.23668-2.2748-1.9729-8e-3 -3.9461-0.0132-5.919-9e-3 -3.1273 0.0111-6.2545 0.0141-9.3819 9e-3 -2.5977-7e-3 -5.1956-5e-3 -7.7933-0.0114zm26.667 0.0512c0.0801 0.74888 0.1507 1.4984 0.22428 2.2479 0.30298 2e-3 0.60601 3e-4 0.90899 3e-3 0.78967 0.0172 1.5794 0.0388 2.3688 0.0708 0.0933-0.67811 0.19308-1.3861 0.29043-2.0846-0.16182-0.0165-0.32408-0.0282-0.48576-0.046-1.0993-0.11389-2.2027-0.16226-3.3068-0.1912zm10.015 0.9617c-0.0704 0.62436-0.14094 1.2609-0.21032 1.8728 0.81709 0.0786 1.6328 0.16893 2.4433 0.30696 2.3063 0.40572 4.6004 0.8785 6.8507 1.5327 2.1326 0.53508 4.3024 0.89796 6.426 1.4666 4e-3 1e-3 7e-3 2e-3 0.0109 4e-3 -0.22237 0.38834-0.85893 0.67199-1.1307 0.83302-1.5498 0.64551-2.8476 0.84059-4.5315 0.74776-2.3568-0.0424-4.7132-0.11914-7.0662-0.26407-1.1681-0.0709-2.3365-0.12931-3.5052-0.18397-0.0831 0.72953-0.16518 1.4531-0.24288 2.1373 2.2861 0.10041 4.5718 0.2022 6.8564 0.33228 2.3705 0.13382 4.7432 0.23006 7.1169 0.28215 1.0839 0.0298 2.1992-5e-3 3.2484-0.31316 0.37532-0.11032 1.0256-0.4009 1.3932-0.55862 0.60578-0.32442 1.5976-0.93334 1.4046-1.7792-0.028-0.12284-0.1039-0.22948-0.15607-0.34416-1.704-1.8564-4.185-2.5735-6.4911-3.2887-2.1357-0.50334-4.2955-0.87829-6.4192-1.4356-1.9679-0.58262-3.979-0.98706-5.997-1.3482zm-40.929 4.2116c-0.39853 0.50833-1.17 0.88573-2.3151 0.88573h-5.7924c5.2999 0.58361 10.582 1.3125 15.88 1.9094 4.6933 0.62176 9.4083 1.0137 14.136 1.233 2.0943 0.0872 4.1901 0.1101 6.2859 0.1204-0.0566-0.75115-0.11441-1.5019-0.17621-2.2526-3.0601 6.3e-4 -6.1209-8e-3 -9.1793-0.11886-4.6968-0.20207-9.38-0.59554-14.044-1.1963-1.5997-0.18427-3.1974-0.38441-4.7956-0.58084zm55.756 0.017c-0.0515-0.0302 0.0718 0.0401 0.44649 0.25322 1e-3 1e-3 0.0128 0.0129 0.015 0.015-0.21037-0.12206-0.42201-0.24508-0.46147-0.2682zm-83.563 0.5948c-0.82237 0.41456-1.6227 0.86996-2.39 1.3741 0.01774 0.39211 0.03528 0.78416 0.05271 1.1762 0.01834 0.51989 0.01512 0.43518 0.02739 0.7798 0.76881-1.1108 1.5439-2.2172 2.3099-3.33zm59.873 1.2692v5.2e-4c-0.16449 4e-4 -0.32901 1e-3 -0.49351 2e-3 0.0618 0.75857 0.11812 1.5178 0.17467 2.2769 0.57603 3e-3 1.152 1.1e-4 1.7281-2e-3 8e-3 -0.0656 0.0158-0.12753 0.0243-0.19327 0.0778-0.60262 0.18764-1.4047 0.27698-2.08-0.57017-4e-3 -1.1403-6e-3 -1.7105-4e-3zm-65.667 3.9636c-0.12193 0.27319-0.22665 0.54713-0.36277 0.88367-0.32289 0.99748-0.71427 2.1065-0.25993 3.1342 0.23968-0.34292 0.4758-0.68836 0.7152-1.0315-0.0489-1.6276-0.07392-2.4441-0.0925-2.9864zm56.805 2.4035v0.00152c-2.0332 0.0199-4.0651 0.10475-6.0973 0.18551-2.5883 0.10994-5.1788 0.14892-7.769 0.17209-2.5279 0.0133-5.0556 0.0152-7.5835 0.015-2.5071 5.3e-4 -5.0144-3e-3 -7.5215-7e-3 -1.8292 0.0158-3.6601-0.0614-5.487 0.0434-2.8848 0.21789-5.7321 0.78091-8.5199 1.54-1.961 0.49333-3.8642 1.1798-5.6911 2.0428-0.20403 0.13443-0.40491 0.27482-0.60875 0.4098-1.4272-0.21966-2.8438-0.48596-4.2323-0.92139-0.08477-0.0266-0.21103-0.0815-0.3359-0.1354-0.01172-0.0181-0.0234-0.0275-0.03514-0.0465-0.02746-0.0444-0.04105-0.0908-0.06356-0.13591-0.14694 0.12732-0.30679 0.22207-0.47336 0.28318-0.09289 0.1324-0.18585 0.26475-0.27854 0.39739 0.97033 0.55475 1.9416 1.1078 2.9419 1.6051 0.09026 0.0449 0.32747 0.12055 0.61495 0.20619-0.85338 0.59375-1.6926 1.2074-2.5011 1.8609-1.3055 1.0267-2.2213 2.379-2.7699 3.9331-0.21666 1.1265-0.43553 2.4932 0.21859 3.5326 0.1047 0.16636 0.25077 0.30288 0.3762 0.45423 0.64329 0.375 1.2803 0.76104 1.9203 1.142-0.66249-1.2249-0.17242-2.314 0.81752-2.5218 0.03235-0.24468 0.07096-0.48382 0.11266-0.70797 0.49788-1.5028 1.3729-2.7817 2.6355-3.7569 1.2871-1.0382 2.6423-1.9946 4.037-2.8846 0.85055 0.11699 1.7045 0.21482 2.5575 0.31936 5.2016 0.61943 10.408 1.1961 15.616 1.758 2.0105 0.21819 4.0252 0.38025 6.042 0.51315 0.06784-0.11349 0.13371-0.22631 0.19534-0.33848 0.58147-1.0583 1.3264-1.5004 1.9782-1.5043 0.54826-3e-3 1.0303 0.30411 1.294 0.81597 1.9819-1.3116 3.5531-0.16543 3.144 1.3488 0.46943 0.0157 0.93868 0.0362 1.4082 0.0496 3.7246 0.0266 7.4418 0.0689 11.155 0.38034 2.9117 0.35289 5.8436 0.55128 8.7571 0.88677-0.0282-0.64417-0.0616-1.2881-0.0915-1.9322-0.56007-0.0738-1.1208-0.14301-1.6805-0.21911-3.3402-0.39355-6.7002-0.62927-10.044-0.99581-3.7177-0.29376-7.4369-0.34667-11.165-0.36277-4.6719-0.12071-9.342-0.35539-13.989-0.86919-4.0104-0.43853-8.0221-0.86634-12.028-1.3467 1.0961-0.41536 2.2104-0.78175 3.3476-1.0764 2.7794-0.75469 5.6259-1.3015 8.5075-1.4444 1.8191-0.059 3.6402-0.025 5.4601-0.0408 2.5025-3e-3 5.005-5e-3 7.5076-3e-3 2.531 5.3e-4 5.0618 7e-3 7.5928-0.0129 2.588-0.0238 5.1759-0.0811 7.7618-0.19276 2.7159-0.12095 5.4316-0.18991 8.1504-0.14728 0.0751-3.5e-4 0.15021-1.7e-4 0.22531-5.1e-4 -0.0447-0.76223-0.0866-1.5248-0.13539-2.2867-1.08 9e-5 -2.1601-1.8e-4 -3.2401-2e-3 -0.67814-0.0103-1.3557-0.0113-2.0335-4e-3zm8.8258 0.0103c0.0482 0.75799 0.0958 1.5165 0.14004 2.2748 0.17002-4.4e-4 0.34003-8.5e-4 0.51005-1e-3 0.0916-0.75409 0.18279-1.5092 0.2775-2.2727-0.0439-9e-5 -0.0879-5.1e-4 -0.13177-5.1e-4 -0.26528-5.2e-4 -0.53055-2e-4 -0.79582-5.2e-4zm4.5026 0.0212v5.1e-4c-0.0953 0.75724-0.1837 1.4965-0.27595 2.2448 2.7226 0.01 5.4487 0.0125 8.1649 0.22169 2.587 0.25495 5.1611 0.63345 7.674 1.3167 1.93 0.5356 3.8013 1.2493 5.6338 2.0567 0.20229 0.15607 0.40156 0.3169 0.56947 0.47284 0.18619 0.17292 0.35205 0.36612 0.52813 0.54932 0.30807 0.34594 1.4344 1.5248 1.2594 2.0541-0.0323 0.0975-0.1202 0.16631-0.18035 0.24959-1.4663 0.72799-3.1593 0.66774-4.7573 0.74569-2.0632-5.3e-4 -4.1261 2e-3 -6.1893 2e-3 -2.1649 2e-3 -4.3298 0.0145-6.4947 7e-3 -2.3634-0.0152-4.7298-0.0343-7.0874-0.21756-0.0727 0.65178-0.14414 1.3107-0.21445 1.9642 1.0254 0.11847 2.051 0.23561 3.0789 0.33073 2.4465 0.18509 4.9024 0.187 7.3546 0.20051 2.173 7e-3 4.3459 0.0106 6.519 8e-3 2.0617-5e-3 4.1235-3e-3 6.1852-5e-3 1.6632-0.0822 3.4088-0.0552 4.9062-0.87178 0.0962-0.1327 0.22154-0.24849 0.28887-0.39791 0.40825-0.90602-0.52906-1.9071-1.0454-2.5352-2.0198-2.1708-4.7304-3.6328-7.4109-4.8297-1.9655-0.84066-3.9552-1.6296-6.0306-2.1502-2.5257-0.64979-5.1079-1.0185-7.7013-1.2583-0.82861-0.0521-1.6581-0.0857-2.4877-0.11162-0.62568 0.53264-1.4234 0.49872-1.9771-0.045-0.10318-1e-3 -0.20636-6.2e-4 -0.30954-2e-3zm-35.08 13.463v0.00104c-2.5711 5e-3 -5.1421 2e-3 -7.7132 6e-3 -1.6716-3e-3 -3.355-4.1e-4 -5.0105 0.25941-0.31777 0.0499-1.9897 0.37928-2.3208 0.4439-1.5514 0.40594-3.1312 0.74392-4.6307 1.3224-0.59934 0.23121-1.4101 0.60359-1.9988 0.86765-0.66452 0.31834-1.2873 0.70583-1.8934 1.1188-0.64571-0.0807-1.2908-0.16861-1.9337-0.27491-0.54742-0.10046-1.087-0.2162-1.6294-0.32557 0.45922 0.55409 0.90192 1.1224 1.3513 1.6836 0.0905 0.11301 0.17196 0.22498 0.24598 0.3359 0.02346 5e-3 0.04681 0.011 0.07028 0.016-0.0128 0.0106-0.02544 0.0209-0.03824 0.0315 1.5018 2.3158-0.50216 4.0844-2.4479 2.4541-0.59612 0.72242-1.1535 1.4781-1.6857 2.2479-0.91821 1.4236-1.7478 2.9309-2.1115 4.5946-0.0337 0.98922 0.31621 1.8752 0.97824 2.5461-0.66044 0.36631-1.2929 0.77694-1.8738 1.2661-0.35093 0.29548-0.64109 0.65632-0.9617 0.98444-1.4488 1.923-2.111 4.3666-1.7213 6.7665 0.08095 0.49854 0.25488 0.97735 0.38241 1.4661 0.54592 1.2269 0.59087 1.526 1.418 2.5967 0.49417 0.6397 1.1862 1.351 1.881 1.8748-0.31808 0.28293-0.63247 0.57033-0.93896 0.8661-1.2559 1.3686-2.1868 2.9606-2.7538 4.7237-0.03631 0.15991-0.27424 1.1416-0.26148 1.3358 0.03906 0.59475 0.32084 0.97713 0.83509 1.2924 4.1779 2.5615 3.0916 2.1006 6.1805 3.0081 1.1818 0.33564 2.3638 0.66877 3.546 1.002-0.01654 0.0182-0.0352 0.0344-0.05168 0.0527-1.3887 1.8218-2.1629 3.5938-2.7342 5.7924-0.42019 1.8181-0.42072 3.6903-0.4315 5.5454-0.04334 1.0369 0.0012 2.0644 0.12454 3.082-0.5076 0.40041-1.0029 0.81774-1.4702 1.2738-1.4408 1.3525-2.3953 3.053-3.1936 4.8369-0.74807 2.0508-0.89994 4.1042-0.14779 6.1981 0.71416 1.9882 1.4058 2.7053 2.6288 4.438 0.12808 0.12547 0.25105 0.25677 0.3762 0.38551-2.4709 1.077-4.8316 2.3953-6.8797 4.1636-1.9318 1.9599-2.2029 3.9351-2.5104 6.565-0.02381 0.98781-0.10265 2.0876 0.08837 3.068 0.58186 2.9869 2.4346 5.573 4.1052 8.0316 1.2892 1.7564 2.6923 3.4198 4.1925 4.9894 0.04874 1.6251 0.40825 3.2252 0.91364 4.8173l0.38499 1.0015 3.5331 1.635c-0.13505-0.32817-0.27009-0.65678-0.40514-0.98495-0.34624-1.0276-0.6261-2.0318-0.80254-3.0412 1.2801 1.0991 2.609 2.1434 3.9961 3.113 1.0521 0.73546 2.157 1.3925 3.2355 2.0888 4.1068 2.5812 8.3693 4.6768 13.012 6.043 3.6542 1.0753 7.402 1.6722 11.153 2.2841 7.0891 1.1076 14.253 1.6275 21.421 1.789 3.1875-0.0338 6.4101-0.0731 9.5488-0.6997 1.684-0.33621 2.454-0.61334 4.0835-1.109 2.5214-0.88694 4.9867-1.9734 7.2657-3.3796 1.1635-0.71783 1.4543-0.99748 2.4758-1.8154 0.42031-0.402 1.1826-1.0144 1.3746-1.6263 0.67415-2.1482-1.8341-4.6947-3.0231-6.1174-2.8161-2.8108-5.9389-5.3271-9.2878-7.4781-2.1555-1.3844-6.4525-3.7036-8.1065-4.6261-1.8701-0.98877-3.8239-1.7437-5.8224-2.359 2.9862 0.17129 5.9775 0.25258 8.969 0.24339 0.69371-0.0288 1.3891-0.0285 2.081-0.0863 0.76845-0.0642 3.2908-0.44556 4.0287-0.54983 1.9362-0.27361 3.8721-0.54948 5.81-0.81081 2.5688-0.32028 5.2046-0.50056 7.6745-1.3415 0.42554-0.14489 0.83436-0.33499 1.2516-0.50229 1.6295-0.70192 2.7594-2.0071 3.5171-3.5843 0.15708-0.32698 0.33786-0.65296 0.40876-1.0087 0.0677-0.3399-2.6e-4 -0.69314-5.2e-4 -1.0397-0.20054-0.35626-0.29973-0.79287-0.60151-1.0687-0.55228-0.50475-1.2335-0.85289-1.8914-1.2092-1.9862-1.0759-3.9806-2.1429-6.0343-3.0835-1.1274-0.51637-2.3153-0.89256-3.4928-1.2811-3.4574-1.1407-4.7878-1.3839-8.3711-2.2541-5.8937-1.2243-11.826-2.3297-17.813-2.974 0.88919-0.17019 1.778-0.34235 2.6644-0.52193 3.4985-0.76256 6.9876-1.5467 10.541-2.0061 3.4582-0.32381 6.9275-0.51774 10.398-0.64285 3.3018-0.0744 6.6075-0.1699 9.9095-0.0739 2.7667 0.0793 5.5214 0.36599 8.2729 0.64957 1.8449 0.14373 3.695 0.4533 5.5449 0.27182 1.3926-0.27835 2.6258-1.1691 3.2959-2.4402 0.11051-0.20959 0.16976-0.44235 0.25476-0.66353 0.0169-0.1992 0.11705-0.40872 0.0512-0.59738-0.0931-0.26539-0.26225-0.52908-0.49919-0.68057-1.391-0.88937-2.8485-1.6755-4.3289-2.4066-0.40605-0.20051-0.86686-0.26454-1.3059-0.37568-1.1491-0.29093-1.8646-0.39386-3.0479-0.60307-3.3658-0.56092-6.7488-1.0051-10.135-1.4242-2.3971-0.31283-4.8165-0.43439-7.2321-0.37569-2.6259 0.14628-5.2524 0.34256-7.8734 0.56741-2.497 0.24333-4.9871 0.5251-7.4926 0.66766-2.6295 0.13655-5.2598 0.15414-7.8889 0.0217-0.94489-0.041-1.893-0.0805-2.8184-0.27957-2.5743-1.9933-5.5285-3.4458-8.5571-4.6369-3.1191-1.3902-6.3869-2.3094-9.7457-2.881-2.1935-0.29024-4.4096-0.29872-6.6182-0.29611-2.7502-0.073-5.4805 0.14423-8.2073 0.47181-3.3439 0.44147-6.5111 1.63-9.5028 3.1481 0.01866-1.5412 0.06535-3.0868 0.3824-4.5997 0.5131-2.1078 1.2812-3.9078 2.6464-5.6208 0.29333-0.31885 0.5984-0.62354 0.91622-0.91002 3.8467 1.0587 7.7035 2.079 11.589 2.991 5.3189 1.2089 10.737 1.855 16.178 2.1286 4.91 0.14164 9.8197 0.0246 14.726 0.27182 5.2779 0.39165 10.547 0.9613 15.793 1.6593 4.2675 0.66405 8.5691 1.0188 12.88 1.2278 2.4408 0.11539 4.8841 0.14172 7.3272 0.15245 1.6144-0.0275 3.0906-0.67845 4.4364-1.5203 0.3814-0.32257 0.64773-0.43931 0.78186-0.94827 0.12329-0.46756-0.0724-0.86352-0.48937-1.1364-3.4664-2.2681-3.0556-2.0232-5.6183-3.0003-3.8379-1.3215-7.7501-2.4217-11.693-3.3802-2.9245-0.8256-5.9532-0.99524-8.971-1.1302-2.6758-0.14894-5.352 0.0398-8.0254 0.14986-2.8262 0.11249-5.6547 0.13441-8.4827 0.14521-2.6734 0.0129-5.3467 5e-3 -8.0202 5e-3 -2.2158 0.0546-4.4235-0.0284-6.6327-0.185-1.8558-0.0713-3.7004-0.23541-5.5304-0.55191-2.6627-0.38341-5.3308-0.72703-7.9954-1.0976-2.2487-0.33235-4.5094-0.53611-6.7799-0.62115-1.8881-0.14411-3.7083 0.12154-5.4927 0.72192-1.162 0.3929-2.1644 1.0441-3.0623 1.8345-2.569-0.72045-5.1331-1.4607-7.69-2.2262-0.23324-0.0795-0.31465-0.10984-0.50023-0.17467-0.04445-0.39712 0.15084-0.83637 0.20774-1.2366 0.51716-1.7134 1.4057-3.2536 2.6184-4.577 0.29515-0.28781 0.59829-0.56685 0.90537-0.84078 1.5565 0.92852 2.0896 1.1244 4.5506 2.1859 0.9779 0.29798 1.9418 0.64609 2.9337 0.89348 2.3658 0.59003 5.8308 1.1386 8.1793 1.4614 4.8735 0.66978 9.7675 1.0437 14.671 1.3948 7.6175 0.48153 15.252 0.59254 22.883 0.66611 4.6969 0.0104 9.3943 0.0127 14.091-1e-3 3.9409 0.0734 7.8805-0.0897 11.791-0.58653 2.1587-0.27887 4.2682-0.66139 6.2136-1.6692 0.92225-0.62162 3.0574-1.9089 3.1295-3.1662 0.0141-0.24636-0.10173-0.483-0.15244-0.7245-0.20168-0.22593-0.35008-0.51467-0.60513-0.67799-1.4086-0.90197-2.8753-1.7119-4.3522-2.497-0.4156-0.22093-0.86946-0.36294-1.3146-0.51573-1.4243-0.48882-2.8955-0.81261-4.3656-1.1245-1.8059-0.38617-3.6461-0.51875-5.4875-0.56121-1.4232-0.0247-2.8462 0.0407-4.268-0.0372-2.0296-0.18753-4.0649-0.22009-6.1014-0.23771-3.0869 0.035-6.163-0.0675-9.2392-0.31265-3.1602-0.32047-6.3107-0.72438-9.4744-1.0108-4.0298-0.52304-8.079-0.8963-12.103-1.4619-2.4631-0.39116-4.943-0.65366-7.4337-0.76843-2.3186-0.0647-4.6384-0.0533-6.9577-0.0486-2.5633-0.14138-5.0643 0.3943-7.5525 0.92708-2.33 0.57619-4.6328 1.2236-6.8409 2.1694-1.553 0.69408-2.9766 1.6088-4.2995 2.6577-0.38955-0.57279-0.72304-1.1841-0.99167-1.8314-0.13772-0.46611-0.32106-0.92107-0.4129-1.3984-0.44111-2.2925 0.19082-4.6268 1.572-6.472 0.30522-0.30933 0.58216-0.64957 0.91571-0.92811 0.57532-0.48045 1.1999-0.88729 1.8521-1.2511 1.7881 1.0742 1.8373 1.0142 4.4416 1.9002 5.3013 1.4009 10.741 2.3486 16.203 2.853 1.2635 0.11671 2.5315 0.18045 3.7972 0.27079 6.3733 0.31083 12.757 0.5737 19.139 0.49919 3.871 6e-3 7.723-0.31052 11.57-0.70487 3.7056-0.4904 7.4316-0.766 11.165-0.92087 2.6782-0.0935 5.3562-0.061 8.0321-0.21136 1.7768-0.16699 3.5434-0.40873 5.2984-0.7307 1.6652-0.34986 3.3634-0.65061 4.9682-1.2252 1.4076-0.60105 1.9319-1.4762 1.8614-2.9771-0.42963-1.3311-1.3389-2.517-2.3115-3.5099-1.5276-1.278-3.4191-2.1704-5.1459-3.067-0.26091-0.13546-0.55698-0.18911-0.83768-0.27647-0.97045-0.30202-1.2438-0.36168-2.2655-0.63252-3.4622-0.74025-7.0088-0.88507-10.535-1.0139-1.7369-0.0455-3.4742-0.0669-5.2116-0.0785-0.0567 0.75054-0.10977 1.5014-0.15761 2.2526 2.8166-5e-3 5.6335-3e-3 8.4491 0.0811 3.5268 0.13278 7.0793 0.29381 10.526 1.1172 0.78121 0.21944 1.3384 0.36972 2.0469 0.60668 0.77525 0.79831 1.4211 1.7951 1.91 2.76 0.18718 1.3575-0.30921 2.0264-1.5704 2.5435-1.6021 0.53537-3.2793 0.83707-4.932 1.1756-1.7419 0.3002-3.4916 0.55366-5.2534 0.70487-2.6567 0.14914-5.3179 0.13023-7.9762 0.24597-3.7332 0.17723-7.4577 0.47256-11.166 0.94517-3.8296 0.36338-7.6597 0.70935-11.511 0.70693-6.3355 0.0921-12.676-0.0706-19.001-0.43873-6.7624-0.54395-13.545-1.3481-20.068-3.2985-0.14087-0.0524-0.23102-0.0888-0.36277-0.13901 1.5306-0.72335 3.1558-1.2873 4.6679-1.9678 2.9149-0.97139 5.9268-1.6392 8.9514-2.1714 2.7662-0.35744 5.5431-0.67954 8.3354-0.71985 2.6224-6e-3 5.2458-0.0211 7.8662-0.13333 2.3983-0.13344 4.7766-0.40356 7.1546-0.74414 3.6058-0.45964 7.2254-0.79281 10.853-1.0253 2.252-0.13887 4.503-0.22574 6.7567-0.25063-0.0229-0.75503-0.0461-1.5101-0.0724-2.265-0.0525-5e-5 -0.10508-4.6e-4 -0.15761-5.2e-4 -3.2136-0.0762-6.418 0.0887-9.6232 0.29611-3.6426 0.25736-7.2784 0.58753-10.905 1.016-2.378 0.31651-4.7533 0.59122-7.1494 0.7152-2.6173 0.1107-5.2377 0.10918-7.8569 0.11576-2.7976 0.0711-5.5758 0.40383-8.3463 0.77308-1.9984 0.32997-3.9646 0.82301-5.9268 1.3188-0.49676 0.12552-1.0005 0.2256-1.4909 0.37414-0.52903 0.16024-1.0429 0.36717-1.5642 0.55087-1.0371 0.49824-2.1336 0.92711-3.221 1.3777 0.37425-1.4166 1.1096-2.7113 1.895-3.9465 0.98751-1.4103 2.0512-2.7815 3.3109-3.9615 0.78582-0.66572 1.5884-1.3207 2.4329-1.912 3.1607 0.37699 6.3474 0.50716 9.525 0.67438 4.4197 0.19941 8.8455 0.21177 13.269 0.23977 3.9461 0.0204 7.8929 0.0259 11.839 0.0315 2.6787 7e-3 5.357 0.01 8.0357 0.0114 1.9604-0.0739 3.9109 0.0844 5.8606 0.25528-0.0255-0.68616-0.0517-1.3725-0.0775-2.0588-0.49392-0.0442-0.98801-0.0878-1.4842-0.11317-2.4754-0.21098-4.9494-0.46296-7.4383-0.36432-2.6652 3e-3 -5.3302 8e-3 -7.9954 0.0181-3.929 9e-3 -7.8584 0.0188-11.787 3e-3 -4.4331-0.0253-8.868-0.0523-13.296-0.28163-1.0417-0.0563-2.0844-0.10894-3.1269-0.16588 1.7333-0.69641 3.4732-1.2357 5.3439-1.6102 0.55924-0.10863 1.7384-0.34505 2.2981-0.42426 1.6449-0.23284 3.3136-0.22401 4.9708-0.23203 2.6519 4e-3 5.3037-8e-4 7.9556 6e-3 2.7101-6e-3 5.4206-8e-3 8.1308-0.0119 3.2389-6e-3 6.4779-9e-3 9.7167-0.0114 2.1973-1.7e-4 4.3946 0.0108 6.5918 0.0357-0.029-0.74212-0.0611-1.4841-0.0915-2.2262-3.1981-0.0696-6.3971-0.0553-9.5958-0.0584-3.245-8e-4 -6.4898 2e-3 -9.7348-2e-3 -2.1804-2.1e-4 -4.3612-3e-3 -6.5417-7e-3 -0.34111 0.18198-0.69369 0.34432-1.062 0.47904-0.24787-0.17309-0.51364-0.32647-0.77876-0.48059zm33.487 0.3452c-0.0717 0.69455-0.14745 1.3824-0.21653 2.0831 2.1455 0.0986 4.2877 0.25273 6.4187 0.53485 2.7873 0.27742 5.6171 0.34515 8.3282 1.1281 2.6037 0.71333 5.1828 1.5016 7.7535 2.3249 1.2696 0.34907 2.5465 0.68154 3.8096 1.0573-0.0513 0.14145-0.11949 0.27843-0.19223 0.39636-0.12117 0.13184-0.22292 0.28532-0.3638 0.39584-1.2151 0.95323-2.9297 0.80884-4.3667 0.78393-2.4151-0.1863-4.8127-0.50142-7.2089-0.85266-2.0456-0.26507-4.0845-0.58426-6.1138-0.95395-2.4337-0.35314-4.8734-0.66373-7.307-1.018-0.36497-0.0502-0.72978-0.10057-1.0945-0.15244-0.0564 0.6244-0.11613 1.2353-0.17053 1.8686 1.4554 0.18255 2.9062 0.40347 4.361 0.5979 2.4407 0.36028 4.89 0.66401 7.3282 1.0408 2.0292 0.38493 4.0745 0.69194 6.1237 0.95033 2.3942 0.34897 4.7916 0.64467 7.2047 0.82475 1.5232 0.0278 3.2923 0.085 4.5455-0.95704 0.16671-0.13862 0.28834-0.32383 0.43253-0.48576 0.22715-0.4153 0.34923-0.52071 0.37724-0.99116 0.0989-1.6619-3.1284-2.6343-4.5362-3.2065-1.9507-0.6134-3.9344-1.1192-5.9061-1.6624-2.5545-0.85145-5.1372-1.601-7.7344-2.3099-2.7292-0.7561-5.5762-0.77783-8.3721-1.0821-1.0303-0.13826-2.0645-0.23422-3.1001-0.31471zm-43.086 27.446c0.31637 1.1e-4 0.63364 9e-3 0.95188 0.0284 2.322 2e-3 4.6452-9e-3 6.966 0.078 2.4628 0.12265 4.9148 0.3847 7.3536 0.75086 4.0295 0.52852 8.0771 0.91583 12.107 1.4454 3.1704 0.3132 6.3299 0.72426 9.5017 1.0232 3.0825 0.23243 6.1638 0.31567 9.2552 0.29456 2.0528 0.0466 4.1031 0.12887 6.1505 0.28887 1.427 0.0576 2.8546 8e-3 4.2824 0.0367 1.8091 0.0484 3.6154 0.1992 5.3888 0.57878 1.4198 0.31129 2.8339 0.6372 4.2023 1.1364 0.0296 0.0568 0.0539 0.11521 0.061 0.1788 0.11467 1.0347-2.2045 2.4577-2.945 2.9063-1.9036 0.92055-3.9927 1.3235-6.0782 1.6035-3.8878 0.5038-7.803 0.64305-11.722 0.57723-4.679 6e-3 -9.3583 0.0463-14.037 0.0367-7.5702-4e-3 -15.144-0.0883-22.702-0.56327-4.908-0.35061-9.8042-0.72556-14.677-1.4376-2.4607-0.35963-5.8091-0.93419-8.2641-1.5916-0.99824-0.26733-1.9653-0.63918-2.9481-0.95859-0.30855-0.14017-0.60891-0.30638-0.91002-0.46923 1.4302-1.1841 2.9879-2.2019 4.7062-2.9476 2.2006-0.91343 4.4968-1.5278 6.8063-2.1038 2.1649-0.45485 4.3359-0.89264 6.5505-0.89193zm-22.242 13.727c0.24392 0.14818 0.40953 0.24342 0.7121 0.43357 0.23196 0.14578-0.50155-0.23898-0.70383-0.42375-0.0034-3e-3 -0.0049-7e-3 -0.0083-0.01zm18.256 1.587c0.45543-8e-3 0.91369 6e-3 1.3751 0.0403 2.251 0.0971 4.4939 0.3016 6.7241 0.62735 2.6746 0.3709 5.3541 0.70777 8.0212 1.1307 1.8421 0.29719 3.6988 0.44509 5.5625 0.52813 2.204 0.1408 4.4071 0.17433 6.6156 0.14004 2.6716 2e-3 5.3435-2e-3 8.015-0.0124 2.8314-0.0229 5.6636-0.0392 8.493-0.15399 2.6638-0.10995 5.3296-0.27642 7.9959-0.13075 2.9992 0.13398 5.9966 0.37169 8.9044 1.1725 3.8191 0.91725 7.6077 1.9849 11.306 3.312-0.0726 0.32803-0.39589 0.51378-0.62529 0.70383-1.3133 0.79496-2.7446 1.3575-4.3036 1.3488-2.4126 8e-3 -4.8258-0.0115-7.2368-0.108-4.2894-0.19889-8.5672-0.56939-12.814-1.219-5.2432-0.69136-10.512-1.2182-15.786-1.6164-4.9232-0.24439-9.8496-0.13867-14.775-0.3085-5.3882-0.27816-10.758-0.88176-16.023-2.0965-2.4424-0.57623-4.872-1.2004-7.2962-1.8443 0.5632-0.35346 1.1661-0.6469 1.8216-0.85628 1.3189-0.41841 2.6593-0.63414 4.0256-0.65732zm72.341 5.917c-0.0401-0.0239 0.29366 0.0939 0.51263 0.30127-0.24909-0.14638-0.20859-0.11987-0.51263-0.30127zm-64.73 6.4425c0.68573-0.01 1.372-5e-3 2.0593 0.016 2.1913 0.0103 4.3918 0.0124 6.5645 0.33745 3.3252 0.57796 6.5482 1.5278 9.6382 2.9006 1.3128 0.53733 1.8338 0.77744 1.8531 0.76585 0.32308 0.2653 0.63876 0.54048 0.96273 0.80408 3.3857 2.5076 4.9291 3.2184 8.6987 3.2897 2.6369 0.10329 5.2764 0.0809 7.9122-0.0558 2.5036-0.15694 4.9922-0.44414 7.489-0.68162 2.6186-0.21546 5.2409-0.42837 7.8657-0.54157 2.4007-0.0238 4.8001 0.10607 7.183 0.4067 3.3784 0.40499 6.7548 0.83949 10.106 1.4314 0.93754 0.1798 1.726 0.31607 2.6009 0.54105-0.0503 0.16649-0.0925 0.33631-0.17105 0.49092-0.60892 1.1993-1.7957 1.9564-3.0985 2.1461-1.8269 0.1-3.6504-0.15653-5.4694-0.30334-2.7506-0.28167-5.5075-0.53045-8.2724-0.61185-3.2969-0.0735-6.5948 0.0388-9.8909 0.11575-3.4844 0.12882-6.9689 0.30518-10.439 0.65888-3.5406 0.48201-7.0153 1.2818-10.499 2.066-4.5936 0.91467-9.2198 1.7653-13.909 1.9715-2.4712 0.0554-3.3612 0.12795-5.8766-0.0408-5.0616-0.33992-10.068-1.3144-14.931-2.7435-1.3294-0.44096-2.6233-1.0071-3.9879-1.3229-0.14554-0.0337 0.26686 0.48494 0.12816 0.42943-1.2686-0.50771-3.3447-1.9269-4.2028-3.1166-0.17034-0.23619-0.23956-0.53082-0.35915-0.79634-0.26934-0.89585-0.46203-1.8025-0.59221-2.7177 0.95402-0.73171 1.9645-1.3873 3.0324-1.9637 2.9709-1.5174 6.1149-2.6704 9.4501-3.05 2.0462-0.23914 4.0969-0.39688 6.1541-0.42581zm18.269 2.7833c-0.01142-0.0293 0.62834 0.35735 0.85783 0.50385 0.33162 0.21171 0.64239 0.45104 0.9462 0.69918-0.15271-0.10344-0.86666-0.50702-1.7565-1.1627-0.03131-0.0231-0.04591-0.0361-0.04754-0.0403zm-39.295 4.8307c0.99789 1.373 2.6002 2.334 4.0416 3.1068 6.6632 3.5721 4.4905 2.6468 10.193 4.438 1.47 0.42084 2.9535 0.79829 4.4457 1.1379-1.572 0.0521-3.1434 0.12783-4.7155 0.21756-4.1525 0.43759-8.2965 1.201-12.292 2.4319-0.79982 0.24643-1.5869 0.53292-2.3802 0.79943-0.16982 0.064-0.33818 0.13267-0.50746 0.19844-0.49425-0.7078-0.91431-1.4192-1.3126-2.4768-0.75225-1.9976-0.59018-3.966 0.12402-5.9278 0.62902-1.4211 1.3858-2.7634 2.403-3.9253zm93.314 0.61391c-3e-3 -0.026 0.50051 0.21787 0.64027 0.38654-0.20563-0.11296-0.40885-0.2292-0.60306-0.35657-0.0251-0.0164-0.0368-0.0262-0.0372-0.03zm-50.909 10.049c1.5575-3e-3 3.1153 0.0416 4.6721 0.15606 6.7611 0.60637 13.468 1.7187 20.103 3.1486 3.616 0.90243 4.9194 1.1442 8.4047 2.3332 1.1911 0.40635 2.3077 1.0385 3.53 1.3384 0.22223 0.0545-0.60577-0.63297-0.38654-0.56741 1.6533 0.49444 1.708 0.80837 2.5363 1.8805 0.0286 0.29978 0.1321 0.60203 0.0863 0.89968-0.0528 0.34359-0.22797 0.65819-0.37414 0.97359-0.70429 1.5197-1.8036 2.7083-3.3631 3.3621-0.40885 0.15718-0.81064 0.33514-1.2268 0.4718-2.4559 0.80643-5.0599 0.98887-7.6047 1.326-1.9314 0.27106-3.8606 0.5565-5.7924 0.82527-0.83223 0.11579-3.1411 0.44934-4.0075 0.51883-0.68327 0.0548-1.3693 0.0596-2.0541 0.0889-5.8073 0.0325-11.614-0.27615-17.387-0.91726-8.2856-0.99768-16.618-2.1274-24.528-4.9103-2.9792-1.038-4.0344-1.3576-6.95-2.5647-1.0994-0.4552-2.1536-1.0188-3.268-1.4361-0.06392-0.024 0.03533 0.23725-0.02377 0.20308-2.2184-1.2825-2.5774-1.6574-3.914-2.9435 0.50956-0.21264 1.0215-0.4189 1.5379-0.61289 0.78771-0.26273 1.5689-0.54592 2.3632-0.78806 3.9898-1.2163 8.1291-1.9565 12.278-2.341 3.5947-0.17849 7.1884-0.30744 10.788-0.17518 2.2651 0.0503 4.533 0.14518 6.798 0.0496 2.5909-0.17387 5.1866-0.31355 7.7825-0.31936zm-42.732 4.7046c0.53936 0.3852 1.0963 0.74623 1.6676 1.0806 2.062 1.2067 4.1662 2.343 6.2988 3.4199 1.0632 0.53689 2.1775 0.96792 3.2804 1.4175 2.9018 1.183 3.9922 1.5128 6.9562 2.5342 2.0174 0.62859 4.852 1.5539 6.9226 2.035 1.4212 0.33024 2.8586 0.58833 4.2943 0.84853 0.04748 9e-3 0.09514 0.0157 0.14263 0.0243-3.4383-0.0443-6.8771 0.20667-10.301 0.49661-3.6387 0.26322-7.2525 0.76013-10.832 1.4578-2.0716 0.50162-4.1864 0.98355-6.1572 1.818-0.88929 0.3765-1.2513 0.61158-2.0815 1.0811-2.0479 1.2844-2.7977 3.236-3.544 5.4214-0.04199 0.1884-0.06703 0.37524-0.0987 0.56275-0.31529-0.39952-0.63101-0.79882-0.93431-1.2082-1.6267-2.3834-3.4807-4.9162-4.0845-7.8078-0.19743-0.94555-0.13045-2.0394-0.11679-2.9946 0.29458-2.4627 0.56892-4.4743 2.3983-6.3004 1.8458-1.6256 3.9628-2.8677 6.1893-3.8866zm30.527 13.594c0.90658-0.0171 1.8137-0.0163 2.7208 4e-3 4.4562 0.0771 8.9294 0.19562 13.338 0.90692 4.6568 0.83657 9.2719 1.9545 13.476 4.209-0.25112-0.17965-1.0257-0.68455-0.75344-0.53899 3.5064 1.8744 6.7813 4.3025 9.755 6.9319 0.69583 0.61526 1.3529 1.2729 2.0293 1.9094 0.94499 1.11 3.5885 3.881 3.114 5.6162-0.1489 0.54451-0.92588 1.1986-1.2754 1.5436-0.35135 0.2879-0.68985 0.59224-1.0542 0.86351-2.5671 1.9114-5.5507 3.1823-8.5488 4.2447-1.6748 0.50194-2.3121 0.73858-4.0452 1.0723-3.1076 0.59835-6.2926 0.65056-9.4454 0.6935-7.1324-0.13412-14.26-0.65232-21.31-1.7725-4.923-0.82611-9.8352-1.6896-14.511-3.5052-3.4821-1.3521-2.2187-2.0019-3.406-1.3457-1.081-0.68754-2.1891-1.3342-3.2432-2.0624-2.7269-1.8838-5.2503-4.0365-7.5442-6.4136-0.01123-0.79419 0.0522-1.6014 0.23306-2.4381 0.69406-2.1094 1.4119-3.9611 3.392-5.1785 0.81658-0.45513 1.1616-0.67528 2.0324-1.0433 1.9475-0.82316 4.0285-1.3222 6.0823-1.7906 3.5741-0.69157 7.1856-1.1668 10.818-1.4175 2.7093-0.23366 5.426-0.43752 8.1458-0.48885z" fill="#f60" filter="url(#filter2141)" stroke-width=".26458"/>
</svg>
