<svg width="210mm" height="297mm" version="1.1" viewBox="0 0 210 297" xmlns="http://www.w3.org/2000/svg">
 <path d="m171.96 88.518c-2.1303-0.54005-5.2636-2.3482-7.4573-4.3034-2.2341-1.9912-6.2714-7.2614-11.235-14.666-6.2471-9.3192-9.7784-11.922-19.965-14.717-6.065-1.6641-8.338-2.7028-9.6344-4.4024-1.308-1.7148-123.34-7.0153-123.33-10.895 0.0236-9.7822 126.01-15.558 133.79-23.421 8.017-8.1037 17.837-13.054 30.694-15.474 4.4575-0.83906 16.123-0.83906 20.581 0 14.678 2.763 26.434 9.3985 34.047 19.218 6.6629 8.5942 9.4013 17.351 8.6594 27.693-1.5828 22.061-23.754 40.256-50.158 41.161-2.5371 0.087-5.2328 1e-3 -5.9905-0.19109z" fill-opacity=".26894" stroke-dasharray="8.52953, 8.52953" stroke-linejoin="bevel" stroke-width=".3554" style="paint-order:markers stroke fill"/>
</svg>
