<svg width="546.13" height="546.13" version="1.1" viewBox="0 0 546.13 546.13" xmlns="http://www.w3.org/2000/svg">
 <defs>
  <filter id="filter4782" x="-.06063" y="-.052953" width="1.1213" height="1.1059" color-interpolation-filters="sRGB">
   <feGaussianBlur in="SourceGraphic" result="result0" stdDeviation="6"/>
   <feDiffuseLighting lighting-color="rgb(255,255,255)" result="result5" surfaceScale="4">
    <feDistantLight azimuth="235" elevation="45"/>
   </feDiffuseLighting>
   <feComposite in="result5" in2="SourceGraphic" k1="1.4" operator="arithmetic" result="fbSourceGraphic"/>
   <feGaussianBlur in="fbSourceGraphic" result="result0" stdDeviation="6"/>
   <feSpecularLighting lighting-color="rgb(255,255,255)" in="result0" result="result1" specularExponent="25" surfaceScale="4">
    <feDistantLight azimuth="235" elevation="45"/>
   </feSpecularLighting>
   <feComposite in="fbSourceGraphic" in2="result1" k2="1" k3="1" operator="arithmetic" result="result4"/>
   <feComposite in="result4" in2="SourceGraphic" operator="in" result="result2"/>
  </filter>
 </defs>
 <g transform="translate(-3.9149 1.6312)" fill="#f60" fill-opacity=".64394">
  <path d="m267.52 543.51c-1.256-0.48952-3.0912-0.90659-4.078-0.92685-0.98689-0.0202-1.7944-0.30932-1.7944-0.64236 0-0.33305-1.6188-0.8078-3.5973-1.055s-3.7576-0.70876-3.9534-1.0257c-0.19587-0.31693-1.0555-0.57623-1.9103-0.57623s-1.723-0.27308-1.9292-0.60683-1.9853-0.80801-3.9534-1.0539-3.5784-0.67356-3.5784-0.95034c0-0.27679-0.80745-0.66208-1.7943-0.85619-4.036-0.79383-8.3969-1.8599-9.6242-2.3528-2.3702-0.95177-5.834-1.9244-8.4824-2.3817-1.4355-0.2479-2.9036-0.67859-3.2624-0.95708-0.35887-0.2785-2.0508-0.71452-3.7598-0.96895s-3.2679-0.72234-3.4641-1.0398c-0.1962-0.31745-1.2203-0.5772-2.2757-0.5772s-1.919-0.27249-1.919-0.60553c0-0.33305-1.6149-0.80731-3.5887-1.0539-1.9738-0.24661-3.5887-0.70817-3.5887-1.0257 0-0.31752-0.86353-0.57731-1.919-0.57731-1.0554 0-2.0834-0.26611-2.2844-0.59136-0.20102-0.32525-1.9067-0.80122-3.7903-1.0577-1.8836-0.25649-3.5716-0.65847-3.7511-0.8933-0.17943-0.23483-2.6752-0.98439-5.5462-1.6657-2.871-0.68129-5.5209-1.4624-5.8887-1.7358s-2.203-0.70065-4.078-0.94939-3.4093-0.70805-3.4093-1.0207-0.86353-0.56843-1.919-0.56843c-1.0554 0-2.0795-0.25974-2.2757-0.5772s-1.7248-0.78235-3.3968-1.0331c-1.6721-0.25073-3.5108-0.689-4.0861-0.97392-1.5868-0.78587-5.3082-1.8516-8.2233-2.3551-1.4355-0.2479-2.9036-0.67859-3.2624-0.95708-0.35887-0.2785-2.0508-0.71452-3.7598-0.96895s-3.2679-0.72233-3.4641-1.0398c-0.1962-0.31745-1.2203-0.5772-2.2757-0.5772s-1.919-0.27249-1.919-0.60553c0-0.33305-1.6188-0.8078-3.5973-1.055s-3.7576-0.70876-3.9534-1.0257-1.0555-0.57623-1.9103-0.57623c-0.85481 0-1.723-0.27307-1.9292-0.60682-0.20627-0.33376-1.9853-0.80802-3.9534-1.0539s-3.5784-0.63819-3.5784-0.87175-2.4224-0.98522-5.383-1.6704-5.684-1.469-6.0518-1.7419-2.2096-0.70062-4.0927-0.95043-3.5814-0.70911-3.774-1.0207-1.0495-0.56649-1.9043-0.56649c-0.85481 0-1.7187-0.26611-1.9197-0.59136s-1.8329-0.79319-3.6265-1.0399-3.4255-0.71461-3.6265-1.0399-1.2117-0.59136-2.2459-0.59136-2.0619-0.29362-2.2837-0.65249c-0.22179-0.35887-1.12-0.65249-1.996-0.65249-1.5369 0-1.5927-0.15995-1.5927-4.5674 0-2.5121-0.24024-4.5674-0.53386-4.5674s-0.54834-0.80745-0.56605-1.7943c-0.13396-7.4647-1.0491-20.955-1.4939-22.022-0.29934-0.71773-0.88417-6.4433-1.2996-12.724s-1.0219-14.061-1.3477-17.291c-0.88635-8.7879-2.5924-29.258-2.9638-35.561-0.17975-3.0504-0.52231-5.9866-0.76126-6.5249s-0.80498-6.1171-1.2578-12.397c-1.3408-18.594-2.0769-27.568-2.4885-30.341-0.21313-1.4355-0.54598-5.693-0.73967-9.4611s-0.53294-7.2916-0.75388-7.8299c-0.38504-0.93812-1.8354-18.394-2.4938-30.014-0.17283-3.0504-0.51067-5.9866-0.75076-6.5249-0.40801-0.91482-1.7595-16.792-2.4995-29.362-0.17955-3.0504-0.52196-5.9866-0.76091-6.5249s-0.80472-6.1171-1.2573-12.397c-1.6558-22.978-2.1685-29.133-2.8169-33.814-0.364-2.6278-0.66182-6.7629-0.66182-9.1892s-0.22022-4.6302-0.48937-4.8975c-0.44284-0.43982-1.6627-14.903-2.5359-30.066-0.1858-3.2264-0.57641-6.1626-0.86801-6.5249-0.2916-0.36227-0.74316-5.7272-1.0035-11.922-0.2603-6.1948-0.73311-11.424-1.0507-11.62-0.31758-0.19628-0.57742-3.1289-0.57742-6.517s-0.24797-6.1601-0.55104-6.1601-0.87823-5.2118-1.2781-11.582c-1.3214-21.049-2.0672-30.455-2.733-34.472-0.36177-2.1826-0.65776-6.0241-0.65776-8.5367s-0.22022-4.7871-0.48937-5.0544c-0.42881-0.42588-1.5272-13.314-2.5072-29.42-0.17471-2.871-0.5118-5.6603-0.7491-6.1986s-0.73948-6.3379-1.1159-12.888l-0.68449-11.909 475.01 4.7218e-4 -0.68269 11.583c-0.37548 6.3706-0.87819 12.023-1.1171 12.562-0.23895 0.5383-0.57586 3.4745-0.74869 6.5249-0.82664 14.59-2.0678 29.308-2.5083 29.746-0.26915 0.26732-0.49107 2.5658-0.49314 5.1078-2e-3 2.542-0.29179 6.3807-0.6438 8.5304s-0.83038 7.8753-1.063 12.724c-0.23267 4.8482-0.64598 9.1086-0.91848 9.4674s-0.70898 5.8642-0.96996 12.234c-0.26098 6.3699-0.71229 11.582-1.0029 11.582s-0.68389 2.716-0.87394 6.0355c-0.75201 13.135-2.111 29.577-2.5214 30.504-0.23829 0.5383-0.57135 3.3277-0.74014 6.1986-1.0939 18.607-2.0184 29.688-2.477 29.688-0.29172 0-0.53614 2.1288-0.54314 4.7306s-0.44449 8.5476-0.97221 13.213-0.96243 10.594-0.96601 13.174c-3e-3 2.5806-0.26619 4.8525-0.58358 5.0487s-0.79161 5.6455-1.0538 12.11c-0.26222 6.4641-0.71644 11.753-1.0094 11.753s-0.68913 2.716-0.88041 6.0355c-1.0681 18.536-1.9473 29.563-2.3802 29.851-0.26931 0.17943-0.65722 3.1156-0.86205 6.5249-0.77633 12.922-2.1305 29.074-2.5164 30.014-0.2208 0.5383-0.58083 4.8273-0.80007 9.5312-0.21923 4.7038-0.68194 10.283-1.0282 12.397-0.3463 2.1146-0.63134 6.103-0.63342 8.8631-2e-3 2.76-0.26575 5.1802-0.58592 5.3781-0.32019 0.19788-0.79651 5.5052-1.0585 11.794-0.26199 6.2889-0.73408 11.594-1.0491 11.788-0.31499 0.19467-0.57271 2.9619-0.57271 6.1493s-0.26197 5.9573-0.58215 6.1552-0.79423 5.5738-1.0534 11.946c-0.25921 6.3726-0.70769 11.882-0.99661 12.243s-0.67145 3.1503-0.85006 6.1986c-1.0399 17.748-1.904 28.502-2.3611 29.383-0.28614 0.55212-0.73714 6.061-1.0022 12.242-0.26508 6.181-0.7418 11.399-1.0594 11.595-0.31758 0.19627-0.57742 2.5417-0.57742 5.212 0 4.1108-0.16797 4.8552-1.0955 4.8552-1.1835 0-5.1074 1.1441-6.8016 1.9832-0.57528 0.28492-2.414 0.72319-4.0861 0.97393s-3.2006 0.71563-3.3968 1.0331-1.0561 0.5772-1.9109 0.5772-1.7118 0.25492-1.9043 0.56649-1.8504 0.76551-3.6841 1.0088-3.8222 0.70235-4.419 1.0202c-1.2671 0.67501-6.0367 1.9532-9.0779 2.4328-1.1663 0.18392-2.1206 0.56207-2.1206 0.84033s-1.6149 0.70769-3.5887 0.95429c-1.9738 0.24661-3.5887 0.72087-3.5887 1.0539s-0.86353 0.60554-1.919 0.60554-2.0877 0.27307-2.294 0.60682c-0.20626 0.33376-1.9853 0.80802-3.9534 1.0539-1.9681 0.2459-3.5784 0.70688-3.5784 1.0244s-0.86353 0.5773-1.919 0.5773-2.0795 0.25975-2.2757 0.5772c-0.1962 0.31747-1.755 0.78537-3.4641 1.0398-1.709 0.25443-3.401 0.69045-3.7598 0.96895-0.35887 0.27849-1.827 0.70918-3.2624 0.95708-2.9152 0.50346-6.6366 1.5692-8.2233 2.3551-0.57528 0.28492-2.414 0.72319-4.0861 0.97392-1.6721 0.25075-3.2006 0.71564-3.3968 1.0331s-1.2203 0.5772-2.2757 0.5772-1.919 0.2558-1.919 0.56843-1.5342 0.77194-3.4093 1.0207-3.7102 0.67597-4.078 0.94939-3.0178 1.0545-5.8887 1.7358c-2.871 0.68127-5.3667 1.4034-5.5462 1.6047-0.33517 0.37603-5.8531 1.7436-9.6242 2.3853-1.1663 0.19846-2.1206 0.5885-2.1206 0.86675 0 0.27826-1.6149 0.70769-3.5887 0.9543s-3.5887 0.72087-3.5887 1.0539c0 0.33304-0.86353 0.60553-1.919 0.60553s-2.0795 0.25975-2.2757 0.5772c-0.1962 0.31746-1.755 0.78537-3.4641 1.0398-1.709 0.25443-3.401 0.69045-3.7598 0.96895-0.35887 0.27849-1.827 0.70918-3.2624 0.95708-2.6484 0.45738-6.1122 1.43-8.4824 2.3817-1.2273 0.49284-5.5883 1.5589-9.6242 2.3528-0.98689 0.19411-1.7943 0.5794-1.7943 0.85619 0 0.27678-1.6103 0.70444-3.5784 0.95034s-3.7472 0.72016-3.9534 1.0539c-0.20628 0.33375-1.0744 0.60683-1.9292 0.60683s-1.7145 0.2593-1.9103 0.57623c-0.19587 0.31692-1.9749 0.77848-3.9534 1.0257s-3.5973 0.6588-3.5973 0.91467c0 0.64907-6.7803 2.0991-11.092 2.3723-2.0374 0.12904-4.5758-0.15742-5.8724-0.66272zm10.44-102.11c0.17943-0.26562 1.8674-0.69281 3.7511-0.94929 1.8837-0.2565 3.5893-0.73246 3.7903-1.0577s0.98299-0.59136 1.7377-0.59136c1.3549 0 7.4356-1.6184 9.9693-2.6533 1.2227-0.49942 5.5311-1.5567 9.6242-2.3618 0.98689-0.19411 1.7943-0.57939 1.7943-0.85618s1.6103-0.70444 3.5784-0.95034 3.7472-0.72016 3.9534-1.0539c0.20627-0.33375 1.2386-0.60682 2.294-0.60682s1.919-0.25979 1.919-0.57731c0-0.31751 1.6103-0.7785 3.5784-1.0244 1.9681-0.24591 3.7472-0.72017 3.9534-1.0539s0.99254-0.60682 1.7473-0.60682c1.3567 0 7.4437-1.6207 9.9693-2.6544 0.71774-0.29376 2.5513-0.72311 4.0746-0.95411s2.9353-0.68808 3.1378-1.0157c0.20249-0.32765 1.2317-0.59572 2.2871-0.59572s1.919-0.25978 1.919-0.5773 1.6103-0.7785 3.5784-1.0244 3.7472-0.72016 3.9534-1.0539c0.20627-0.33375 1.2386-0.60682 2.294-0.60682s1.919-0.25979 1.919-0.57731c0-0.31751 1.6103-0.7785 3.5784-1.0244 1.9681-0.24591 3.7232-0.68147 3.9003-0.96792 0.17704-0.28645 1.7845-0.71484 3.5722-0.95198s3.4265-0.71628 3.6418-1.0647c0.21537-0.34847 1.2378-0.63357 2.272-0.63357s2.038-0.25492 2.2306-0.56649 1.8127-0.76051 3.6004-0.99765 3.4265-0.71627 3.6418-1.0647c0.21536-0.34847 1.1964-0.63358 2.18-0.63358 0.98365 0 2.0674-0.26876 2.4083-0.59723 0.34093-0.32849 1.3482-0.69551 2.2383-0.81562 2.2519-0.30383 2.1136 0.74678 4.7956-36.432 0.45305-6.2802 1.0187-11.859 1.257-12.397 0.23828-0.5383 0.58403-3.3277 0.76832-6.1986 1.5396-23.984 1.9289-28.751 2.372-29.043 0.27858-0.18351 0.6581-2.9729 0.84338-6.1986 1.0203-17.764 1.8842-28.177 2.4212-29.183 0.33278-0.62316 0.60676-3.2657 0.60884-5.8724 2e-3 -2.6067 0.29529-6.5011 0.65158-8.6543 0.3563-2.1532 0.83503-7.732 1.0639-12.397 0.22884-4.6653 0.63873-8.776 0.91087-9.1348 0.27215-0.35887 0.70626-5.644 0.96471-11.745 0.25844-6.1008 0.70716-11.389 0.99716-11.751 0.28999-0.36228 0.68677-3.2985 0.88174-6.5249 0.96297-15.936 2.08-28.978 2.5193-29.414 0.26915-0.26698 0.48937-2.7812 0.48937-5.5872s0.30126-6.3539 0.66948-7.8842 0.94925-7.1867 1.2912-12.57c0.96263-15.155 1.8821-26.296 2.602-31.53 0.36148-2.6278 0.65724-6.8999 0.65724-9.4937s0.26421-4.9949 0.58713-5.3358c0.32293-0.34092 0.79681-5.3912 1.0531-11.223l0.46593-10.603h-303.56l0.068 5.383c0.0667 5.2818 0.64973 14.944 1.88 31.156 0.34039 4.4859 0.80939 11.331 1.0422 15.212l0.42332 7.0558 233.44-0.40926-8e-5 4.6c-4e-5 2.53-0.27571 4.879-0.61258 5.2199-0.33688 0.34093-0.76666 3.8497-0.95508 7.7972-0.8895 18.636-2.0677 35.505-2.5105 35.945-0.26915 0.26713-0.48937 1.6037-0.48937 2.9701v2.4844l-22.022 0.27951c-12.112 0.15373-48.888 0.60827-81.724 1.0101s-73.062 0.94424-89.391 1.2054l-29.688 0.47481 0.18269 2.9362c0.62095 9.9793 0.9538 13.05 1.4147 13.05 0.2856 0 0.73165 4.4043 0.99123 9.7872s0.7376 9.9514 1.0623 10.152c0.32467 0.20066 0.59602 2.3294 0.603 4.7306 7e-3 2.4012 0.4381 7.302 0.95804 10.891 0.51995 3.5887 0.95467 6.7661 0.96605 7.0608 0.0219 0.56653 180.06 0.0431 199.85-0.58102l11.582-0.3653v3.5922c0 1.9757-0.25795 3.7517-0.57323 3.9465-0.31528 0.19486-0.78635 4.3963-1.0468 9.3365s-0.71034 9.2758-0.99971 9.6347c-0.28936 0.35887-0.69089 2.7078-0.89229 5.2199-0.99899 12.461-2.1494 23.592-2.5288 24.468-0.23297 0.5383-0.57161 2.8873-0.75254 5.2199-1.6368 21.102-1.8995 22.119-5.7285 22.164-0.96571 0.0114-1.9246 0.29382-2.1309 0.62757s-1.9853 0.80801-3.9534 1.0539-3.5784 0.70688-3.5784 1.0244-0.61245 0.57731-1.361 0.57731c-1.9232 0-10.013 2.1829-10.275 2.7725-0.11962 0.26949-1.0402 0.48998-2.0457 0.48998-1.7235 0-7.2569 1.4437-10.134 2.644-0.71774 0.29943-2.615 0.74418-4.2161 0.98832-1.6011 0.24415-3.3628 0.66518-3.9149 0.93562-1.5635 0.76586-5.3125 1.8333-8.1812 2.3294-1.4355 0.24825-2.9036 0.6319-3.2624 0.85256-1.111 0.68311-7.7252 2.1521-9.7873 2.1736-2.2772 0.0238-7.9922-1.2247-9.5673-2.0901-0.59671-0.32785-2.5852-0.79512-4.419-1.0384-1.8337-0.24324-3.4916-0.69719-3.6841-1.0088-0.19257-0.31156-1.0495-0.56648-1.9043-0.56648s-1.7273-0.28006-1.9388-0.62234c-0.21155-0.34228-2.1374-0.82064-4.2797-1.063s-3.8951-0.66304-3.8951-0.93483c0-0.27178-0.80745-0.66155-1.7943-0.86615-0.98689-0.20461-3.5561-0.73313-5.7093-1.1745-2.1532-0.44138-4.0618-1.0008-4.2412-1.2431-0.17944-0.24235-1.2071-0.61463-2.2837-0.82729-5.0336-0.99426-9.1645-2.0703-9.4611-2.4645-0.17944-0.23847-1.8674-0.64345-3.7511-0.89994s-3.5893-0.73245-3.7903-1.0577c-0.20101-0.32525-1.1556-0.6007-2.1213-0.61211-3.4598-0.0409-3.773-0.8333-4.6348-11.724-0.44014-5.5625-0.93604-12.463-1.102-15.333s-0.56309-5.8072-0.88251-6.5249-0.74248-4.8061-0.94012-9.0853c-0.24316-5.2648-0.62882-7.9514-1.1928-8.3092-0.91447-0.58033-59.209-0.76703-60.701-0.19441-0.74419 0.28557-0.86465 1.7126-0.61968 7.3405 0.16726 3.8423 0.51589 7.1328 0.77476 7.3123 0.41237 0.28585 1.1302 9.2944 2.3648 29.681 0.19536 3.2257 0.58314 6.0151 0.86173 6.1986 0.27859 0.18351 0.83195 5.472 1.2297 11.752 1.0564 16.68 2.0101 28.813 2.5744 32.751 0.43437 3.0319 0.69766 3.4888 2.1204 3.6801 0.89346 0.12011 1.9034 0.48713 2.2443 0.81562 0.34092 0.32847 1.4247 0.59723 2.4083 0.59723 0.98366 0 1.9541 0.26807 2.1566 0.59572 0.20249 0.32764 1.6145 0.78471 3.1378 1.0157 1.5233 0.23101 3.3569 0.665 4.0746 0.96444 2.669 1.1135 8.3557 2.644 9.8238 2.644 0.83478 0 1.6866 0.27308 1.8928 0.60683 0.20626 0.33375 1.9853 0.80801 3.9534 1.0539s3.5784 0.70688 3.5784 1.0244 0.82214 0.57731 1.827 0.57731 2.1284 0.30142 2.4968 0.66983c0.3684 0.3684 2.1888 0.84973 4.0454 1.0696 1.8566 0.21988 3.3756 0.61919 3.3756 0.88733 0 0.26816 0.80746 0.65566 1.7944 0.86112 2.7324 0.56887 8.8489 2.1145 9.9505 2.5145 2.8999 1.0529 8.4488 2.48 9.643 2.48 0.75474 0 1.541 0.27307 1.7473 0.60682s1.9853 0.80801 3.9534 1.0539 3.5784 0.67355 3.5784 0.95033c0 0.2768 0.80745 0.66208 1.7943 0.85619 4.1563 0.8175 8.4064 1.865 9.6242 2.3721 2.46 1.0243 8.3058 2.643 9.5449 2.643 0.6814 0 1.7488 0.26171 2.3719 0.58157 1.7507 0.89864 8.2639 2.6809 9.7973 2.6809 0.75473 0 1.5328 0.25974 1.729 0.5772s1.755 0.78537 3.4641 1.0398c1.709 0.25442 3.401 0.7006 3.7598 0.9915 1.5156 1.2286 9.2821 1.2208 10.114-0.0101z" filter="url(#filter4782)" stroke-width=".65249"/>
  <g stroke-width=".11534">
   <path d="m332.68 157.07c2.2045-0.0175 5.8119-0.0175 8.0165 0s0.40083 0.0319-4.0082 0.0319-6.2128-0.0144-4.0082-0.0319z"/>
   <path d="m310.62 157.84c5.6203-0.085 12.105-0.21413 22.492-0.448 5.3077-0.11951 16.769-0.11119 13.899 0.0101-1.0785 0.0456-3.1547 0.13984-4.6138 0.20949-3.6613 0.17479-18.773 0.34679-29.182 0.33215l-8.6509-0.0122z"/>
   <path d="m340.56 157.72c1.6494-0.0512 3.8814-0.15363 4.9598-0.22768 1.0785-0.074 4.3355-0.15479 7.2379-0.17943l5.277-0.0448-0.0157 0.31947c-0.0134 0.27199-0.0231 0.2809-0.0657 0.06-0.0434-0.22542-0.12153-0.25953-0.5943-0.25953-0.31658 0-0.73362 0.0965-0.99679 0.23069-0.44218 0.22543-0.66148 0.23027-9.6268 0.21253-7.3487-0.0145-8.5776-0.0367-6.1754-0.1112z"/>
   <path d="m357.46 171.98c-9e-3 -0.37929 0.27188-1.5366 0.40195-1.6556 0.0808-0.0739 0.0426 0.13934-0.24506 1.3672-0.10837 0.46267-0.15084 0.54073-0.15689 0.28836z"/>
   <path d="m357.03 179.42c0-0.60268 0.0194-0.84923 0.0432-0.54789s0.0238 0.79444 0 1.0958c-0.0238 0.30134-0.0432 0.0548-0.0432-0.54788z"/>
   <path d="m357.48 174.17c1e-3 -0.25375 0.0249-0.34398 0.0525-0.2005s0.0265 0.3511-2e-3 0.46138c-0.0289 0.11028-0.0514-7e-3 -0.0502-0.26088z"/>
   <path d="m357.26 172.79c8.7e-4 -0.3172 0.0233-0.43327 0.0498-0.25794s0.0258 0.43485-2e-3 0.57672c-0.0274 0.14187-0.0491-2e-3 -0.0482-0.31878z"/>
   <path d="m357.37 172.44c1e-3 -0.25376 0.0249-0.34399 0.0525-0.20051s0.0265 0.3511-2e-3 0.46138c-0.0289 0.11028-0.0514-7e-3 -0.0502-0.26087z"/>
   <path d="m357.26 180.46c0-0.34892 0.0216-0.49166 0.048-0.3172s0.0264 0.45994 0 0.6344-0.048 0.0317-0.048-0.3172z"/>
   <path d="m356.31 183.7c-5e-3 -0.7552 0.0283-0.8883 0.30163-1.2111l0.30702-0.36268-0.0864 0.46138c-0.0475 0.25376-0.0854 0.54828-0.0842 0.65449 1e-3 0.1062-0.0957 0.44359-0.21527 0.74974l-0.21747 0.55663z"/>
   <path d="m356.8 185.71c-3.6e-4 -0.57096 0.0192-0.81907 0.0433-0.55137 0.0242 0.26771 0.0245 0.73485 6.4e-4 1.0381-0.0238 0.30325-0.0436 0.0842-0.044-0.48674z"/>
  </g>
 </g>
</svg>
