<svg width="546.13" height="546.13" version="1.1" viewBox="0 0 546.13 546.13" xmlns="http://www.w3.org/2000/svg">
 <defs>
  <filter id="filter1615" x="-.060629" y="-.052952" width="1.1213" height="1.1059" color-interpolation-filters="sRGB">
   <feGaussianBlur in="SourceGraphic" result="result0" stdDeviation="6"/>
   <feDiffuseLighting lighting-color="rgb(255,255,255)" result="result5" surfaceScale="4">
    <feDistantLight azimuth="235" elevation="45"/>
   </feDiffuseLighting>
   <feComposite in="result5" in2="SourceGraphic" k1="1.4" operator="arithmetic" result="fbSourceGraphic"/>
   <feGaussianBlur in="fbSourceGraphic" result="result0" stdDeviation="6"/>
   <feSpecularLighting lighting-color="rgb(255,255,255)" in="result0" result="result1" specularExponent="25" surfaceScale="4">
    <feDistantLight azimuth="235" elevation="45"/>
   </feSpecularLighting>
   <feComposite in="fbSourceGraphic" in2="result1" k2="1" k3="1" operator="arithmetic" result="result4"/>
   <feComposite in="result4" in2="SourceGraphic" operator="in" result="result2"/>
  </filter>
 </defs>
 <path d="m269.49 547.93c-1.0148-0.17685-1.845-0.60341-1.845-0.94791s-0.88793-0.62636-1.9732-0.62636-2.149-0.28447-2.3639-0.63216c-0.21488-0.34769-1.8178-0.83865-3.562-1.091s-3.4732-0.68855-3.8422-0.9693c-0.36901-0.28073-2.018-0.73286-3.6643-1.0047-1.6464-0.27185-3.4578-0.73101-4.0256-1.0203-1.8563-0.94608-8.1944-2.6627-9.8313-2.6627-0.88015 0-1.6003-0.28019-1.6003-0.62264 0-0.34246-1.6605-0.83013-3.6901-1.0837-2.0296-0.25358-3.6901-0.72818-3.6901-1.0547 0-0.3265-0.76448-0.59363-1.6989-0.59363-0.93437 0-2.7828-0.45287-4.1075-1.0064-1.3248-0.55352-3.1087-1.0064-3.9644-1.0064-0.85568 0-1.7316-0.28447-1.9465-0.63216-0.21488-0.34769-1.8178-0.83865-3.562-1.091-1.7442-0.25237-3.4732-0.69443-3.8422-0.98236s-2.1087-0.73755-3.8661-0.99917c-1.7573-0.26162-3.3602-0.74275-3.562-1.0692-0.20174-0.32642-1.086-0.59351-1.9649-0.59351s-1.7717-0.28078-1.9838-0.62396c-0.21209-0.34319-2.0414-0.83085-4.0651-1.0837s-3.6795-0.70513-3.6795-1.0051-1.6605-0.75281-3.6901-1.0064c-2.0296-0.25357-3.6901-0.72817-3.6901-1.0547s-0.88793-0.59362-1.9732-0.59362-2.1544-0.29316-2.3758-0.65147-1.9066-0.85099-3.7447-1.0948c-1.8382-0.24384-3.4911-0.68433-3.6731-0.97888-0.18203-0.29454-1.9868-0.74241-4.0105-0.99526s-3.6795-0.72686-3.6795-1.0533c0-0.32649-0.50181-0.59362-1.1152-0.59362-1.3117 0-8.1184-1.9071-9.7288-2.7258-0.61356-0.31192-2.6515-0.77087-4.5287-1.0199s-3.4132-0.69407-3.4132-0.98899c0-0.29491-1.6645-0.74418-3.699-0.99837-2.0344-0.25418-3.8637-0.72878-4.0651-1.0547-0.20141-0.32588-1.0854-0.59251-1.9643-0.59251-0.87896 0-1.7672-0.27363-1.9739-0.60808-0.20669-0.33443-1.8847-0.81559-3.7289-1.0692-1.8442-0.25364-3.5092-0.71367-3.6999-1.0223-0.19073-0.30861-2.0026-0.76798-4.0263-1.0208s-3.6795-0.69259-3.6795-0.97719c0-0.28462-0.83027-0.68894-1.845-0.89851-5.5156-1.1391-9.2636-2.1214-9.5607-2.5057-0.1845-0.23866-1.8139-0.65195-3.621-0.91841-1.807-0.26647-3.7695-0.73338-4.361-1.0376-1.6293-0.83795-8.1197-2.6897-9.4273-2.6897-0.63414 0-1.3751-0.22643-1.6466-0.50319s-2.0578-0.8103-3.9696-1.1856l-3.476-0.68247-0.1861-3.6786c-0.10236-2.0232-0.3891-4.1314-0.63721-4.6849-0.42183-0.94109-1.7786-16.831-2.6058-30.519-0.20045-3.3169-0.59884-6.1851-0.88529-6.3738-0.28646-0.1887-0.85749-5.6266-1.269-12.084-0.41147-6.4577-1.2015-17.025-1.7557-23.482-0.55414-6.4577-1.3022-15.385-1.6624-19.839-0.36019-4.454-0.97303-10.635-1.3619-13.736-0.38883-3.101-0.70697-7.6338-0.70697-10.073s-0.22644-4.6587-0.5032-4.9327-0.87099-5.6833-1.3205-12.021c-0.44952-6.3374-1.1184-15.749-1.4864-20.916-0.368-5.1661-0.98144-11.239-1.3632-13.496-0.38175-2.2566-0.6941-6.2067-0.6941-8.7779 0-2.5713-0.22644-4.8992-0.50319-5.1732-0.27676-0.27401-0.87327-5.6834-1.3256-12.021-0.45231-6.3374-1.2962-16.957-1.8754-23.599s-1.2136-14.791-1.4099-18.109c-0.19628-3.3176-0.60219-6.3367-0.90202-6.7092s-0.76346-5.6589-1.0303-11.748c-0.26682-6.0886-0.67751-11.372-0.91266-11.741-0.39135-0.61415-1.6166-15.321-2.5148-30.185-0.20047-3.3176-0.60981-6.3367-0.90965-6.7092-0.29984-0.37251-0.76346-5.6589-1.0303-11.748-0.26682-6.0886-0.67752-11.372-0.91266-11.741s-0.79285-5.8035-1.2393-12.077c-1.7213-24.183-2.1814-29.667-2.854-34.011-0.38238-2.4696-0.69524-6.5707-0.69524-9.1134s-0.22644-4.8478-0.50319-5.1223c-0.27676-0.27452-0.86806-5.6839-1.314-12.021s-1.2971-16.956-1.8915-23.598c-0.59439-6.6422-1.2341-14.791-1.4215-18.109-0.18742-3.3176-0.58756-6.3367-0.8892-6.7093-0.30164-0.37251-0.76808-5.7394-1.0365-11.926-0.26845-6.187-0.75315-11.413-1.0771-11.613s-0.58901-3.0635-0.58901-6.3628v-5.9987h475.02v5.9987c0 3.2993-0.26505 6.1625-0.58901 6.3628-0.32395 0.20022-0.80865 5.4261-1.0771 11.613-0.26845 6.187-0.728 11.551-1.0212 11.92-0.29322 0.36901-0.70441 3.3882-0.91374 6.7093s-0.85588 11.473-1.4368 18.115-1.421 17.261-1.867 23.598c-0.44595 6.3369-1.0372 11.746-1.314 12.021-0.27676 0.27452-0.5032 2.5799-0.5032 5.123s-0.30504 6.6442-0.67787 9.1134c-0.70054 4.6397-1.5228 14.313-2.8909 34.01-0.43572 6.2732-0.98462 11.708-1.2198 12.077s-0.64584 5.6526-0.91266 11.741c-0.26682 6.0886-0.72946 11.374-1.0281 11.745-0.29864 0.37107-0.70079 3.2393-0.89367 6.3738-1.192 19.371-1.9598 28.675-2.4638 29.852-0.31582 0.73802-0.77508 6.3235-1.0206 12.412-0.2455 6.0886-0.69071 11.374-0.98936 11.745-0.29863 0.37107-0.70078 3.2393-0.89366 6.3738-1.2367 20.097-1.9355 28.64-2.4181 29.561-0.30281 0.5777-0.77259 6.2448-1.044 12.594-0.27137 6.3488-0.75646 11.706-1.078 11.905-0.32152 0.19872-0.58459 2.5575-0.58459 5.2418s-0.30649 6.5159-0.68109 8.5147c-0.64873 3.4616-0.97467 7.3264-2.8626 33.943-0.44952 6.3374-1.0438 11.747-1.3205 12.021-0.27676 0.274-0.51099 2.4858-0.52051 4.9151-0.01 2.4293-0.33886 7.4361-0.73186 11.126-1.0428 9.791-1.8685 19.311-2.7936 32.204-0.45005 6.2732-1.0107 11.708-1.2458 12.077s-0.64584 5.6526-0.91266 11.741c-0.26682 6.0886-0.73044 11.375-1.0303 11.748-0.29983 0.37251-0.70574 3.3917-0.90202 6.7092s-0.83602 11.466-1.4216 18.109c-0.58562 6.6422-1.2257 14.23-1.4224 16.861l-0.35765 4.7844-3.363 0.44611c-1.8496 0.24536-3.865 0.71354-4.4785 1.0404-1.1309 0.60247-5.6309 1.8511-8.999 2.497-1.0148 0.19462-1.845 0.5826-1.845 0.86219s-1.5677 0.71631-3.4838 0.97048c-1.9161 0.25418-3.8031 0.66933-4.1933 0.92255-0.64174 0.41645-5.1052 1.5764-9.9347 2.5819-1.0148 0.21127-1.845 0.61698-1.845 0.9016 0 0.2846-1.6605 0.72493-3.6901 0.97851-2.0296 0.25357-3.6901 0.70645-3.6901 1.0064 0 0.29994-1.6558 0.75223-3.6795 1.0051-2.0237 0.25285-3.853 0.74052-4.0651 1.0837s-1.1048 0.62397-1.9838 0.62397c-0.87897 0-1.7601 0.26212-1.9581 0.58249-0.19799 0.32037-1.864 0.782-3.7021 1.0258s-3.4972 0.69434-3.6868 1.0011c-0.18959 0.30678-1.705 0.74422-3.3675 0.9721-1.6626 0.22787-3.5578 0.68725-4.2116 1.0208-1.2432 0.63427-6.5796 2.0645-9.7431 2.6112-1.0148 0.17539-1.845 0.55175-1.845 0.83636s-1.6558 0.72434-3.6795 0.97719-3.8356 0.71223-4.0263 1.0208-1.8557 0.76864-3.6999 1.0223c-1.8442 0.25364-3.5222 0.7348-3.7289 1.0692s-1.2637 0.60807-2.349 0.60807-1.9732 0.26713-1.9732 0.59362-1.6605 0.80109-3.6901 1.0547c-2.0296 0.25358-3.6901 0.70235-3.6901 0.99727 0 0.29491-1.4972 0.73481-3.327 0.97756-1.8299 0.24274-3.5082 0.73451-3.7297 1.0928s-1.2906 0.65147-2.3758 0.65147-1.9732 0.26713-1.9732 0.59363c0 0.32648-1.6558 0.80049-3.6795 1.0533s-3.8315 0.70567-4.0173 1.0063c-0.18579 0.3006-1.7756 0.7606-3.5329 1.0222-1.7573 0.26161-3.4971 0.71139-3.8661 0.99951-0.369 0.28811-1.5767 0.6927-2.6837 0.89909-3.8918 0.72553-8.7256 2.0745-9.0575 2.5276-0.1845 0.2519-1.9205 0.67382-3.8578 0.93762-1.9373 0.26379-3.5224 0.7532-3.5224 1.0876 0 0.33438-0.72012 0.60796-1.6003 0.60796-1.6369 0-7.975 1.7166-9.8313 2.6627-0.5677 0.28933-2.3792 0.74849-4.0256 1.0203-1.6463 0.27184-3.2953 0.72397-3.6643 1.0047-0.36901 0.28075-2.098 0.71693-3.8422 0.9693s-3.3471 0.74333-3.562 1.091c-0.21489 0.34769-1.2535 0.63216-2.308 0.63216s-2.0259 0.32584-2.1586 0.72409c-0.25732 0.77194-9.6507 1.3966-12.786 0.85018zm6.877-101.49c0-0.34246 1.6605-0.83012 3.6901-1.0837 2.0296-0.25357 3.6901-0.68927 3.6901-0.96822s1.5359-0.71094 3.4132-0.95996c1.8772-0.24902 3.9152-0.70798 4.5287-1.0199 1.7984-0.91427 8.487-2.7258 10.064-2.7258 0.79784 0 1.4506-0.28019 1.4506-0.62265s1.6605-0.83012 3.6901-1.0837c2.0296-0.25357 3.6901-0.68927 3.6901-0.96822s1.4972-0.7058 3.327-0.94854c1.8299-0.24274 3.5082-0.73451 3.7297-1.0928 0.22144-0.35832 1.2727-0.65148 2.3362-0.65148s2.1027-0.27363 2.3094-0.60807c0.20669-0.33444 1.8847-0.8156 3.7289-1.0692s3.5048-0.70652 3.6901-1.0064 1.8459-0.75274 3.6901-1.0064c1.8442-0.25364 3.5222-0.7348 3.7289-1.0692s1.095-0.60807 1.9739-0.60807 1.7717-0.28079 1.9838-0.62397c0.21209-0.34318 2.0414-0.83084 4.0651-1.0837 2.0237-0.25284 3.6795-0.70512 3.6795-1.0051s1.6605-0.75281 3.6901-1.0064 3.6901-0.72818 3.6901-1.0547c0-0.32649 0.88793-0.59362 1.9732-0.59362 1.0852 0 2.1423-0.27363 2.349-0.60808 0.20669-0.33443 1.8847-0.81559 3.7289-1.0692 1.8442-0.25364 3.5007-0.69997 3.6811-0.99183 0.18037-0.29185 1.7347-0.7416 3.454-0.99943 1.7193-0.25782 3.61-0.72494 4.2015-1.038 1.2728-0.67371 6.2182-1.9914 9.2944-2.4765 1.1993-0.18912 2.1805-0.59102 2.1805-0.8931 0-0.30209 1.6645-0.75722 3.699-1.0114 2.0344-0.25419 3.8637-0.72879 4.0651-1.0547 0.20141-0.32588 0.94158-0.59251 1.6448-0.59251 1.965 0 2.6677-2.0987 2.6677-7.9674 0-2.9546 0.26936-5.5384 0.59859-5.7419s0.81901-5.6608 1.0884-12.127 0.75483-11.921 1.0787-12.121c0.3239-0.20018 0.5889-2.688 0.5889-5.5285s0.27923-6.1381 0.62051-7.3281 0.83244-6.7734 1.0915-12.408c0.25904-5.6343 0.7013-10.546 0.9828-10.915 0.28151-0.36901 0.73339-5.6409 1.0042-11.715s0.73502-11.509 1.0316-12.077c0.29659-0.56777 0.87442-6.1649 1.284-12.438 0.40964-6.2732 1.0302-14.123 1.3791-17.444 0.34886-3.3211 1.0169-11.322 1.4845-17.78 0.46763-6.4577 1.0454-12.043 1.2839-12.412s0.65477-5.8852 0.92499-12.258c0.27022-6.373 0.75438-11.75 1.0759-11.949 1.0426-0.64434 0.66429-4.8044-0.47667-5.2423-0.58369-0.22398-49.733-0.40724-109.22-0.40724h-108.16l-0.9077-10.567c-0.49925-5.8119-1.0399-13.132-1.2015-16.266-0.16158-3.1345-0.53813-6.0027-0.83677-6.3738-0.29865-0.37106-0.76198-5.8864-1.0296-12.256-0.26765-6.3699-0.75382-11.747-1.0804-11.949-0.32656-0.20183-0.59374-0.80201-0.59374-1.3337 0-0.838 15.275-0.96679 114.67-0.96679h114.67l0.39552-3.8578c0.21755-2.1218 0.7203-8.8394 1.1173-14.928 0.39694-6.0886 0.96947-11.543 1.2723-12.121 0.30281-0.5777 0.77232-6.2386 1.0434-12.58 0.27104-6.3412 0.75613-11.529 1.078-11.529 0.32186 0 0.58519-1.5096 0.58519-3.3546v-3.3546h-301.92v3.315c0 1.8233 0.26505 3.4788 0.58901 3.6791 0.32395 0.20021 0.81161 5.4104 1.0837 11.578 0.27206 6.1678 0.73985 11.683 1.0395 12.255 0.47762 0.91275 1.1782 9.4948 2.4124 29.552 0.19288 3.1345 0.59368 6.0027 0.89067 6.3738 0.297 0.37107 0.75828 5.8072 1.0251 12.08 0.26679 6.2732 0.67884 11.708 0.91565 12.077 0.38112 0.59386 1.4273 12.997 2.5179 29.852 0.20283 3.1345 0.61177 6.0027 0.90876 6.3738s0.75827 5.8072 1.0251 12.08c0.2668 6.2732 0.67884 11.708 0.91566 12.077 0.23681 0.36901 0.80158 5.8035 1.255 12.077 0.45346 6.2732 1.0573 13.519 1.3418 16.102l0.51737 4.6965 103.53 0.16986c98.17 0.16105 103.52 0.23057 103.19 1.3418-0.18795 0.64459-0.54707 6.0026-0.79806 11.907-0.25099 5.9041-0.68779 11.037-0.97067 11.406s-0.73189 5.6525-0.9978 11.741-0.7278 11.374-1.0264 11.745c-0.29863 0.37107-0.68925 3.2393-0.86804 6.3738-0.67993 11.921-1.7626 20.858-2.6321 21.727-0.48636 0.48636-2.3841 1.1076-4.2172 1.3806-1.8331 0.27298-3.6348 0.71142-4.0038 0.97431s-3.0863 1.0419-6.0383 1.7311c-2.9521 0.68923-5.6769 1.4832-6.0551 1.7643-0.37824 0.28115-2.2652 0.72044-4.1933 0.97621s-3.5056 0.72806-3.5056 1.0495c0 0.32147-0.72012 0.58449-1.6003 0.58449-1.6375 0-7.9756 1.7168-9.8322 2.6633-0.56824 0.28967-2.6058 0.74297-4.528 1.0073-1.9222 0.26437-3.6465 0.72601-3.8318 1.0259s-1.8459 0.75275-3.6901 1.0064-3.5222 0.7348-3.7289 1.0692-1.2386 0.60807-2.2931 0.60807-2.0322 0.34488-2.1727 0.7664c-0.35477 1.0643-9.6614 1.1027-10.72 0.0442-0.44583-0.44583-1.4872-0.8106-2.3141-0.8106s-1.6771-0.28079-1.8892-0.62397c-0.21209-0.34318-2.0414-0.83085-4.0651-1.0837-2.0237-0.25286-3.6795-0.69208-3.6795-0.97605s-1.6558-0.72319-3.6795-0.97603c-2.0237-0.25285-3.853-0.74052-4.0651-1.0837s-1.2558-0.62397-2.3192-0.62397-2.1094-0.28447-2.3243-0.63216c-0.21489-0.34769-1.8178-0.83865-3.562-1.091s-3.4732-0.68855-3.8422-0.9693c-0.36901-0.28073-2.0296-0.72966-3.6901-0.99761s-3.3211-0.71702-3.6901-0.99795-1.5767-0.67367-2.6837-0.87276c-3.2519-0.58483-7.9662-1.8659-9.1266-2.4802-0.59153-0.3131-2.5442-0.78951-4.3393-1.0587s-3.6617-0.88736-4.1481-1.3737c-0.8695-0.8695-1.9522-9.8066-2.6321-21.727-0.17879-3.1345-0.56442-6.0027-0.85695-6.3738-0.29254-0.37107-0.74707-5.3526-1.0101-11.07-0.30781-6.6918-0.75643-10.572-1.2592-10.892-0.42957-0.2733-14.335-0.50153-30.901-0.50718l-30.12-0.0103 0.46875 11.909c0.25781 6.5499 0.73565 12.815 1.0619 13.922 0.57279 1.9438 1.8773 17.445 2.4562 29.185 0.15465 3.1366 0.48316 6.1557 0.73003 6.7093 0.24687 0.55351 0.84763 6.2899 1.335 12.748 1.7591 23.307 1.8001 23.653 2.8618 24.147 0.55351 0.25764 1.6223 0.78023 2.375 1.1613s2.9416 0.90921 4.8642 1.1736c1.9226 0.26443 3.4956 0.72133 3.4956 1.0153s0.98123 0.69347 2.1805 0.8877c2.8848 0.4672 7.9482 1.8293 9.2944 2.5004 0.59153 0.29487 2.4822 0.74707 4.2015 1.0049s3.2736 0.70758 3.454 0.99943c0.18037 0.29186 1.8369 0.73819 3.6811 0.99183 1.8442 0.25365 3.5222 0.73481 3.7289 1.0692 0.2067 0.33445 1.095 0.60808 1.9739 0.60808 0.87897 0 1.7717 0.28079 1.9838 0.62396 0.2121 0.34319 2.0414 0.83085 4.0652 1.0837 2.0237 0.25285 3.6795 0.69207 3.6795 0.97604s1.6605 0.72378 3.6901 0.97736c2.0296 0.25357 3.6901 0.74123 3.6901 1.0837s0.88793 0.62265 1.9732 0.62265 2.1423 0.27363 2.349 0.60807 1.8847 0.8156 3.7289 1.0692c1.8442 0.25365 3.5048 0.70652 3.6901 1.0064s1.8459 0.75275 3.6901 1.0064 3.5222 0.7348 3.7289 1.0692c0.2067 0.33444 1.2459 0.60807 2.3094 0.60807s2.1148 0.29316 2.3362 0.65148c0.22145 0.35831 1.8998 0.85008 3.7297 1.0928s3.327 0.68265 3.327 0.97756c0 0.29492 1.6605 0.74369 3.6901 0.99726 2.0296 0.25358 3.6901 0.72818 3.6901 1.0547s0.76449 0.59362 1.6989 0.59362c0.93437 0 2.7827 0.45287 4.1075 1.0064 1.3248 0.55351 3.1087 1.0064 3.9644 1.0064s1.7293 0.28079 1.9414 0.62397c0.21209 0.34319 2.0414 0.83085 4.0651 1.0837 2.0237 0.25284 3.6795 0.70513 3.6795 1.0051 0 0.29993 1.6605 0.75281 3.6901 1.0064 2.0296 0.25358 3.6901 0.72818 3.6901 1.0547s0.60383 0.59362 1.3418 0.59362 1.3418-0.28019 1.3418-0.62265z" fill="#f60" fill-opacity=".64015" filter="url(#filter1615)" stroke-width=".67092"/>
</svg>
