<svg width="480" height="480" version="1.1" viewBox="0 0 480 480" xmlns="http://www.w3.org/2000/svg">
 <defs>
  <filter id="filter45350" x="-.49138" y="-.12718" width="1.9828" height="1.2544" color-interpolation-filters="sRGB">
   <feGaussianBlur in="SourceGraphic" result="result0" stdDeviation="6"/>
   <feDiffuseLighting lighting-color="rgb(255,255,255)" result="result5" surfaceScale="4">
    <feDistantLight azimuth="235" elevation="45"/>
   </feDiffuseLighting>
   <feComposite in="result5" in2="SourceGraphic" k1="1.4" operator="arithmetic" result="fbSourceGraphic"/>
   <feGaussianBlur in="fbSourceGraphic" result="result0" stdDeviation="6"/>
   <feSpecularLighting lighting-color="rgb(255,255,255)" in="result0" result="result1" specularExponent="25" surfaceScale="4">
    <feDistantLight azimuth="235" elevation="45"/>
   </feSpecularLighting>
   <feComposite in="fbSourceGraphic" in2="result1" k2="1" k3="1" operator="arithmetic" result="result4"/>
   <feComposite in="result4" in2="SourceGraphic" operator="in" result="result2"/>
  </filter>
  <filter id="filter45370" x="-.49153" y="-.12699" width="1.9831" height="1.254" color-interpolation-filters="sRGB">
   <feGaussianBlur in="SourceGraphic" result="result0" stdDeviation="6"/>
   <feDiffuseLighting lighting-color="rgb(255,255,255)" result="result5" surfaceScale="4">
    <feDistantLight azimuth="235" elevation="45"/>
   </feDiffuseLighting>
   <feComposite in="result5" in2="SourceGraphic" k1="1.4" operator="arithmetic" result="fbSourceGraphic"/>
   <feGaussianBlur in="fbSourceGraphic" result="result0" stdDeviation="6"/>
   <feSpecularLighting lighting-color="rgb(255,255,255)" in="result0" result="result1" specularExponent="25" surfaceScale="4">
    <feDistantLight azimuth="235" elevation="45"/>
   </feSpecularLighting>
   <feComposite in="fbSourceGraphic" in2="result1" k2="1" k3="1" operator="arithmetic" result="result4"/>
   <feComposite in="result4" in2="SourceGraphic" operator="in" result="result2"/>
  </filter>
  <filter id="filter45390" x="-1.5188" y="-.52081" width="4.0376" height="2.0416" color-interpolation-filters="sRGB">
   <feGaussianBlur in="SourceGraphic" result="result0" stdDeviation="6"/>
   <feDiffuseLighting lighting-color="rgb(255,255,255)" result="result5" surfaceScale="4">
    <feDistantLight azimuth="235" elevation="45"/>
   </feDiffuseLighting>
   <feComposite in="result5" in2="SourceGraphic" k1="1.4" operator="arithmetic" result="fbSourceGraphic"/>
   <feGaussianBlur in="fbSourceGraphic" result="result0" stdDeviation="6"/>
   <feSpecularLighting lighting-color="rgb(255,255,255)" in="result0" result="result1" specularExponent="25" surfaceScale="4">
    <feDistantLight azimuth="235" elevation="45"/>
   </feSpecularLighting>
   <feComposite in="fbSourceGraphic" in2="result1" k2="1" k3="1" operator="arithmetic" result="result4"/>
   <feComposite in="result4" in2="SourceGraphic" operator="in" result="result2"/>
  </filter>
  <filter id="filter45410" x="-1.5186" y="-.53403" width="4.0372" height="2.0681" color-interpolation-filters="sRGB">
   <feGaussianBlur in="SourceGraphic" result="result0" stdDeviation="6"/>
   <feDiffuseLighting lighting-color="rgb(255,255,255)" result="result5" surfaceScale="4">
    <feDistantLight azimuth="235" elevation="45"/>
   </feDiffuseLighting>
   <feComposite in="result5" in2="SourceGraphic" k1="1.4" operator="arithmetic" result="fbSourceGraphic"/>
   <feGaussianBlur in="fbSourceGraphic" result="result0" stdDeviation="6"/>
   <feSpecularLighting lighting-color="rgb(255,255,255)" in="result0" result="result1" specularExponent="25" surfaceScale="4">
    <feDistantLight azimuth="235" elevation="45"/>
   </feSpecularLighting>
   <feComposite in="fbSourceGraphic" in2="result1" k2="1" k3="1" operator="arithmetic" result="result4"/>
   <feComposite in="result4" in2="SourceGraphic" operator="in" result="result2"/>
  </filter>
  <filter id="filter45430" x="-1.5127" y="-.53333" width="4.0254" height="2.0667" color-interpolation-filters="sRGB">
   <feGaussianBlur in="SourceGraphic" result="result0" stdDeviation="6"/>
   <feDiffuseLighting lighting-color="rgb(255,255,255)" result="result5" surfaceScale="4">
    <feDistantLight azimuth="235" elevation="45"/>
   </feDiffuseLighting>
   <feComposite in="result5" in2="SourceGraphic" k1="1.4" operator="arithmetic" result="fbSourceGraphic"/>
   <feGaussianBlur in="fbSourceGraphic" result="result0" stdDeviation="6"/>
   <feSpecularLighting lighting-color="rgb(255,255,255)" in="result0" result="result1" specularExponent="25" surfaceScale="4">
    <feDistantLight azimuth="235" elevation="45"/>
   </feSpecularLighting>
   <feComposite in="fbSourceGraphic" in2="result1" k2="1" k3="1" operator="arithmetic" result="result4"/>
   <feComposite in="result4" in2="SourceGraphic" operator="in" result="result2"/>
  </filter>
  <filter id="filter45450" x="-.080301" y="-.072383" width="1.1606" height="1.1448" color-interpolation-filters="sRGB">
   <feGaussianBlur in="SourceGraphic" result="result0" stdDeviation="6"/>
   <feDiffuseLighting lighting-color="rgb(255,255,255)" result="result5" surfaceScale="4">
    <feDistantLight azimuth="235" elevation="45"/>
   </feDiffuseLighting>
   <feComposite in="result5" in2="SourceGraphic" k1="1.4" operator="arithmetic" result="fbSourceGraphic"/>
   <feGaussianBlur in="fbSourceGraphic" result="result0" stdDeviation="6"/>
   <feSpecularLighting lighting-color="rgb(255,255,255)" in="result0" result="result1" specularExponent="25" surfaceScale="4">
    <feDistantLight azimuth="235" elevation="45"/>
   </feSpecularLighting>
   <feComposite in="fbSourceGraphic" in2="result1" k2="1" k3="1" operator="arithmetic" result="result4"/>
   <feComposite in="result4" in2="SourceGraphic" operator="in" result="result2"/>
  </filter>
  <filter id="filter45470" x="-.096682" y="-.085962" width="1.1934" height="1.1719" color-interpolation-filters="sRGB">
   <feGaussianBlur in="SourceGraphic" result="result0" stdDeviation="6"/>
   <feDiffuseLighting lighting-color="rgb(255,255,255)" result="result5" surfaceScale="4">
    <feDistantLight azimuth="235" elevation="45"/>
   </feDiffuseLighting>
   <feComposite in="result5" in2="SourceGraphic" k1="1.4" operator="arithmetic" result="fbSourceGraphic"/>
   <feGaussianBlur in="fbSourceGraphic" result="result0" stdDeviation="6"/>
   <feSpecularLighting lighting-color="rgb(255,255,255)" in="result0" result="result1" specularExponent="25" surfaceScale="4">
    <feDistantLight azimuth="235" elevation="45"/>
   </feSpecularLighting>
   <feComposite in="fbSourceGraphic" in2="result1" k2="1" k3="1" operator="arithmetic" result="result4"/>
   <feComposite in="result4" in2="SourceGraphic" operator="in" result="result2"/>
  </filter>
 </defs>
 <g stroke-width="1.4337">
  <g fill="#f60" fill-opacity=".64">
   <path d="m250.15 327.05c-0.3785-0.37849-0.68817-1.2817-0.68817-2.0072 0-0.72544-0.25807-1.319-0.57348-1.319s-0.5722-0.45161-0.57064-1.0036c3e-3 -1.0722-1.5297-6.0826-2.366-7.7342-0.27733-0.54769-0.50423-1.5154-0.50423-2.1505s-0.25807-1.1547-0.57348-1.1547-0.5722-0.45162-0.57064-1.0036c3e-3 -1.0722-1.5297-6.0826-2.366-7.7342-0.27733-0.54769-0.50423-1.5154-0.50423-2.1505s-0.25806-1.1547-0.57347-1.1547c-0.38011 0-0.57348-33.442-0.57348-99.179v-99.179l5.7856 5.8461c3.1821 3.2153 6.6014 6.8457 7.5986 8.0675s2.6205 3.0958 3.6074 4.1644 2.4063 2.8414 3.1541 3.9395c0.74781 1.0981 1.5532 1.9983 1.7898 2.0004 0.23656 2e-3 0.43011 0.28042 0.43011 0.61836s0.32258 0.97415 0.71685 1.4138c1.6816 1.8752 2.1505 2.5426 2.1505 3.0611 0 0.30244 0.21377 0.63591 0.47505 0.74105 0.26128 0.10513 1.8677 2.3847 3.5698 5.0657s3.2948 4.9606 3.5393 5.0657 0.4445 0.55675 0.4445 1.0036c0 0.44684 0.19355 0.81539 0.4301 0.81901 0.23656 4e-3 0.94233 1.1004 1.5684 2.4373 0.62604 1.3369 1.2712 2.5597 1.4337 2.7174 0.28834 0.27986 1.4711 2.5041 4.4219 8.3154 0.80077 1.5771 1.8128 3.5524 2.249 4.3896 0.43617 0.83719 0.79303 1.934 0.79303 2.4373 0 0.50331 0.25807 0.91511 0.57348 0.91511s0.57348 0.3906 0.57348 0.86799c0 0.4774 0.23157 1.3161 0.5146 1.8638 0.28304 0.54769 0.95909 2.1571 1.5024 3.5764 0.54326 1.4194 1.2494 3.2258 1.5693 4.0143 0.97672 2.4079 1.3745 3.59 2.4121 7.1684 0.54873 1.8925 1.23 3.889 1.514 4.4367 0.28398 0.54769 0.51632 1.5189 0.51632 2.1583 0 0.63938 0.25139 1.6106 0.55864 2.1583 0.55787 0.99443 1.5488 6.1543 2.1185 11.032 0.1658 1.4194 0.5345 2.8258 0.81933 3.1254s0.51788 1.99 0.51788 3.7563 0.27422 3.4857 0.60938 3.8208c0.81137 0.81137 0.89598 32.877 0.0881 33.383-0.31454 0.19713-0.70864 1.6487-0.87578 3.2258-0.16713 1.5771-0.56553 4.0287-0.88531 5.448-0.31979 1.4194-0.86689 3.871-1.2158 5.448-0.34888 1.5771-0.88197 3.3155-1.1846 3.8632-0.30266 0.5477-0.5503 1.5002-0.5503 2.1167s-0.19639 1.2423-0.43643 1.3906c-0.24004 0.14834-0.94971 1.97-1.5771 4.0481-0.62735 2.0781-1.3342 3.7784-1.5707 3.7784-0.23656 3e-5 -0.43011 0.33887-0.43011 0.75296 0 0.41408-0.64516 2.0902-1.4337 3.7248-0.78853 1.6346-1.4337 3.2312-1.4337 3.5482s-0.25806 0.57629-0.57348 0.57629c-0.31541 0-0.57347 0.51613-0.57347 1.147 0 0.63083-0.20149 1.147-0.44775 1.147s-0.74431 0.70967-1.1068 1.5771c-0.60729 1.4533-2.1358 4.1283-3.1809 5.567-0.23887 0.32882-2.3955 3.4366-4.7926 6.9061s-4.5257 6.4373-4.7302 6.595c-0.20457 0.1577-1.1379 1.319-2.0742 2.5806-1.7242 2.3236-17.593 18.638-18.129 18.638-0.16005 0-0.60068-0.30968-0.97917-0.68818z" filter="url(#filter45350)" style="paint-order:markers stroke fill"/>
   <path d="m221.64 320.64c-4.4215-4.4509-8.8086-9.119-9.7491-10.374-0.94046-1.2547-2.4196-3.0349-3.287-3.956-0.86738-0.92116-1.5771-1.8551-1.5771-2.0755 0-0.22038-0.5139-0.99322-1.142-1.7174s-2.37-3.1508-3.871-5.3924c-1.5009-2.2416-2.9225-4.1617-3.1591-4.2668-0.23656-0.10514-0.43011-0.68579-0.43011-1.2903 0-0.60455-0.19687-1.0992-0.43749-1.0992-0.46522 0-0.8938-0.71253-2.7086-4.503-0.62637-1.3083-1.336-2.3788-1.5771-2.3788-0.241 0-0.43819-0.29686-0.43819-0.65969s-0.61434-1.9757-1.3652-3.5842c-2.5958-5.5608-3.2226-7.1158-3.2226-7.9953 0-0.48569-0.25807-1.0426-0.57348-1.2375-0.31541-0.19494-0.57348-0.98436-0.57348-1.7543s-0.25806-1.3998-0.57347-1.3998c-0.31542 0-0.57348-0.62993-0.57348-1.3998s-0.24001-1.5482-0.53334-1.7295c-0.29334-0.18129-0.7106-1.7483-0.92724-3.4823-0.21665-1.734-0.6218-3.2935-0.90035-3.4657s-0.50646-1.3148-0.50646-2.5392-0.25806-2.3857-0.57347-2.5806c-0.31541-0.19493-0.57348-1.608-0.57348-3.1402 0-1.5423-0.28599-2.8811-0.64072-2.9993-0.87279-0.29093-0.84258-32.463 0.0313-33.337 0.33517-0.33518 0.60941-2.091 0.60941-3.9017 0-1.8108 0.25807-3.4518 0.57348-3.6468 0.31541-0.19493 0.57347-1.4853 0.57347-2.8674s0.23178-2.6562 0.51505-2.8313c0.28328-0.17507 0.69667-2.1268 0.91865-4.3372s0.63537-4.1621 0.91864-4.3372c0.28328-0.17507 0.51505-0.93301 0.51505-1.6843 0-0.75131 0.25806-1.5255 0.57348-1.7204 0.31541-0.19494 0.57347-1.0982 0.57347-2.0072 0-0.90901 0.23561-1.7984 0.52358-1.9763s0.70697-1.4091 0.93112-2.7358 0.60359-2.8092 0.8432-3.2945c0.23962-0.48525 0.69753-1.5274 1.0176-2.316s0.99532-2.3759 1.5006-3.5275 0.91869-2.4912 0.91869-2.9769 0.25806-1.0426 0.57348-1.2375c0.31541-0.19494 0.57347-0.85533 0.57347-1.4675s0.25807-1.1131 0.57348-1.1131 0.57348-0.27996 0.57348-0.62214c0-0.90347 7.002-15.113 7.5589-15.34 0.25839-0.10514 0.4698-0.44025 0.4698-0.74469 0-0.68938 8.3982-14.117 9.8395-15.732 0.58109-0.65115 1.0565-1.3721 1.0565-1.6021s0.64516-1.114 1.4337-1.9644c0.78853-0.85039 1.4337-1.7766 1.4337-2.0582s0.47226-0.92944 1.0495-1.4396c0.57721-0.51012 1.2869-1.3487 1.5771-1.8636s1.6889-2.22 3.1082-3.7893c1.4194-1.5692 3.1669-3.5996 3.8834-4.5119 0.71654-0.91232 3.8133-4.1926 6.8817-7.2895l5.5789-5.6307 0.14501 98.76c0.10647 72.518-0.0265 98.967-0.50033 99.538-0.48972 0.59008-0.45555 0.77969 0.14174 0.78635 0.59498 7e-3 0.61565 0.11768 0.0847 0.455-0.3863 0.24543-0.78086 0.95115-0.8768 1.5683-0.0959 0.61713-0.37515 1.4437-0.62047 1.8368-0.43858 0.70275-0.926 2.4669-1.1494 4.1599-0.0624 0.47312-0.44314 1.4462-0.84604 2.1624-0.40289 0.71619-0.58996 1.5329-0.4157 1.8148s0.0646 0.5992-0.24363 0.705c-0.30826 0.10579-0.63991 0.70848-0.73701 1.3393s-0.39466 1.4967-0.66124 1.9242c-0.26658 0.42748-0.60973 1.7052-0.76257 2.8393s-0.65919 2.644-1.1252 3.3552c-0.46603 0.71125-0.69444 1.5406-0.50758 1.8429s0.0875 0.63627-0.22072 0.74207c-0.30826 0.10579-0.6473 0.76634-0.75343 1.4679s-0.30714 1.3754-0.44669 1.4975c-0.13955 0.12209-3.8714-3.4196-8.2929-7.8705z" filter="url(#filter45370)" style="paint-order:markers stroke fill"/>
   <path d="m230.54 344.98c0-7.9311 0.23155-14.446 0.51976-14.624 0.28586-0.17667 0.69717-1.6112 0.91402-3.188 0.21686-1.5767 0.62813-2.8667 0.91395-2.8667 0.28581 0 0.51966-0.64517 0.51966-1.4337s0.25806-1.4337 0.57347-1.4337c0.31542 0 0.57348-0.62993 0.57348-1.3998 0-0.76991 0.23389-1.5444 0.51975-1.7211 0.28587-0.17667 0.69718-1.6112 0.91403-3.188s0.62813-2.8668 0.91394-2.8668c0.28582 0 0.51966-0.64516 0.51966-1.4337s0.25807-1.4337 0.57348-1.4337 0.57348-0.62993 0.57348-1.3998c0-0.76991 0.25806-1.5593 0.57347-1.7543 0.31542-0.19494 0.58358-0.91984 0.59593-1.6109 0.0179-1.0032 0.19132-0.8675 0.86021 0.67317 0.46078 1.0613 0.83777 2.4161 0.83777 3.0108s0.25807 1.0811 0.57348 1.0811 0.57348 0.64516 0.57348 1.4337 0.25806 1.4337 0.57347 1.4337 0.57348 0.50712 0.57348 1.1269c0 1.2689 1.4654 6.093 2.312 7.6108 0.30547 0.54769 0.5554 1.5154 0.5554 2.1505s0.2071 1.1547 0.46023 1.1547c1.2994 0 2.028 6.6937 2.2315 20.502l0.21342 14.48h-18.962z" filter="url(#filter45390)" style="paint-order:markers stroke fill"/>
   <path d="m230.79 345.38c0.44518-14.8 0.85261-17.451 3.821-24.865 0.91255-2.279 1.6692-4.6168 1.6813-5.1951 0.0122-0.57828 0.87824-3.2427 1.9246-5.921 1.6499-4.223 1.9571-4.6799 2.3136-3.4409 0.22611 0.78578 1.0028 2.9771 1.726 4.8696 0.72317 1.8925 1.9845 5.5054 2.803 8.0287 0.81851 2.5233 1.9105 5.7491 2.4266 7.1685 0.6773 1.8626 1.0047 5.2135 1.1768 12.043 0.13113 5.2043 0.33636 12.108 0.45605 15.34l0.21763 5.8781h-18.965z" filter="url(#filter45410)" style="paint-order:markers stroke fill"/>
  </g>
  <path d="m230.78 345.38c0.42057-14.228 1.0041-18.238 3.526-24.229 0.53106-1.2616 1.4364-3.9713 2.0118-6.0215s1.6726-5.2563 2.4382-7.1248c1.2416-3.0301 1.4351-3.247 1.7908-2.0072 0.21936 0.76449 0.98928 2.9384 1.7109 4.8308 0.72165 1.8925 1.9171 5.3764 2.6566 7.7419 0.73948 2.3656 1.8205 5.3997 2.4023 6.7424 0.82928 1.9139 1.1151 4.3918 1.323 11.47 0.14586 4.9655 0.37831 12.06 0.51655 15.767l0.25135 6.7384h-19.039z" fill="#ffe4d3" fill-opacity=".56818" filter="url(#filter45430)" style="paint-order:markers stroke fill"/>
  <path d="m239.14 438.01c-1.1817-0.32611-4.9781-1.8123-7.7419-3.0308-3.7144-1.6375-22.913-11.098-23.226-11.445-0.1577-0.17495-1.319-0.83176-2.5806-1.4596-1.2616-0.62781-2.3799-1.335-2.4851-1.5716s-0.55675-0.43011-1.0036-0.43011c-0.44684 0-0.81243-0.25806-0.81243-0.57348 0-0.31541-0.271-0.57347-0.60222-0.57347-0.7322 0-16.237-9.8124-16.506-10.446-0.10514-0.24734-0.55675-0.4497-1.0036-0.4497-0.44684 0-0.81243-0.20243-0.81243-0.44983 0-0.24741-0.83871-0.93765-1.8638-1.5339s-1.9928-1.241-2.1505-1.4329c-0.1577-0.19187-1.7061-1.3673-3.4409-2.6121s-3.4677-2.5266-3.8511-2.8485-1.0821-0.90782-1.5529-1.3021c-0.47075-0.39427-0.99524-0.71685-1.1655-0.71685-0.17029 0-1.2672-0.90322-2.4376-2.0072-1.1704-1.1039-2.341-2.0072-2.6013-2.0072s-1.1827-0.70968-2.0498-1.5771c-0.86706-0.86739-2.6003-2.4301-3.8516-3.4726-9.0473-7.5378-22.269-20.691-30.089-29.932-1.7348-2.0502-3.2968-3.8566-3.4712-4.0143s-1.0776-1.3188-2.0072-2.5802c-0.92957-1.2614-2.1587-2.8098-2.7315-3.4409-1.8591-2.0484-7.546-9.6785-9.296-12.473-0.93808-1.4976-1.8991-2.7234-2.1357-2.724-0.23656-5.7e-4 -0.43011-0.27631-0.43011-0.61277 0-0.51408-2.47-4.1858-3.4463-5.123-0.16428-0.15771-0.81091-1.3806-1.437-2.7174-0.62604-1.3369-1.3318-2.4337-1.5684-2.4373-0.23656-4e-3 -0.43011-0.39367-0.43011-0.86679s-0.23282-0.86021-0.51738-0.86021c-0.28455 0-0.78827-0.70968-1.1194-1.5771-0.58705-1.5379-2.3686-4.7309-2.9598-5.3047-0.16249-0.1577-0.80765-1.3806-1.4337-2.7174-0.62605-1.3369-1.3318-2.4337-1.5684-2.4373-0.23656-4e-3 -0.4301-0.5227-0.4301-1.1535 0-0.63082-0.25807-1.147-0.57348-1.147s-0.57348-0.25629-0.57348-0.56955c0-0.97929-1.9686-5.1652-2.4292-5.1652-0.241 0-0.43819-0.31888-0.43819-0.70862 0-0.38973-0.62008-2.0026-1.378-3.5842-1.8835-3.9305-3.6304-7.902-4.7442-10.785-0.51263-1.3271-1.1513-2.658-1.4193-2.9577s-0.48882-0.9448-0.49077-1.4337c-2e-3 -0.48889-0.38904-1.6281-0.86021-2.5315-0.47118-0.90344-0.85669-2.1292-0.85669-2.724s-0.25806-1.0814-0.57347-1.0814-0.57348-0.51963-0.57348-1.1547c0-0.6351-0.24294-1.6028-0.53986-2.1505s-0.98255-2.5442-1.5236-4.4367c-0.54107-1.8925-1.2014-3.686-1.4673-3.9857-0.26594-0.29964-0.48354-1.0953-0.48354-1.7682s-0.18952-1.4129-0.42116-1.6446c-0.41461-0.41461-1.6254-5.149-2.2526-8.8076-0.17621-1.028-0.54993-2.011-0.8305-2.1844-0.28056-0.1734-0.51011-1.2033-0.51011-2.2886s-0.20694-1.9733-0.45987-1.9733-0.75291-1.871-1.1111-4.1577-0.93852-5.5771-1.2897-7.3118c-0.35119-1.7348-0.76909-4.1864-0.92866-5.448-0.15958-1.2616-0.5168-2.81-0.79382-3.4409-0.45866-1.0444-0.78373-3.6575-2.3186-18.638-0.27469-2.681-0.63389-5.9068-0.79821-7.1685-0.32106-2.4651-1.0152-20.144-1.0133-25.806 2e-3 -6.4528 0.71331-26.948 1.0049-28.961 0.27982-1.9318 0.55489-5.1478 2.1176-24.758 0.39393-4.9434 0.90977-9.1799 1.1463-9.4146 0.23656-0.23467 0.43011-1.6588 0.43011-3.1646 0-1.5059 0.22955-2.8798 0.51011-3.0532 0.28057-0.1734 0.64775-1.1564 0.81598-2.1844 0.56705-3.4653 1.7312-7.3171 2.2114-7.3171 0.26227 0 0.47686-0.51613 0.47686-1.147 0-0.63082 0.25806-1.147 0.57347-1.147 0.31542 0 0.57348-0.42708 0.57348-0.94906 0-1.546 7.0803-11.668 10.869-15.538 1.9298-1.9713 3.6469-3.5842 3.8158-3.5842 0.16895 0 0.64726-0.32258 1.0629-0.71684 0.41564-0.39427 1.4721-1.233 2.3476-1.8638s1.918-1.4695 2.3165-1.8638c0.39852-0.39426 1.0985-0.71685 1.5555-0.71685 0.45703 0 1.1522-0.38709 1.5449-0.86021 0.39265-0.47312 1.0694-0.86022 1.5039-0.86022 0.43449 0 0.78999-0.25806 0.78999-0.57347s0.51613-0.57348 1.147-0.57348c0.63082 0 1.147-0.25806 1.147-0.57348 0-0.31541 0.58064-0.57506 1.2903-0.57701 0.70968-2e-3 2.0295-0.38904 2.9329-0.86021 0.90344-0.47118 2.114-0.85668 2.6902-0.85668s1.207-0.25807 1.402-0.57348c0.19493-0.31541 1.0982-0.57348 2.0072-0.57348 0.90901 0 1.7936-0.2279 1.9658-0.50645s1.7317-0.6837 3.4657-0.90035c1.734-0.21664 3.301-0.6339 3.4823-0.92724s1.2176-0.53334 2.303-0.53334c1.0853 0 1.9733-0.2245 1.9733-0.49889 0-0.2744 1.0968-0.6417 2.4373-0.81624s4.2437-0.75219 6.4516-1.2837c2.2079-0.53149 4.9837-1.0947 6.1685-1.2515 1.1848-0.15685 2.2968-0.51599 2.4711-0.79808 0.17435-0.2821 1.1422-0.5129 2.1507-0.5129 1.0086 0 2.7353-0.26747 3.8371-0.59437 1.9127-0.56746 6.821-1.4226 11.752-2.0474 1.2616-0.15987 2.81-0.50408 3.4409-0.76492 1.4724-0.60882 16.619-2.7411 23.226-3.2696 2.0502-0.16401 3.9728-0.53538 4.2724-0.82528 0.29964-0.28989 1.9932-0.52707 3.7635-0.52707s7.3316-0.3681 12.358-0.818c8.622-0.77166 27.946-1.7021 35.52-1.7102 5.6923-6e-3 34.074 1.4109 38.996 1.9469 2.5233 0.2748 6.2781 0.518 8.3441 0.54044 2.066 0.0224 4.0014 0.27799 4.3011 0.56788 0.29964 0.2899 2.2222 0.66127 4.2724 0.82528s5.534 0.54161 7.7419 0.83911 6.3369 0.85531 9.1756 1.2396 5.6094 0.93077 6.1571 1.2145c0.5477 0.28368 1.8197 0.51579 2.8267 0.51579s2.6234 0.23457 3.592 0.52128c2.5893 0.7664 11.429 2.3461 13.129 2.3461 0.8072 0 1.6103 0.2308 1.7846 0.5129 0.17434 0.28209 1.2863 0.65747 2.4711 0.83417 2.9792 0.44431 9.428 1.8197 10.47 2.233 0.47312 0.18771 1.5054 0.47329 2.2939 0.63463 0.78853 0.16135 2.466 0.5912 3.7276 0.95523s3.7571 0.96263 5.5454 1.3302c1.7883 0.36759 3.4442 0.8619 3.6798 1.0985s1.0152 0.4301 1.7326 0.4301c0.71734 0 1.4638 0.25807 1.6587 0.57348 0.19494 0.31541 0.95486 0.57348 1.6887 0.57348 0.73387 0 2.0735 0.3855 2.9769 0.85668 0.90344 0.47117 2.2018 0.85827 2.8852 0.86021 0.68339 2e-3 1.3286 0.19709 1.4337 0.43365 0.10514 0.23655 1.7396 1.1896 3.632 2.1179 3.5692 1.7508 4.1914 2.1713 10.17 6.8735 4.1104 3.233 11.909 12.426 11.909 14.038 0 0.29186 0.19355 0.61667 0.43011 0.72181 0.57298 0.25466 3.5842 6.3249 3.5842 7.2253 0 0.38926 0.19939 0.70775 0.44309 0.70775 0.4529 0 1.6618 3.9616 2.2329 7.3172 0.17496 1.028 0.54766 2.011 0.82822 2.1844 0.28056 0.17339 0.51012 1.4183 0.51012 2.7665s0.19354 2.6432 0.4301 2.8779c0.23656 0.23468 0.75423 4.4712 1.1504 9.4146 0.39615 4.9433 0.97687 12.085 1.2905 15.87 0.70184 8.4702 1.8962 33.165 1.8306 37.849-0.0876 6.254-1.2096 26.863-1.7484 32.115-0.29123 2.8387-0.83471 8.129-1.2077 11.756s-0.9037 7.1111-1.1793 7.7419c-0.27557 0.63083-0.63161 2.1792-0.79119 3.4409s-0.57747 3.7133-0.92866 5.448c-0.35118 1.7348-0.93155 5.0251-1.2897 7.3118s-0.85812 4.1577-1.111 4.1577-0.45987 0.888-0.45987 1.9733-0.22955 2.1152-0.51011 2.2886c-0.28057 0.1734-0.65836 1.1564-0.83955 2.1844-0.84535 4.7963-1.805 8.4641-2.2145 8.4641-0.24758 0-0.45015 0.72258-0.45015 1.6057 0 0.88316-0.21759 1.8509-0.48354 2.1505s-0.93082 2.0932-1.4775 3.9857c-0.98181 3.3988-1.706 5.3625-2.6937 7.304-0.27861 0.54769-0.50657 1.3569-0.50657 1.7982 0 0.44135-0.38551 1.5416-0.85668 2.4451s-0.85827 2.0426-0.86022 2.5315c-2e-3 0.48889-0.2175 1.134-0.47904 1.4337-0.26153 0.29964-1.4753 2.9964-2.6972 5.9928s-2.8144 6.5832-3.5388 7.9707c-0.72444 1.3875-1.3172 2.8714-1.3172 3.2975s-0.19719 0.7748-0.4382 0.7748c-0.46055 0-2.4292 4.1859-2.4292 5.1652 0 0.31326-0.25806 0.56955-0.57347 0.56955s-0.57348 0.51613-0.57348 1.147c0 0.63083-0.19355 1.1499-0.43011 1.1535-0.23656 3e-3 -0.93595 1.1004-1.5542 2.4373-0.61826 1.3369-1.8087 3.463-2.6454 4.7246-0.83675 1.2616-1.7031 2.8746-1.9253 3.5842-0.22217 0.70968-0.64462 1.2903-0.93878 1.2903s-0.53483 0.38709-0.53483 0.86021-0.19355 0.86317-0.43011 0.86679c-0.23656 3e-3 -0.94233 1.1004-1.5684 2.4373-0.62605 1.3369-1.2727 2.5597-1.437 2.7174-0.97633 0.93726-3.4463 4.6089-3.4463 5.123 0 0.33646-0.19355 0.6122-0.43011 0.61277-0.23656 5.6e-4 -1.1949 1.2264-2.1296 2.724-0.93473 1.4976-2.983 4.4004-4.5516 6.4506-3.8155 4.9867-9.095 11.687-9.4888 12.043-0.17461 0.15771-1.7368 1.963-3.4716 4.0119-7.9454 9.3838-20.992 22.37-30.08 29.942-1.2463 1.0384-2.6742 2.2751-3.173 2.7482s-1.9308 1.6211-3.182 2.5512c-1.2512 0.93002-2.6924 2.1558-3.2025 2.724-0.51011 0.56819-1.1092 1.0331-1.3313 1.0331s-0.76351 0.32258-1.2032 0.71685c-1.1923 1.0692-1.9652 1.6598-5.427 4.1474-1.7348 1.2465-3.2832 2.4234-3.4409 2.6153-0.15771 0.19187-1.1254 0.83667-2.1505 1.4329s-1.8638 1.2865-1.8638 1.5339-0.36559 0.44983-0.81243 0.44983c-0.44683 0-0.89844 0.19973-1.0036 0.44383-0.10514 0.24411-2.7718 2.0863-5.9259 4.0938s-5.8638 3.8117-6.0215 4.0093c-0.15771 0.19763-1.3806 0.87154-2.7174 1.4976s-2.4337 1.3318-2.4373 1.5684c-3e-3 0.23656-0.37217 0.43011-0.81901 0.43011-0.44683 0-0.89844 0.19355-1.0036 0.43011s-1.2234 0.94376-2.4851 1.5716c-1.2616 0.6278-2.4229 1.281-2.5806 1.4515-0.15771 0.17051-3.1254 1.7214-6.595 3.4464-3.4695 1.725-6.3943 3.3299-6.4994 3.5664s-0.68578 0.43011-1.2903 0.43011-1.0992 0.25806-1.0992 0.57348c0 0.31541-0.3906 0.57347-0.868 0.57347s-1.3161 0.24161-1.8638 0.53692c-0.98844 0.53294-5.7243 2.6518-9.0245 4.0376-2.7148 1.14-4.5172 1.5766-5.448 1.3198zm4.2322-32.131c4.8885-2.1113 21.456-10.763 22.148-11.566 0.15794-0.18323 1.0612-0.73894 2.0072-1.2349 2.7104-1.421 4.5626-2.5107 4.8741-2.8677 0.15771-0.18071 0.67384-0.50614 1.147-0.72316s1.5329-0.84336 2.3551-1.3919c0.82219-0.5485 3.0157-1.9993 4.8746-3.224 1.8588-1.2247 3.5087-2.4054 3.6664-2.6238 0.15771-0.21839 1.1254-0.88489 2.1505-1.4811s1.8638-1.2865 1.8638-1.5339 0.3871-0.44983 0.86022-0.44983c0.47311 0 0.86197-0.19355 0.86413-0.43011 2e-3 -0.23656 0.95128-1.0753 2.1092-1.8638 1.1579-0.78853 2.3823-1.6918 2.7209-2.0072 0.33859-0.31541 1.9056-1.5897 3.4822-2.8317 1.5766-1.2421 3.2797-2.6614 3.7845-3.1541s1.913-1.67 3.1292-2.6163c1.2162-0.94623 3.5471-3.0108 5.1797-4.5878 1.6326-1.5771 4.9987-4.8303 7.4801-7.2294 4.981-4.8158 13.034-13.48 14.442-15.538 0.49606-0.72519 1.3167-1.7056 1.8237-2.1787s1.6812-1.8925 2.6094-3.1541 1.8318-2.4229 2.008-2.5806c0.17618-0.15771 1.0809-1.3188 2.0104-2.5802 0.92957-1.2614 2.1388-2.7908 2.6871-3.3986 0.54837-0.60783 1.1464-1.5758 1.329-2.151 0.18257-0.57522 0.57262-1.0458 0.86678-1.0458 0.29415 0 0.53483-0.3871 0.53483-0.86022 0-0.47311 0.21743-0.86021 0.48317-0.86021s0.96959-0.90323 1.5641-2.0072 1.2803-2.0072 1.524-2.0072 0.44307-0.3871 0.44307-0.86021c0-0.47312 0.19938-0.86022 0.44306-0.86022 0.24369 0 0.94946-0.96774 1.5684-2.1505 0.61893-1.1828 1.9679-3.493 2.9978-5.1337 1.0299-1.6408 1.8725-3.2322 1.8725-3.5364s0.19393-0.63925 0.43097-0.74439c1.1911-0.52833 13.279-25.02 14.241-28.855 0.20077-0.79991 0.59451-1.5962 0.87498-1.7696s0.50994-0.92359 0.50994-1.6672 0.19355-1.4381 0.43011-1.5432c0.55347-0.24598 2.4438-5.6143 2.4401-6.9295-2e-3 -0.55197 0.25522-1.0036 0.57063-1.0036 0.31542 0 0.57348-0.62993 0.57348-1.3998 0-0.76991 0.25806-1.5593 0.57348-1.7543 0.31541-0.19494 0.57347-0.96913 0.57347-1.7204s0.23389-1.5106 0.51976-1.6872c0.28586-0.17667 0.69713-1.611 0.91394-3.1873 0.2168-1.5764 0.62807-3.0106 0.91393-3.1873 0.28587-0.17667 0.51976-1.065 0.51976-1.974s0.25806-1.8122 0.57347-2.0072c0.31542-0.19494 0.57348-1.0013 0.57348-1.792s0.26078-1.9248 0.5795-2.5204c0.31874-0.59555 0.74259-2.6431 0.94192-4.5501 0.19932-1.907 0.55772-3.4673 0.79644-3.4673s0.57389-1.0968 0.74482-2.4373 0.58155-3.8566 0.91248-5.5914c1.1039-5.7869 1.7219-10.581 1.7408-13.505 0.0103-1.5928 0.25867-3.1412 0.55189-3.4409 0.95994-0.98097 1.2761-10.447 1.2823-38.394 6e-3 -28.568-0.34684-41.048-1.2172-43.011-0.27977-0.63083-0.6548-4.1147-0.83341-7.7419-0.4779-9.7058-3.2221-16.482-9.1266-22.535-3.3135-3.3971-8.1904-6.7123-9.8741-6.7123-0.40711 0-0.82622-0.19379-0.93136-0.43065-0.2505-0.56435-7.4101-2.4367-9.3175-2.4367-0.81561 0-1.4829-0.25806-1.4829-0.57347 0-0.31542-0.7777-0.57348-1.7282-0.57348-0.95051 0-2.1763-0.232-2.724-0.51557-1.2508-0.64756-9.1711-2.369-10.854-2.3592-0.69106 4e-3 -1.416-0.25072-1.6109-0.56613-0.19493-0.31541-1.0306-0.57348-1.8569-0.57348-0.82637 0-2.295-0.23956-3.2636-0.53235-3.4159-1.0325-10.388-2.3496-12.399-2.3424-1.1197 4e-3 -2.281-0.22428-2.5806-0.50739-0.29964-0.28311-1.5771-0.66114-2.8387-0.84007-1.2616-0.17894-4.8746-0.7169-8.0287-1.1955s-7.2832-1.0232-9.1756-1.2102c-1.8925-0.18702-3.957-0.56798-4.5878-0.84658-1.2592-0.5561-3.7814-0.81416-16.631-1.7015-4.7312-0.32672-9.7026-0.84741-11.048-1.1571-3.2286-0.74336-52.669-0.74336-55.898 0-1.345 0.30968-6.3165 0.83037-11.048 1.1571-12.874 0.88904-15.373 1.1455-16.631 1.7069-0.63082 0.28159-2.5663 0.65814-4.3011 0.83678-7.3927 0.76128-14.283 1.7883-14.677 2.1878-0.23352 0.23656-1.4912 0.43011-2.795 0.43011-1.3037 0-2.6155 0.23427-2.9152 0.52061-0.29964 0.28633-1.8351 0.64244-3.4122 0.79134s-4.9319 0.71203-7.4552 1.2514-5.5572 1.1138-6.7419 1.2764c-1.1848 0.16266-2.2968 0.52654-2.4711 0.80864-0.17435 0.28209-0.88241 0.50959-1.5735 0.50555-1.6833-0.01-9.6037 1.7116-10.854 2.3592-0.54769 0.28357-1.5189 0.51557-2.1583 0.51557s-1.6106 0.23072-2.1583 0.5127c-0.94835 0.48827-5.1467 1.4788-9.1678 2.163-1.0251 0.17443-1.8638 0.54697-1.8638 0.82787 0 0.28091-0.36328 0.51074-0.80729 0.51074-3.7684 0-15.25 10.118-15.25 13.438 0 0.49417-0.25807 0.89848-0.57348 0.89848s-0.57348 0.5009-0.57348 1.1131c0 0.61221-0.25806 1.2726-0.57347 1.4675-0.31542 0.19494-0.57348 0.93275-0.57348 1.6396 0 0.70684-0.25083 1.536-0.5574 1.8426-0.30657 0.30657-0.71373 3.9066-0.9048 8-0.19106 4.0934-0.57638 7.9587-0.85626 8.5896-0.86994 1.9608-1.2236 14.432-1.2198 43.011 4e-3 27.711 0.27662 36.311 1.2192 38.423 0.2815 0.63082 0.67037 3.5435 0.86415 6.4726s0.60041 5.9782 0.90362 6.7757c0.3032 0.79749 0.55128 2.4502 0.55128 3.6727s0.25806 2.3822 0.57348 2.5772c0.31541 0.19493 0.57347 1.3562 0.57347 2.5806s0.22168 2.3632 0.49263 2.5307c0.27094 0.16745 0.66636 1.7956 0.8787 3.6181 0.38588 3.312 1.1919 6.4473 2.1399 8.3238 0.27669 0.54769 0.50308 1.6292 0.50308 2.4034s0.22405 1.5461 0.49789 1.7153 0.66841 1.5932 0.87684 3.1644 0.62954 3.0116 0.93581 3.2008c0.30626 0.18928 0.55685 0.97408 0.55685 1.744 0 0.76991 0.25806 1.3998 0.57347 1.3998 0.31542 0 0.57348 0.77419 0.57348 1.7204s0.25806 1.7204 0.57348 1.7204c0.31541 0 0.57347 0.51091 0.57347 1.1354 0 0.99713 0.7611 3.3847 2.2888 7.1801 1.4612 3.6303 2.4178 5.8501 2.9003 6.7306 0.30014 0.5477 0.5457 1.3864 0.5457 1.8638s0.25806 0.868 0.57348 0.868c0.31541 0 0.57347 0.3906 0.57347 0.868 0 0.47739 0.2393 1.3161 0.53177 1.8638 0.29247 0.54769 2.2278 4.4797 4.3006 8.7377 3.609 7.4136 6.023 12.002 6.6372 12.616 0.53838 0.53839 2.9403 4.8722 3.2578 5.8781 0.17423 0.55197 0.54476 1.0036 0.82338 1.0036s0.50659 0.27528 0.50659 0.61174c0 0.51183 2.4541 4.1634 3.4431 5.123 0.16252 0.1577 0.80668 1.2607 1.4315 2.4512 0.62479 1.1904 1.8475 2.9969 2.7172 4.0143 0.86965 1.0174 1.5818 2.025 1.5825 2.239 5.7e-4 0.21404 0.32393 0.73017 0.71819 1.147 0.39427 0.41679 1.4867 1.7901 2.4276 3.0517 2.7363 3.669 5.0474 6.4485 11.921 14.337 6.4436 7.3948 21.543 22.005 27.658 26.762 0.94624 0.73608 2.4684 2.048 3.3826 2.9154 0.91416 0.86738 1.8702 1.5771 2.1245 1.5771s1.0547 0.58397 1.7788 1.2977c1.6787 1.6549 9.4672 7.3044 10.07 7.3044 0.25061 0 0.82766 0.51613 1.2823 1.147 0.45467 0.63082 1.0071 1.147 1.2277 1.147 0.22056 0 2.274 1.2903 4.5633 2.8674s4.3852 2.8674 4.6577 2.8674 0.98327 0.45161 1.5796 1.0036c0.59637 0.55197 2.0694 1.5158 3.2735 2.1419 1.2041 0.62605 3.5317 1.9809 5.1724 3.0108s3.2322 1.8725 3.5364 1.8725 0.63925 0.19355 0.7444 0.43011c0.10513 0.23656 2.2557 1.4547 4.779 2.7071 2.5233 1.2523 4.7168 2.4207 4.8746 2.5965 0.1577 0.17572 1.448 0.81148 2.8674 1.4128 1.4194 0.6013 2.8258 1.3039 3.1254 1.5612 0.88267 0.75818 3.2046 0.53978 5.6945-0.53562z" fill="#f60" fill-opacity=".64" filter="url(#filter45450)" style="paint-order:markers stroke fill"/>
  <path d="m230.82 401.54c-4.4158-2.2541-8.1577-4.235-8.3154-4.4019-0.15771-0.16692-1.319-0.81716-2.5806-1.445-1.2616-0.62781-2.3799-1.335-2.4851-1.5716s-0.42573-0.4301-0.71243-0.4301-2.9356-1.5484-5.8864-3.4409-5.641-3.4409-5.9781-3.4409c-0.33714 0-0.69901-0.19355-0.80416-0.43011-0.29719-0.66869-4.3478-3.5842-4.9796-3.5842-0.31017 0-0.64997-0.19798-0.75511-0.43994-0.10514-0.24197-1.6105-1.4625-3.3453-2.7123s-3.4951-2.6002-3.9119-3.0009-0.94326-0.7286-1.1699-0.7286-1.5527-1.0323-2.9468-2.2939-2.7269-2.2939-2.9617-2.2939c-0.23484 0-1.0293-0.58064-1.7654-1.2903-0.73611-0.70968-2.7478-2.451-4.4705-3.8695-11.256-9.2689-24.756-23.402-36.394-38.101-0.94624-1.1951-2.172-2.6995-2.724-3.343s-1.0036-1.3399-1.0036-1.5476c0-0.20767-0.4658-0.87787-1.0351-1.4893-0.56931-0.61145-2.4338-3.3053-4.1433-5.9863s-3.3082-4.9606-3.5527-5.0657c-0.24448-0.10515-0.4445-0.55676-0.4445-1.0036s-0.25806-0.81243-0.57348-0.81243c-0.31541 0-0.57347-0.24075-0.57347-0.535s-1.2903-2.6594-2.8674-5.256c-1.5771-2.5965-2.8674-5.044-2.8674-5.4387s-0.20085-0.80377-0.44635-0.90891c-0.45058-0.19297-7.798-14.869-9.5701-19.116-1.9385-4.6455-2.1704-5.181-2.667-6.1571-0.27862-0.54769-0.50657-1.3864-0.50657-1.8638 0-0.47739-0.25807-0.86799-0.57348-0.86799s-0.57507-0.58065-0.57701-1.2903c-2e-3 -0.70967-0.38904-2.0295-0.86021-2.9329-0.47118-0.90343-0.85669-2.1292-0.85669-2.724s-0.25806-1.0814-0.57347-1.0814c-0.31542 0-0.57348-0.62993-0.57348-1.3998 0-0.76992-0.22829-1.5409-0.5073-1.7134-0.27902-0.17243-0.68103-1.472-0.89335-2.8878-0.21233-1.4159-0.6292-2.7246-0.92639-2.9083-0.29719-0.18367-0.54034-1.0777-0.54034-1.9867s-0.25807-1.8122-0.57348-2.0072c-0.31541-0.19494-0.57348-1.1134-0.57348-2.041s-0.25806-1.6866-0.57347-1.6866-0.57348-0.54372-0.57348-1.2083c0-1.6356-1.6974-9.1584-2.3459-10.397-0.28679-0.5477-0.52144-1.8595-0.52144-2.9152s-0.19355-2.1104-0.43011-2.3439c-0.42711-0.42162-1.6607-8.6339-2.2046-14.677-0.15616-1.7348-0.52168-3.6702-0.81228-4.3011-0.60874-1.3214-0.93636-5.7131-1.6392-21.974-0.65874-15.239 0.51079-59.926 1.6312-62.328 0.29434-0.63083 0.65067-3.4695 0.79185-6.3082 0.38885-7.8183 2.1668-14.033 4.8105-16.815 0.39607-0.4168 0.72013-0.96058 0.72013-1.2084 0-0.9421 5.7954-6.1935 8.002-7.2507 1.2691-0.6081 2.3104-1.2992 2.314-1.5357 4e-3 -0.23656 0.39718-0.43011 0.87458-0.43011 0.47739 0 1.3161-0.24764 1.8638-0.5503 0.54769-0.30267 2.1571-0.80251 3.5764-1.1108 1.4194-0.30826 3.6129-0.85197 4.8746-1.2083 3.9408-1.1129 6.7571-1.7833 10.419-2.4804 1.9455-0.37033 3.7304-0.86653 3.9666-1.1027 0.23614-0.23614 1.2896-0.42934 2.3409-0.42934s1.9116-0.25806 1.9116-0.57348c0-0.31541 0.83871-0.57654 1.8638-0.58028 1.0251-0.0037 3.2832-0.38778 5.0179-0.85341s3.9776-0.84966 4.9841-0.85341c1.0065-0.0037 1.9894-0.26487 2.1844-0.58028 0.19493-0.31541 1.375-0.57348 2.6223-0.57348s2.716-0.23158 3.2636-0.51462c0.54769-0.28304 3.1894-0.8298 5.8704-1.215 2.681-0.38521 6.4229-0.93917 8.3154-1.231 1.8925-0.29185 4.7312-0.66078 6.3082-0.81982s3.3835-0.50837 4.0143-0.77628c1.0825-0.45972 8.8425-1.3227 21.792-2.4235 6.9774-0.59311 29.659-1.7538 34.409-1.7609 13.308-0.01976 55.132 3.175 56.25 4.2967 0.2357 0.23656 1.7221 0.43011 3.303 0.43011s3.667 0.23836 4.6356 0.5297c2.0771 0.62473 9.1066 1.7742 13.385 2.1887 1.6617 0.16101 3.1608 0.51845 3.3313 0.79432 0.17049 0.27587 1.2442 0.50158 2.386 0.50158s2.8685 0.23956 3.8371 0.53236c3.063 0.92588 10.302 2.35 11.907 2.3424 0.84877-4e-3 1.7027 0.25071 1.8976 0.56613 0.19494 0.31541 0.90152 0.57348 1.5702 0.57348s2.0083 0.24838 2.9769 0.55194c0.96863 0.30357 3.8257 0.96987 6.349 1.4807 2.5233 0.5108 5.0359 1.1657 5.5836 1.4552 0.5477 0.28957 1.6292 0.52649 2.4034 0.52649s1.5522 0.23389 1.7289 0.51975 1.611 0.69714 3.1873 0.91394c1.5764 0.2168 3.0107 0.62808 3.1873 0.91394s0.82212 0.51975 1.4343 0.51975 1.1131 0.19507 1.1131 0.43348 0.813 0.79335 1.8067 1.2332c2.5228 1.1167 8.0018 6.7636 9.3761 9.6635 0.63082 1.331 1.3405 2.423 1.5771 2.4267 0.23656 4e-3 0.4301 0.52271 0.4301 1.1535 0 0.63083 0.22247 1.147 0.49438 1.147 0.70403 0 1.8752 6.3626 2.1639 11.756 0.13509 2.5233 0.49003 5.1039 0.78876 5.7348 0.61198 1.2923 0.90114 7.1381 1.6169 32.688 0.64931 23.178-0.0808 41.868-2.1732 55.627-0.33575 2.2079-0.92998 6.3817-1.3205 9.2752-0.39054 2.8935-0.90362 5.4526-1.1402 5.687s-0.43011 1.4002-0.43011 2.5906c0 1.1905-0.2308 2.3071-0.5129 2.4815-0.28209 0.17434-0.65746 1.2863-0.83416 2.4711-0.68582 4.5985-1.8283 9.8218-2.2379 10.231-0.23614 0.23613-0.42934 0.90596-0.42934 1.4885 0 0.58253-0.23426 1.5073-0.52056 2.055-0.77675 1.4859-2.3468 6.992-2.3468 8.2301 0 0.59461-0.25806 1.0811-0.57347 1.0811-0.31542 0-0.57348 0.59355-0.57348 1.319s-0.206 1.5642-0.45778 1.8638c-0.25177 0.29965-0.91884 1.9642-1.4824 3.6989s-1.2953 3.7993-1.6261 4.5878-0.78928 1.9498-1.0188 2.5806c-0.22948 0.63082-0.84012 2.1234-1.357 3.317-0.51684 1.1935-0.9397 2.5483-0.9397 3.0108s-0.19355 0.84182-0.43011 0.84313c-0.23656 1e-3 -1.1992 1.9368-2.1393 4.3011-0.94005 2.3643-1.9078 4.2987-2.1505 4.2987s-0.44137 0.51613-0.44137 1.147-0.19355 1.1479-0.43011 1.1491c-0.23656 1e-3 -0.92722 1.227-1.5348 2.724-0.60759 1.497-1.2552 2.8509-1.4392 3.0086-0.18398 0.15771-0.84816 1.319-1.476 2.5806-0.62781 1.2616-1.2709 2.4229-1.4291 2.5806s-0.67434 1.0609-1.147 2.0072c-0.47262 0.94624-1.1819 2.0614-1.5762 2.4782-0.39426 0.41679-0.71684 1.1265-0.71684 1.5771s-0.25807 0.81925-0.57348 0.81925-0.57348 0.26896-0.57348 0.59768c0 0.32873-0.2617 0.90937-0.58155 1.2903-1.2029 1.4326-3.4328 5.0656-3.4328 5.5927 0 0.3014-0.21055 0.548-0.46788 0.548s-1.0227 0.98719-1.7008 2.1938c-0.67813 1.2066-2.0118 3.0775-2.9638 4.1577-0.95197 1.0802-1.735 2.2865-1.74 2.6808-5e-3 0.39427-0.21158 0.71685-0.45898 0.71685-0.24741 0-0.87272 0.70968-1.3896 1.5771s-1.4112 2.0934-1.9874 2.7245-1.8155 2.1795-2.7539 3.4409c-0.93842 1.2614-2.2287 2.8465-2.8674 3.5224s-2.8375 3.1275-4.8863 5.448c-8.2474 9.341-22.619 23.025-30.859 29.382-0.84987 0.65571-1.8219 1.4558-2.1601 1.7779-0.33817 0.32213-1.5622 1.2309-2.7201 2.0194-1.1579 0.78853-2.107 1.6272-2.1092 1.8638-2e-3 0.23656-0.39101 0.43011-0.86413 0.43011s-0.86022 0.24068-0.86022 0.53483c0 0.29416-0.48606 0.68911-1.0801 0.87766-0.59409 0.18855-1.8335 1.0447-2.7542 1.9024-0.92069 0.85779-2.6162 2.0454-3.7678 2.6392-1.1516 0.59378-2.5715 1.497-3.1553 2.0072-1.2422 1.0855-2.9389 2.2104-4.153 2.7532-0.47312 0.21155-0.98925 0.55108-1.147 0.75451-0.41101 0.53017-12.171 7.2751-16.918 9.7033-2.2079 1.1294-4.1004 2.247-4.2055 2.4836s-0.42898 0.43011-0.71966 0.43011c-0.29067 0-1.8658 0.64516-3.5004 1.4337-1.6345 0.78853-3.3107 1.4337-3.7248 1.4337-0.41409 0-0.75289 0.25807-0.75289 0.57348 0 1.3915-3.7285 0.18414-11.183-3.621zm19.785-56.024v-14.913l3.2855-3.0077c7.5484-6.9102 17.36-17.438 17.36-18.627 0-0.39864 0.2396-0.72479 0.53246-0.72479 0.60478 0 4.6705-5.2447 7.2233-9.318 0.93862-1.4976 1.9001-2.7234 2.1367-2.724 0.23656-5.6e-4 0.43011-0.36969 0.43011-0.82027 0-0.4506 0.32258-1.1603 0.71685-1.5771 0.39426-0.41679 1.1035-1.532 1.5762-2.4782 0.47261-0.94623 1.0144-1.8495 1.2039-2.0072 0.34297-0.28536 5.8264-11.604 6.9458-14.337 0.32295-0.78853 0.79749-1.8535 1.0545-2.3667 0.25704-0.51314 0.64328-1.8708 0.85832-3.0171 0.21504-1.1462 0.61979-2.2255 0.89944-2.3983 0.27966-0.17284 0.50847-0.81865 0.50847-1.4352 0-0.61648 0.22639-1.569 0.50308-2.1167 0.92526-1.8315 1.7328-4.9812 2.0931-8.1643 0.1964-1.7348 0.58234-3.6702 0.85766-4.3011 0.93499-2.1423 1.256-6.8552 1.5006-22.032 0.16075-9.9756 0.0419-15.352-0.34798-15.742-0.32566-0.32566-0.59211-2.1749-0.59211-4.1094s-0.19355-3.7099-0.43011-3.9452-0.75889-2.6654-1.1607-5.4002c-1.2961-8.8207-1.3894-9.2734-1.9103-9.2734-0.28228 0-0.51324-0.90322-0.51324-2.0072 0-1.104-0.25806-2.0072-0.57347-2.0072-0.31542 0-0.57348-0.63614-0.57348-1.4136 0-1.5032-1.3858-6.237-2.312-7.8976-0.30547-0.54769-0.55541-1.3569-0.55541-1.7982 0-0.44135-0.3855-1.5416-0.85668-2.4451-0.47117-0.90344-0.85827-2.079-0.86021-2.6124-2e-3 -0.53336-0.2616-1.1292-0.57701-1.3242-0.31541-0.19494-0.57348-0.85533-0.57348-1.4675s-0.25806-1.1131-0.57348-1.1131c-0.31541 0-0.57347-0.3906-0.57347-0.868 0-0.47739-0.23372-1.3161-0.51937-1.8638-0.28564-0.5477-2.3814-4.815-4.6572-9.483s-4.439-8.797-4.807-9.1756c-0.36809-0.37865-1.1182-1.5917-1.6669-2.6956-1.2817-2.5785-2.1557-3.9606-3.4032-5.3815-0.55197-0.62867-1.0036-1.3696-1.0036-1.6466 0-0.58755-2.9511-4.6379-3.5842-4.9193-0.23656-0.10514-0.43011-0.44494-0.43011-0.75511 0-0.49402-2.5986-4.2971-3.4679-5.0752-0.17618-0.1577-1.0794-1.319-2.0072-2.5806s-1.819-2.4229-1.9804-2.5806c-0.16146-0.1577-1.7113-1.962-3.4441-4.0096-5.2125-6.1594-15.216-16.062-16.225-16.062-0.98656 0-4.6138 3.1002-8.6465 7.3901-1.3006 1.3835-3.3323 3.5335-4.5149 4.7776-1.1826 1.2442-3.1181 3.4591-4.3011 4.922s-2.8606 3.4158-3.7279 4.3397c-0.86738 0.92386-1.5771 1.8811-1.5771 2.1272 0 0.24611-0.32258 0.78848-0.71685 1.2053-1.2502 1.3217-3.871 4.9664-3.871 5.3835 0 0.22061-0.49112 0.82705-1.0914 1.3476-0.60025 0.52059-1.6592 2.036-2.3533 3.3676-0.69406 1.3316-1.5092 2.5739-1.8114 2.7607-0.30221 0.18677-0.79099 0.89516-1.0862 1.5742-0.5583 1.2842-1.7635 3.3188-2.2599 3.8153-0.33715 0.33715-1.7673 2.8897-3.5804 6.3902-0.71178 1.3743-1.4422 2.6277-1.6232 2.7854-0.18095 0.1577-0.82611 1.5116-1.4337 3.0086s-1.2982 2.7228-1.5348 2.724c-0.23656 1e-3 -0.4301 0.51828-0.4301 1.1491s-0.25807 1.147-0.57348 1.147-0.57348 0.28358-0.57348 0.63018c0 0.61532-1.2928 3.8244-2.3421 5.8136-0.28889 0.5477-0.52526 1.3864-0.52526 1.8638s-0.25807 0.868-0.57348 0.868-0.57506 0.58064-0.57701 1.2903c-2e-3 0.70968-0.38904 2.0295-0.86021 2.9329-0.47118 0.90344-0.85668 2.1292-0.85668 2.724s-0.25807 1.0814-0.57348 1.0814-0.57348 0.59355-0.57348 1.319-0.26492 1.5839-0.58872 1.9077c-0.32379 0.32379-0.74683 1.9238-0.94009 3.5556s-0.5735 2.9668-0.84497 2.9668c-0.27148 0-0.4936 0.75896-0.4936 1.6866s-0.25807 1.8461-0.57348 2.041c-0.31541 0.19493-0.57348 1.1908-0.57348 2.213s-0.24677 2.1054-0.5484 2.407c-0.30162 0.30162-0.72582 2.6758-0.94266 5.276-0.21685 2.6002-0.61523 4.7276-0.8853 4.7276-0.27006 0-0.49102 1.6622-0.49102 3.6938s-0.25806 3.8532-0.57348 4.0482c-0.36017 0.2226-0.57347 6.3142-0.57347 16.378 0 10.3 0.20484 16.024 0.57347 16.024 0.31542 0 0.57348 1.4041 0.57348 3.1203s0.22416 3.2588 0.49812 3.4281c0.27397 0.16933 0.67611 2.1141 0.89365 4.3217 0.21753 2.2076 0.63853 4.1641 0.93557 4.3476 0.29702 0.18358 0.54004 1.0927 0.54004 2.0204s0.25807 1.6866 0.57348 1.6866 0.57348 0.7742 0.57348 1.7204c0 0.94624 0.22508 1.7204 0.50018 1.7204s0.6647 1.0289 0.86579 2.2864c0.20108 1.2575 0.83157 3.1285 1.4011 4.1577 0.56951 1.0292 1.4857 3.0326 2.0359 4.452 1.7409 4.4906 2.3467 5.7348 2.7922 5.7348 0.23841 0 0.43348 0.39222 0.43348 0.87161 0 0.47938 0.64516 1.8936 1.4337 3.1427 0.78853 1.2491 1.4337 2.5343 1.4337 2.856s0.19506 0.58487 0.43348 0.58487 0.76251 0.74333 1.1647 1.6518c0.40214 0.90851 1.368 2.3924 2.1465 3.2975s1.4156 1.8564 1.416 2.114c1e-3 0.72817 4.1459 6.1244 11.088 14.436 2.7063 3.2401 11.483 12.121 15.149 15.329l2.4373 2.1327v29.856h21.219z" fill="#f60" fill-opacity=".64" filter="url(#filter45470)" style="paint-order:markers stroke fill"/>
 </g>
</svg>
