<svg width="800" height="800" version="1.1" viewBox="0 0 800 800" xmlns="http://www.w3.org/2000/svg">
 <defs>
  <clipPath id="clipPath23792">
   <path d="m0 600h600v-600h-600z"/>
  </clipPath>
  <clipPath id="clipPath23828">
   <path d="m239.03 373.39-42.134-24.315c-1.576-0.909-2.545-2.588-2.545-4.407v-48.666c0-1.818 0.969-3.497 2.544-4.408l42.133-24.334c1.576-0.909 3.516-0.909 5.091 0l42.124 24.334c1.574 0.911 2.543 2.59 2.543 4.408v48.668c0 1.817-0.969 3.496-2.545 4.405l-42.123 24.315c-0.787 0.454-1.666 0.682-2.544 0.682-0.879 0-1.757-0.228-2.544-0.682"/>
  </clipPath>
  <filter id="filter26076" x="-.065103" y="-.1063" width="1.1302" height="1.2126" color-interpolation-filters="sRGB">
   <feGaussianBlur in="SourceGraphic" result="result0" stdDeviation="6"/>
   <feDiffuseLighting lighting-color="rgb(255,255,255)" result="result5" surfaceScale="4">
    <feDistantLight azimuth="235" elevation="45"/>
   </feDiffuseLighting>
   <feComposite in="result5" in2="SourceGraphic" k1="1.4" operator="arithmetic" result="fbSourceGraphic"/>
   <feGaussianBlur in="fbSourceGraphic" result="result0" stdDeviation="6"/>
   <feSpecularLighting lighting-color="rgb(255,255,255)" in="result0" result="result1" specularExponent="25" surfaceScale="4">
    <feDistantLight azimuth="235" elevation="45"/>
   </feSpecularLighting>
   <feComposite in="fbSourceGraphic" in2="result1" k2="1" k3="1" operator="arithmetic" result="result4"/>
   <feComposite in="result4" in2="SourceGraphic" operator="in" result="result2"/>
  </filter>
  <filter id="filter26096" x="-.30497" y="-.26792" width="1.6099" height="1.5358" color-interpolation-filters="sRGB">
   <feGaussianBlur in="SourceGraphic" result="result0" stdDeviation="6"/>
   <feDiffuseLighting lighting-color="rgb(255,255,255)" result="result5" surfaceScale="4">
    <feDistantLight azimuth="235" elevation="45"/>
   </feDiffuseLighting>
   <feComposite in="result5" in2="SourceGraphic" k1="1.4" operator="arithmetic" result="fbSourceGraphic"/>
   <feGaussianBlur in="fbSourceGraphic" result="result0" stdDeviation="6"/>
   <feSpecularLighting lighting-color="rgb(255,255,255)" in="result0" result="result1" specularExponent="25" surfaceScale="4">
    <feDistantLight azimuth="235" elevation="45"/>
   </feSpecularLighting>
   <feComposite in="fbSourceGraphic" in2="result1" k2="1" k3="1" operator="arithmetic" result="result4"/>
   <feComposite in="result4" in2="SourceGraphic" operator="in" result="result2"/>
  </filter>
  <filter id="filter26116" x="-.22983" y="-.12803" width="1.4597" height="1.2561" color-interpolation-filters="sRGB">
   <feGaussianBlur in="SourceGraphic" result="result0" stdDeviation="6"/>
   <feDiffuseLighting lighting-color="rgb(255,255,255)" result="result5" surfaceScale="4">
    <feDistantLight azimuth="235" elevation="45"/>
   </feDiffuseLighting>
   <feComposite in="result5" in2="SourceGraphic" k1="1.4" operator="arithmetic" result="fbSourceGraphic"/>
   <feGaussianBlur in="fbSourceGraphic" result="result0" stdDeviation="6"/>
   <feSpecularLighting lighting-color="rgb(255,255,255)" in="result0" result="result1" specularExponent="25" surfaceScale="4">
    <feDistantLight azimuth="235" elevation="45"/>
   </feSpecularLighting>
   <feComposite in="fbSourceGraphic" in2="result1" k2="1" k3="1" operator="arithmetic" result="result4"/>
   <feComposite in="result4" in2="SourceGraphic" operator="in" result="result2"/>
  </filter>
  <filter id="filter26136" x="-.22983" y="-.20227" width="1.4597" height="1.4045" color-interpolation-filters="sRGB">
   <feGaussianBlur in="SourceGraphic" result="result0" stdDeviation="6"/>
   <feDiffuseLighting lighting-color="rgb(255,255,255)" result="result5" surfaceScale="4">
    <feDistantLight azimuth="235" elevation="45"/>
   </feDiffuseLighting>
   <feComposite in="result5" in2="SourceGraphic" k1="1.4" operator="arithmetic" result="fbSourceGraphic"/>
   <feGaussianBlur in="fbSourceGraphic" result="result0" stdDeviation="6"/>
   <feSpecularLighting lighting-color="rgb(255,255,255)" in="result0" result="result1" specularExponent="25" surfaceScale="4">
    <feDistantLight azimuth="235" elevation="45"/>
   </feSpecularLighting>
   <feComposite in="fbSourceGraphic" in2="result1" k2="1" k3="1" operator="arithmetic" result="result4"/>
   <feComposite in="result4" in2="SourceGraphic" operator="in" result="result2"/>
  </filter>
  <filter id="filter26156" x="-1.2015" y="-1.0874" width="3.4031" height="3.1748" color-interpolation-filters="sRGB">
   <feGaussianBlur in="SourceGraphic" result="result0" stdDeviation="6"/>
   <feDiffuseLighting lighting-color="rgb(255,255,255)" result="result5" surfaceScale="4">
    <feDistantLight azimuth="235" elevation="45"/>
   </feDiffuseLighting>
   <feComposite in="result5" in2="SourceGraphic" k1="1.4" operator="arithmetic" result="fbSourceGraphic"/>
   <feGaussianBlur in="fbSourceGraphic" result="result0" stdDeviation="6"/>
   <feSpecularLighting lighting-color="rgb(255,255,255)" in="result0" result="result1" specularExponent="25" surfaceScale="4">
    <feDistantLight azimuth="235" elevation="45"/>
   </feSpecularLighting>
   <feComposite in="fbSourceGraphic" in2="result1" k2="1" k3="1" operator="arithmetic" result="result4"/>
   <feComposite in="result4" in2="SourceGraphic" operator="in" result="result2"/>
  </filter>
  <filter id="filter26176" x="-.23025" y="-.2232" width="1.4605" height="1.4464" color-interpolation-filters="sRGB">
   <feGaussianBlur in="SourceGraphic" result="result0" stdDeviation="6"/>
   <feDiffuseLighting lighting-color="rgb(255,255,255)" result="result5" surfaceScale="4">
    <feDistantLight azimuth="235" elevation="45"/>
   </feDiffuseLighting>
   <feComposite in="result5" in2="SourceGraphic" k1="1.4" operator="arithmetic" result="fbSourceGraphic"/>
   <feGaussianBlur in="fbSourceGraphic" result="result0" stdDeviation="6"/>
   <feSpecularLighting lighting-color="rgb(255,255,255)" in="result0" result="result1" specularExponent="25" surfaceScale="4">
    <feDistantLight azimuth="235" elevation="45"/>
   </feSpecularLighting>
   <feComposite in="fbSourceGraphic" in2="result1" k2="1" k3="1" operator="arithmetic" result="result4"/>
   <feComposite in="result4" in2="SourceGraphic" operator="in" result="result2"/>
  </filter>
  <filter id="filter26196" x="-.53593" y="-.5029" width="2.0719" height="2.0058" color-interpolation-filters="sRGB">
   <feGaussianBlur in="SourceGraphic" result="result0" stdDeviation="6"/>
   <feDiffuseLighting lighting-color="rgb(255,255,255)" result="result5" surfaceScale="4">
    <feDistantLight azimuth="235" elevation="45"/>
   </feDiffuseLighting>
   <feComposite in="result5" in2="SourceGraphic" k1="1.4" operator="arithmetic" result="fbSourceGraphic"/>
   <feGaussianBlur in="fbSourceGraphic" result="result0" stdDeviation="6"/>
   <feSpecularLighting lighting-color="rgb(255,255,255)" in="result0" result="result1" specularExponent="25" surfaceScale="4">
    <feDistantLight azimuth="235" elevation="45"/>
   </feSpecularLighting>
   <feComposite in="fbSourceGraphic" in2="result1" k2="1" k3="1" operator="arithmetic" result="result4"/>
   <feComposite in="result4" in2="SourceGraphic" operator="in" result="result2"/>
  </filter>
  <filter id="filter26216" x="-.22487" y="-.20007" width="1.4497" height="1.4001" color-interpolation-filters="sRGB">
   <feGaussianBlur in="SourceGraphic" result="result0" stdDeviation="6"/>
   <feDiffuseLighting lighting-color="rgb(255,255,255)" result="result5" surfaceScale="4">
    <feDistantLight azimuth="235" elevation="45"/>
   </feDiffuseLighting>
   <feComposite in="result5" in2="SourceGraphic" k1="1.4" operator="arithmetic" result="fbSourceGraphic"/>
   <feGaussianBlur in="fbSourceGraphic" result="result0" stdDeviation="6"/>
   <feSpecularLighting lighting-color="rgb(255,255,255)" in="result0" result="result1" specularExponent="25" surfaceScale="4">
    <feDistantLight azimuth="235" elevation="45"/>
   </feSpecularLighting>
   <feComposite in="fbSourceGraphic" in2="result1" k2="1" k3="1" operator="arithmetic" result="result4"/>
   <feComposite in="result4" in2="SourceGraphic" operator="in" result="result2"/>
  </filter>
  <filter id="filter26236" x="-1.4203" y="-1.4182" width="3.8407" height="3.8365" color-interpolation-filters="sRGB">
   <feGaussianBlur in="SourceGraphic" result="result0" stdDeviation="6"/>
   <feDiffuseLighting lighting-color="rgb(255,255,255)" result="result5" surfaceScale="4">
    <feDistantLight azimuth="235" elevation="45"/>
   </feDiffuseLighting>
   <feComposite in="result5" in2="SourceGraphic" k1="1.4" operator="arithmetic" result="fbSourceGraphic"/>
   <feGaussianBlur in="fbSourceGraphic" result="result0" stdDeviation="6"/>
   <feSpecularLighting lighting-color="rgb(255,255,255)" in="result0" result="result1" specularExponent="25" surfaceScale="4">
    <feDistantLight azimuth="235" elevation="45"/>
   </feSpecularLighting>
   <feComposite in="fbSourceGraphic" in2="result1" k2="1" k3="1" operator="arithmetic" result="result4"/>
   <feComposite in="result4" in2="SourceGraphic" operator="in" result="result2"/>
  </filter>
  <filter id="filter26256" x="-3.574" y="-2.5441" width="8.1481" height="6.0881" color-interpolation-filters="sRGB">
   <feGaussianBlur in="SourceGraphic" result="result0" stdDeviation="6"/>
   <feDiffuseLighting lighting-color="rgb(255,255,255)" result="result5" surfaceScale="4">
    <feDistantLight azimuth="235" elevation="45"/>
   </feDiffuseLighting>
   <feComposite in="result5" in2="SourceGraphic" k1="1.4" operator="arithmetic" result="fbSourceGraphic"/>
   <feGaussianBlur in="fbSourceGraphic" result="result0" stdDeviation="6"/>
   <feSpecularLighting lighting-color="rgb(255,255,255)" in="result0" result="result1" specularExponent="25" surfaceScale="4">
    <feDistantLight azimuth="235" elevation="45"/>
   </feSpecularLighting>
   <feComposite in="fbSourceGraphic" in2="result1" k2="1" k3="1" operator="arithmetic" result="result4"/>
   <feComposite in="result4" in2="SourceGraphic" operator="in" result="result2"/>
  </filter>
 </defs>
 <g transform="matrix(1.3333 0 0 -1.3333 0 800)" fill-opacity=".64">
  <g transform="matrix(1.2109 0 0 1.6881 -60.115 -215.42)" fill="#f60" filter="url(#filter26076)">
   <g clip-path="url(#clipPath23792)" fill="#f60" fill-opacity=".64">
    <g transform="translate(296.95 165.06)">
     <path d="m0 0c-1.46 0-2.912 0.381-4.19 1.121l-13.338 7.892c-1.991 1.114-1.019 1.509-0.362 1.738 2.657 0.922 3.195 1.135 6.031 2.743 0.295 0.167 0.687 0.103 0.992-0.076l10.247-6.083c0.371-0.206 0.895-0.206 1.237 0l39.95 23.058c0.372 0.212 0.61 0.64 0.61 1.081v46.104c0 0.451-0.238 0.872-0.62 1.101l-39.933 23.038c-0.369 0.216-0.859 0.216-1.231 0l-39.923-23.045c-0.388-0.222-0.634-0.657-0.634-1.094v-46.104c0-0.441 0.246-0.859 0.63-1.068l10.944-6.323c5.938-2.969 9.574 0.528 9.574 4.041v45.519c0 0.644 0.517 1.151 1.161 1.151h5.065c0.634 0 1.158-0.507 1.158-1.151v-45.519c0-7.925-4.316-12.47-11.829-12.47-2.309 0-4.127 0-9.202 2.501l-10.476 6.031c-2.588 1.496-4.19 4.293-4.19 7.288v46.104c0 2.995 1.602 5.792 4.19 7.281l39.949 23.085c2.528 1.429 5.888 1.429 8.396 0l39.947-23.085c2.587-1.496 4.196-4.286 4.196-7.281v-46.104c0-2.995-1.609-5.782-4.196-7.288l-39.947-23.065c-1.277-0.74-2.726-1.121-4.206-1.121" fill="#f60" fill-opacity=".64"/>
    </g>
    <g transform="translate(309.29 196.82)">
     <path d="m0 0c-17.482 0-21.144 8.024-21.144 14.755 0 0.64 0.514 1.151 1.154 1.151h5.165c0.577 0 1.058-0.415 1.148-0.978 0.78-5.258 3.105-7.912 13.677-7.912 8.416 0 11.999 1.904 11.999 6.369 0 2.574-1.016 4.485-14.095 5.766-10.931 1.081-17.692 3.496-17.692 12.24 0 8.061 6.794 12.868 18.186 12.868 12.798 0 19.131-4.442 19.933-13.972 0.03-0.329-0.086-0.644-0.305-0.889-0.219-0.229-0.524-0.369-0.846-0.369h-5.185c-0.537 0-1.012 0.382-1.121 0.903-1.244 5.533-4.269 7.301-12.476 7.301-9.189 0-10.257-3.201-10.257-5.6 0-2.906 1.26-3.751 13.667-5.393 12.277-1.623 18.109-3.921 18.109-12.55 0-8.704-7.258-13.69-19.917-13.69" fill="#f60" fill-opacity=".64"/>
    </g>
    <g transform="translate(357.94 245.7)">
     <path d="m0 0h1.343c1.098 0 1.304 0.773 1.304 1.221 0 1.183-0.816 1.183-1.264 1.183h-1.383zm-1.632 3.789h2.975c1.019 0 3.016 0 3.016-2.283 0-1.589-1.019-1.914-1.632-2.118 1.184-0.081 1.264-0.856 1.426-1.955 0.083-0.692 0.206-1.875 0.448-2.281h-1.831c-0.043 0.406-0.329 2.607-0.329 2.728-0.119 0.49-0.285 0.733-0.895 0.733h-1.506v-3.461h-1.672zm-3.563-4.298c0-3.586 2.893-6.479 6.436-6.479 3.586 0 6.478 2.954 6.478 6.479 0 3.584-2.932 6.436-6.478 6.436-3.503 0-6.436-2.81-6.436-6.436m14.155-0.022c0-4.236-3.464-7.699-7.699-7.699-4.197 0-7.7 3.422-7.7 7.699 0 4.359 3.586 7.701 7.7 7.701 4.156 0 7.699-3.342 7.699-7.701" fill="#f60" fill-opacity=".64"/>
    </g>
    <g transform="translate(173.24 345.43)">
     <path d="m0 0c0 1.841-0.969 3.533-2.558 4.445l-42.355 24.375c-0.716 0.422-1.519 0.641-2.331 0.674h-0.438c-0.81-0.033-1.612-0.252-2.339-0.674l-42.355-24.375c-1.579-0.912-2.561-2.604-2.561-4.445l0.093-65.635c0-0.913 0.474-1.762 1.277-2.21 0.786-0.471 1.758-0.471 2.541 0l25.172 14.414c1.592 0.945 2.561 2.614 2.561 4.439v30.664c0 1.828 0.968 3.52 2.554 4.429l10.718 6.173c0.799 0.461 1.672 0.687 2.564 0.687 0.873 0 1.768-0.226 2.544-0.687l10.715-6.173c1.586-0.909 2.558-2.601 2.558-4.429v-30.664c0-1.825 0.982-3.504 2.564-4.439l25.165-14.414c0.789-0.471 1.775-0.471 2.557 0 0.78 0.448 1.271 1.297 1.271 2.21z" fill="#f60" fill-opacity=".64" fill-rule="evenodd"/>
    </g>
    <g transform="translate(373.11 311.26)">
     <path d="m0 0c0-0.456-0.244-0.879-0.64-1.106l-14.548-8.386c-0.395-0.227-0.882-0.227-1.277 0l-14.548 8.386c-0.397 0.227-0.64 0.65-0.64 1.106v16.799c0 0.456 0.243 0.879 0.639 1.108l14.547 8.402c0.397 0.229 0.884 0.229 1.281 0l14.547-8.402c0.395-0.229 0.639-0.652 0.639-1.108zm3.931 124.4c-0.793 0.44-1.76 0.431-2.543-0.029-0.781-0.459-1.262-1.299-1.262-2.206v-65c0-0.639-0.342-1.231-0.894-1.551-0.554-0.32-1.237-0.32-1.791 0l-10.609 6.112c-1.582 0.913-3.529 0.911-5.112-1e-3l-42.371-24.453c-1.584-0.914-2.559-2.603-2.559-4.431v-48.916c0-1.828 0.975-3.516 2.557-4.432l42.37-24.471c1.584-0.914 3.534-0.914 5.118 0l42.377 24.471c1.582 0.916 2.558 2.604 2.558 4.432v121.94c0 1.854-1.004 3.564-2.624 4.468z" fill="#f60" fill-opacity=".64" fill-rule="evenodd"/>
    </g>
    <g transform="translate(518.13 328.5)">
     <path d="m0 0c1.576 0.915 2.546 2.601 2.546 4.424v11.854c0 1.823-0.97 3.51-2.548 4.425l-42.099 24.443c-1.584 0.921-3.539 0.922-5.127 7e-3l-42.356-24.453c-1.583-0.914-2.558-2.602-2.558-4.43v-48.903c0-1.84 0.987-3.537 2.584-4.446l42.093-23.985c1.552-0.886 3.455-0.896 5.017-0.028l25.46 14.151c0.808 0.45 1.311 1.297 1.316 2.219 6e-3 0.923-0.485 1.777-1.284 2.236l-42.625 24.465c-0.796 0.456-1.286 1.304-1.286 2.219v15.326c0 0.914 0.488 1.76 1.281 2.216l13.266 7.648c0.789 0.456 1.764 0.456 2.554 0l13.272-7.648c0.793-0.456 1.28-1.302 1.28-2.216v-12.058c0-0.916 0.49-1.762 1.283-2.218 0.793-0.458 1.77-0.454 2.561 5e-3z" fill="#f60" fill-opacity=".64" fill-rule="evenodd"/>
    </g>
    <g transform="translate(472.84 330.79)">
     <path d="m0 0c0.304 0.176 0.678 0.176 0.982 0l8.13-4.69c0.304-0.176 0.491-0.5 0.491-0.851v-9.388c0-0.352-0.187-0.675-0.491-0.851l-8.13-4.691c-0.304-0.176-0.678-0.176-0.982 0l-8.124 4.691c-0.304 0.176-0.491 0.499-0.491 0.851v9.388c0 0.351 0.187 0.675 0.491 0.851z" fill="#f60" fill-opacity=".64" fill-rule="evenodd"/>
    </g>
   </g>
  </g>
  <g transform="matrix(1.2109 0 0 1.6881 -60.115 -215.42)" fill="#ff7315" filter="url(#filter26096)">
   <g clip-path="url(#clipPath23828)" fill="#ff7315" fill-opacity=".64">
    <path d="m239.03 373.39-42.134-24.315c-1.576-0.909-2.545-2.588-2.545-4.407v-48.666c0-1.818 0.969-3.497 2.544-4.408l42.133-24.334c1.576-0.909 3.516-0.909 5.091 0l42.124 24.334c1.574 0.911 2.543 2.59 2.543 4.408v48.668c0 1.817-0.969 3.496-2.545 4.405l-42.123 24.315c-0.787 0.454-1.666 0.682-2.544 0.682-0.879 0-1.757-0.228-2.544-0.682" fill="#ff7315" fill-opacity=".64"/>
   </g>
  </g>
  <g fill="#c77138">
   <path transform="matrix(.90816 0 0 -1.2661 -60.115 797.47)" d="m444.92 428.11c-15.771-9.1546-29.211-17.372-29.869-18.261-1.7242-2.3329-1.7242-69.981 0-72.189 1.7924-2.2952 59.2-35.151 61.41-35.146 1.0514 2e-3 5.2724 1.924 9.3801 4.2704s7.9786 4.3296 8.6022 4.4072c3.5506 0.44198 3.498 1.0742 3.7528-45.143 0.21982-39.888 0.42189-45.167 1.7614-46.012 1.1647-0.73455 5.5658 1.2956 19.116 8.8178 9.6815 5.3746 18.14 10.463 18.798 11.308 0.93502 1.2019 1.1947 19.748 1.1947 85.315 0 78.601-0.10338 83.869-1.6726 85.227-0.91995 0.79614-14.459 8.8198-30.086 17.83-19.135 11.033-29.279 16.356-31.063 16.301-1.5911-0.049-14.109-6.7334-31.324-16.726zm42.921-35.886 10.126-5.8601v-25.23l-10.448-5.9804c-5.7466-3.2892-11.015-5.8357-11.708-5.6588-0.69305 0.17689-5.6687 2.8401-11.057 5.9183l-9.7969 5.5966v25.455l9.7969 5.7244c5.3883 3.1484 10.509 5.7628 11.379 5.8096 0.87038 0.0468 6.1392-2.5519 11.708-5.775z" filter="url(#filter26116)"/>
   <path transform="matrix(.90816 0 0 -1.2661 -60.115 797.47)" d="m600.24 427.22c-16.033-9.1786-29.689-17.42-30.346-18.314-1.7242-2.3455-1.7242-69.993 0-72.19 1.7306-2.2058 59.265-35.163 61.386-35.163 2.4391 0 57.795 32.041 60.478 35.006 1.9233 2.1253 2.1505 3.3696 2.1505 11.775 0 7.575-0.32456 9.7752-1.6726 11.339-2.6329 3.0534-36.345 22.189-37.983 21.56-1.1499-0.44124-1.4432-2.4387-1.4432-9.8268 0-5.9786-0.42446-9.8077-1.1948-10.778-1.4104-1.7766-19.144-12.242-20.744-12.242-1.6737 0-19.47 10.412-20.833 12.189-1.6422 2.141-1.6422 22.208 0 24.419 0.65711 0.88468 14.098 9.0314 29.869 18.104 21.077 12.125 28.744 17.002 28.94 18.407 0.21918 1.5756-2.98 3.7172-18.204 12.186-10.158 5.6511-19.095 10.262-19.86 10.246-0.76434-0.016-14.508-7.5388-30.541-16.717z" filter="url(#filter26136)"/>
   <path transform="matrix(.90816 0 0 -1.2661 -60.115 797.47)" d="m625.09 382.5-5.2569-3.1581-0.27623-6.646-0.27622-6.646 11.923-6.8729 4.8284 2.8315c7.2523 4.2529 7.2179 4.2014 7.2179 10.802v6.0264l-5.6208 3.4145c-3.0915 1.878-5.9947 3.4127-6.4516 3.4105-0.45692-2e-3 -3.1964-1.4251-6.0876-3.1621z" filter="url(#filter26156)" stroke-width=".9558"/>
   <path transform="matrix(.90816 0 0 -1.2661 -60.115 797.47)" d="m105.77 428.99c-0.35046-0.35045-0.63719-21.128-0.63719-46.173 0-34.985 0.27683-45.887 1.1947-47.049 1.6064-2.0334 59.458-35.173 61.402-35.173 1.7524 0 57.952 32.082 60.774 34.693 1.7963 1.6621 1.849 3.2263 1.609 47.777-0.22706 42.155-0.38342 46.084-1.8451 46.366-2.0862 0.40159-36.847-19.504-38.079-21.806-0.547-1.0221-0.94571-11.263-0.94571-24.291 0-26.197 1.0012-23.617-11.894-30.646-6.2056-3.3827-8.9523-4.387-10.921-3.9932-3.1718 0.63437-17.322 8.7847-19.001 10.944-0.87788 1.1293-1.1947 7.4621-1.1947 23.878 0 12.908-0.39933 23.087-0.94571 24.108-1.0038 1.8756-35.383 22.002-37.583 22.002-0.71265 0-1.5825-0.28674-1.9329-0.6372z" filter="url(#filter26176)"/>
   <g stroke-width=".9558">
    <path transform="matrix(.90816 0 0 -1.2661 -60.115 797.47)" d="m397.82 534.87c-7.8093-2.6975-12.079-7.5258-12.774-14.446l-0.33556-3.3406h4.2158c3.9534 0 4.2848 0.20489 5.3244 3.2925 0.60972 1.8109 2.1671 4.0828 3.4608 5.0488 3.5202 2.6282 14.11 4.0014 21.212 2.7505 6.745-1.1881 9.378-3.3067 9.5986-7.7234 0.25233-5.0519-2.8564-6.6166-17.274-8.6945-14.191-2.0453-16.9-2.8876-20.579-6.3976-8.1075-7.7347-3.5764-21.046 8.3898-24.648 5.9276-1.7839 17.926-1.7714 23.975 0.025 6.803 2.0203 12.209 8.0144 12.953 14.363 0.32601 2.7801 0.20434 2.876-3.9959 3.1502-4.1991 0.27415-4.3705 0.17671-5.5816-3.1726-2.0924-5.7863-5.6641-7.2833-16.585-6.951-7.817 0.23786-9.5862 0.58665-11.131 2.1944-2.8133 2.9286-3.2695 5.6594-1.3414 8.0295 1.3878 1.706 4.1848 2.5113 15.444 4.4469 19.96 3.4311 23.935 5.6291 25.481 14.088 0.85987 4.704-1.5945 11.27-5.4143 14.484-1.5642 1.3162-5.0522 3.0489-7.7512 3.8504-6.8916 2.0466-20.874 1.8674-27.293-0.34977z" filter="url(#filter26196)"/>
    <path transform="matrix(.90816 0 0 -1.2661 -60.115 797.47)" d="m391.4 578.24c-8.5802-4.5476-19.478-11.453-18.866-11.955 0.38801-0.31756 2.4629-1.3352 4.6109-2.2615l3.9055-1.6841 7.2919 4.427c6.4389 3.9091 7.5473 4.2926 9.4756 3.2779 1.2011-0.63199 13.689-7.791 27.751-15.909l25.568-14.76v-64.388l-26.514-15.27c-14.582-8.3984-27.378-15.368-28.435-15.487-1.0568-0.11938-13.964 6.7657-28.684 15.3l-26.762 15.517-0.25217 31.42c-0.18243 22.731 0.0539 31.789 0.8547 32.754 1.2711 1.5316 15.5 9.3555 18.823 10.35 2.661 0.79649 7.369-0.97282 8.463-3.1805 0.43204-0.87182 1.0006-15.994 1.2634-33.604l0.4779-32.019h7.6464l0.25135 33.228c0.24197 31.988 0.17747 33.372-1.7287 37.109-2.3307 4.5686-7.7933 7.5073-14.015 7.5398-4.0391 0.0211-14.183-4.5566-24.007-10.834-6.7712-4.3266-6.8565-4.8359-6.8565-40.981 0-28.847 0.16139-32.127 1.7241-35.04 1.4303-2.6669 6.601-6.0398 30.346-19.795 22.37-12.958 29.371-16.585 32.051-16.603 3.436-0.0231 3.8061 0.17504 49.367 26.43 5.9073 3.4042 11.606 7.2899 12.664 8.635 1.8455 2.3462 1.9236 3.822 1.9236 36.339 0 29.902-0.18736 34.21-1.5912 36.587-1.1362 1.9234-9.6922 7.3596-29.922 19.011-15.582 8.9746-29.597 16.554-31.145 16.842-1.681 0.31333-3.9686-0.0874-5.6814-0.99523z" filter="url(#filter26216)"/>
   </g>
   <g stroke-width=".16896">
    <path transform="matrix(.90816 0 0 -1.2661 -60.115 797.47)" d="m476.81 483.06c-1.722-0.38892-3.425-1.3209-4.7924-2.6228-2.1572-2.0539-3.1909-4.3358-3.2135-7.0937-7e-3 -0.88283 0.0887-2.0233 0.21319-2.5344 1.0861-4.4596 5.2367-7.8002 9.7358-7.8359 1.8063-0.0143 2.9618 0.23953 4.562 1.0023 5.3682 2.5588 7.3766 9.1307 4.3552 14.251-2.1888 3.7095-6.7833 5.7543-10.86 4.8335zm4.9708-1.765c3.2167-1.1247 5.4947-4.0913 5.7858-7.5348 0.38513-4.5561-2.8844-8.5766-7.5157-9.242-2.5238-0.3626-5.0741 0.4342-6.9508 2.1717-1.7592 1.6287-2.6427 3.4487-2.8199 5.8088-0.30798 4.1021 2.5482 8.0315 6.5886 9.0644 1.2052 0.30808 3.645 0.17493 4.912-0.26809z" filter="url(#filter26236)"/>
    <path transform="matrix(.90816 0 0 -1.2661 -60.115 797.47)" d="m475.12 473.09v-5.6602l2.5767 9.4e-4c1.4172 5.2e-4 2.869 0.0821 3.2262 0.18131 0.97962 0.27202 1.7765 1.101 1.9362 2.0143 0.27156 1.5526-0.18131 2.6278-1.3633 3.2366l-0.71562 0.36861 0.55557 0.14695c0.71575 0.18932 1.1692 0.93184 1.313 2.1504 0.0611 0.51724 0.20514 1.4537 0.32013 2.0809l0.20908 1.1405h-2.1291l-0.0922-0.54913c-0.0507-0.30202-0.16762-1.1888-0.25981-1.9706-0.22688-1.924-0.35078-2.0423-2.1394-2.0423h-1.41v4.562h-2.0276zm5.0175-0.92186c0.59963-0.36562 0.84245-1.1258 0.64572-2.0216-0.17885-0.81429-0.6425-1.0272-2.237-1.0272h-1.3986v3.3792l1.225-6.3e-4c0.916-4.7e-4 1.3612-0.0837 1.7649-0.32987z" filter="url(#filter26256)"/>
   </g>
  </g>
 </g>
</svg>
