<svg width="438.86" height="438.86" version="1.1" viewBox="0 0 438.86 438.86" xmlns="http://www.w3.org/2000/svg">
 <defs>
  <filter id="filter8561" x="-.06594" y="-.065861" width="1.1319" height="1.1317" color-interpolation-filters="sRGB">
   <feGaussianBlur in="SourceGraphic" result="result0" stdDeviation="6"/>
   <feDiffuseLighting lighting-color="rgb(255,255,255)" result="result5" surfaceScale="4">
    <feDistantLight azimuth="235" elevation="45"/>
   </feDiffuseLighting>
   <feComposite in="result5" in2="SourceGraphic" k1="1.4" operator="arithmetic" result="fbSourceGraphic"/>
   <feGaussianBlur in="fbSourceGraphic" result="result0" stdDeviation="6"/>
   <feSpecularLighting lighting-color="rgb(255,255,255)" in="result0" result="result1" specularExponent="25" surfaceScale="4">
    <feDistantLight azimuth="235" elevation="45"/>
   </feSpecularLighting>
   <feComposite in="fbSourceGraphic" in2="result1" k2="1" k3="1" operator="arithmetic" result="result4"/>
   <feComposite in="result4" in2="SourceGraphic" operator="in" result="result2"/>
  </filter>
 </defs>
 <path d="m213.16 437.07c-0.16313-0.26395-2.068-0.64591-4.2331-0.8488-2.1651-0.20288-4.0552-0.56092-4.2002-0.79565s-2.1472-0.59107-4.4492-0.79188c-2.302-0.2008-4.1854-0.57057-4.1854-0.82171s-0.94378-0.45662-2.0973-0.45662c-1.1535 0-2.0973-0.21138-2.0973-0.46975 0-0.25836-1.8876-0.63684-4.1946-0.84105-2.307-0.20422-4.1946-0.5827-4.1946-0.84106s-0.92985-0.46975-2.0663-0.46975-2.1969-0.21127-2.3565-0.46949c-0.15959-0.25821-2.179-0.63669-4.4877-0.84105s-4.1975-0.58296-4.1975-0.84131c0-0.25837-0.92985-0.46975-2.0663-0.46975-1.1365 0-2.1998-0.21597-2.363-0.47992-0.16313-0.26395-2.0646-0.64559-4.2255-0.84808s-3.9289-0.55522-3.9289-0.78383c0-0.2286-2.0055-0.58271-4.4567-0.78689s-4.4567-0.57928-4.4567-0.83355-0.94378-0.46231-2.0973-0.46231c-1.1535 0-2.0973-0.21138-2.0973-0.46975 0-0.25836-1.8876-0.63683-4.1946-0.84105s-4.1946-0.5827-4.1946-0.84105c0-0.25837-0.92985-0.46976-2.0663-0.46976s-2.2024-0.22008-2.3686-0.48908c-0.16625-0.269-2.1857-0.65339-4.4877-0.85419s-4.1854-0.54682-4.1854-0.76892-1.0028-0.53577-2.2284-0.69704c-5.184-0.68212-10.111-1.6123-10.355-1.9548-0.14419-0.20249-2.0941-0.53914-4.3332-0.74813s-4.1996-0.58788-4.3566-0.84198c-0.15705-0.25411-1.2154-0.46202-2.3519-0.46202s-2.0663-0.21138-2.0663-0.46975c0-0.25836-1.8876-0.63683-4.1946-0.84105s-4.1946-0.58269-4.1946-0.84105c0-0.25837-0.92985-0.46975-2.0663-0.46975s-2.1998-0.21597-2.363-0.47992c-0.16313-0.26395-2.068-0.64591-4.2331-0.84879s-4.065-0.57678-4.222-0.83089c-0.15704-0.25411-0.96793-0.46201-1.802-0.46201-0.83404 0-2.8752-0.35392-4.5359-0.78648-1.6607-0.43257-3.7957-0.78649-4.7445-0.78649-0.94873 0-1.725-0.21138-1.725-0.46975 0-0.25836-1.8876-0.63683-4.1946-0.84105s-4.1946-0.58269-4.1946-0.84105c0-0.25837-1.0618-0.46975-2.3594-0.46975s-2.3594-0.21139-2.3594-0.46975-1.8876-0.63684-4.1946-0.84106-4.1946-0.58269-4.1946-0.84105c0-0.25837-0.92985-0.46975-2.0663-0.46975-1.1365 0-2.2122-0.23595-2.3904-0.52432-0.17823-0.28838-0.78201-0.52432-1.3417-0.52432-0.88403 0-1.0177-0.37878-1.0177-2.8838 0-1.5861-0.20579-2.8838-0.45732-2.8838s-0.63062-4.0546-0.84244-9.0102-0.57873-9.3796-0.81538-9.831c-0.37517-0.71575-0.95337-7.7915-1.8666-22.842-0.13998-2.307-0.41024-4.5485-0.60058-4.981-0.31187-0.70876-1.2694-11.836-2.03-23.592-0.1585-2.4496-0.47914-4.6911-0.71253-4.981s-0.59548-4.6002-0.80465-9.5781c-0.20917-4.978-0.58911-9.1799-0.8443-9.3377-0.2552-0.15772-0.464-2.2644-0.464-4.6816s-0.20559-4.5219-0.45686-4.6772c-0.25127-0.15529-0.62964-4.3572-0.84081-9.3376-0.21118-4.9804-0.53647-9.2912-0.72287-9.5796-0.29978-0.46379-1.1795-10.868-1.9506-23.07-0.14579-2.307-0.4225-4.5485-0.6149-4.981-0.31643-0.71143-1.2929-12.06-2.0298-23.592-0.15655-2.4496-0.47792-4.6911-0.71416-4.9811-0.23624-0.28999-0.60134-4.5973-0.81133-9.5718s-0.55261-9.0446-0.76137-9.0446-0.54281-3.4802-0.74234-7.7337c-0.19953-4.2536-0.58281-8.6775-0.85173-9.831s-0.49458-4.0438-0.50145-6.4229c-7e-3 -2.3791-0.21977-4.3256-0.47309-4.3256s-0.63267-4.1308-0.84301-9.1796-0.59294-9.3097-0.85022-9.4687c-0.25729-0.15901-0.4678-2.3987-0.4678-4.9771s-0.20726-4.688-0.46058-4.688-0.63267-4.1308-0.84301-9.1796c-0.21033-5.0488-0.59293-9.3097-0.85022-9.4687s-0.4678-2.3987-0.4678-4.9771-0.20879-4.688-0.46398-4.688-0.63626-4.247-0.84682-9.4378-0.5588-9.4378-0.77386-9.4378-0.56182-3.8124-0.77058-8.4719c-0.20876-4.6596-0.59551-9.0399-0.85944-9.7341s-0.47988-3.2523-0.47988-5.6848c0-2.4324-0.20726-4.4226-0.46058-4.4226s-0.63267-4.1308-0.84301-9.1796c-0.21033-5.0488-0.59293-9.3097-0.85022-9.4687-0.25729-0.15901-0.4678-2.3987-0.4678-4.9771s-0.20726-4.688-0.46058-4.688-0.63267-4.1308-0.84301-9.1796-0.59294-9.3097-0.85022-9.4687c-0.25729-0.15901-0.4678-2.3987-0.4678-4.9771 0-2.7758-0.21387-4.688-0.52432-4.688-0.30842 0-0.52432-1.8351-0.52432-4.4567v-4.4567h436.76v4.4567c0 2.6216-0.21589 4.4567-0.52432 4.4567-0.31045 0-0.52432 1.9122-0.52432 4.688 0 2.5784-0.21051 4.8181-0.46779 4.9771-0.25729 0.15901-0.63989 4.4199-0.85023 9.4687-0.21033 5.0488-0.58969 9.1796-0.84301 9.1796s-0.46058 2.1096-0.46058 4.688-0.21051 4.8181-0.46779 4.9771c-0.25729 0.15901-0.63989 4.4199-0.85023 9.4687-0.21033 5.0488-0.58968 9.1796-0.843 9.1796-0.25333 0-0.46622 1.9465-0.47309 4.3257-7e-3 2.3791-0.23254 5.2694-0.50146 6.4229s-0.6522 5.5775-0.85173 9.831c-0.19953 4.2536-0.53659 7.7337-0.74901 7.7337s-0.5585 4.247-0.76906 9.4378c-0.21057 5.1908-0.59164 9.4378-0.84683 9.4378s-0.46398 2.1096-0.46398 4.688-0.21051 4.818-0.46779 4.9771c-0.25729 0.15901-0.63989 4.4199-0.85023 9.4687-0.21033 5.0488-0.58968 9.1796-0.84301 9.1796-0.25332 0-0.46057 2.1096-0.46057 4.688s-0.21051 4.818-0.4678 4.9771c-0.25729 0.15902-0.63989 4.42-0.85022 9.4687-0.21034 5.0488-0.58969 9.1796-0.84301 9.1796s-0.46263 1.7106-0.46514 3.8013c-3e-3 2.0907-0.35437 6.7506-0.78193 10.355-0.42755 3.6047-0.77941 8.2646-0.78192 10.355-3e-3 2.0907-0.21035 3.8013-0.46188 3.8013-0.25152 0-0.62912 4.07-0.83912 9.0446-0.20999 4.9745-0.57509 9.2818-0.81133 9.5718-0.23623 0.28999-0.55761 2.5315-0.71415 4.9811-0.73695 11.531-1.7134 22.88-2.0298 23.592-0.19239 0.43257-0.4691 2.674-0.61489 4.981-0.77111 12.202-1.6508 22.606-1.9506 23.07-0.1864 0.28838-0.51169 4.5992-0.72287 9.5796-0.21117 4.9804-0.58954 9.1824-0.84081 9.3376-0.25127 0.1553-0.45686 2.26-0.45686 4.6772s-0.2088 4.5239-0.46399 4.6816c-0.2552 0.15772-0.63514 4.3597-0.84431 9.3377s-0.57126 9.2881-0.80465 9.5781c-0.23338 0.28999-0.55402 2.5315-0.71253 4.981-0.76065 11.755-1.7182 22.883-2.03 23.592-0.19034 0.43256-0.4606 2.674-0.60058 4.981-0.91321 15.051-1.4914 22.127-1.8666 22.842-0.23665 0.45146-0.60378 4.8803-0.81584 9.8418-0.21207 4.9615-0.59117 9.148-0.84244 9.3033s-0.45685 1.4482-0.45685 2.873c0 2.2149-0.14763 2.5907-1.0177 2.5907-0.55974 0-1.1635 0.23594-1.3418 0.52432-0.17823 0.28837-1.2539 0.52432-2.3904 0.52432s-2.0663 0.21138-2.0663 0.46975c0 0.25836-1.8876 0.63683-4.1946 0.84105s-4.1946 0.5827-4.1946 0.84106-0.92985 0.46975-2.0663 0.46975-2.1969 0.21127-2.3565 0.46948c-0.15958 0.25822-2.179 0.6367-4.4877 0.84106s-4.1975 0.58295-4.1975 0.84131c0 0.25837-0.77624 0.46975-1.725 0.46975-0.94874 0-3.0838 0.35392-4.7445 0.78649-1.6607 0.43256-3.7158 0.78648-4.5669 0.78648-0.85107 0-1.5474 0.20548-1.5474 0.45661 0 0.25115-1.8834 0.62092-4.1854 0.82172-2.302 0.20081-4.3214 0.58519-4.4877 0.85419-0.16625 0.269-1.2321 0.48909-2.3686 0.48909s-2.0663 0.21138-2.0663 0.46975c0 0.25836-1.8876 0.63683-4.1946 0.84105s-4.1946 0.58269-4.1946 0.84105c0 0.25837-0.92985 0.46975-2.0663 0.46975s-2.1948 0.20791-2.3519 0.46202c-0.15705 0.2541-2.1175 0.63299-4.3566 0.84198s-4.189 0.54564-4.3332 0.74813c-0.24391 0.34252-5.1713 1.2727-10.355 1.9548-1.2256 0.16127-2.2284 0.47494-2.2284 0.69704s-1.8834 0.56812-4.1854 0.76892-4.3214 0.58519-4.4877 0.85419-1.2321 0.48908-2.3686 0.48908-2.0664 0.21139-2.0664 0.46976c0 0.25835-1.8876 0.63683-4.1946 0.84105s-4.1946 0.58269-4.1946 0.84105c0 0.25837-0.94378 0.46975-2.0973 0.46975-1.1535 0-2.0973 0.20804-2.0973 0.46231s-2.0055 0.62937-4.4567 0.83355-4.4567 0.55829-4.4567 0.78689c0 0.22861-1.768 0.58134-3.9289 0.78383s-4.0624 0.58413-4.2255 0.84808c-0.16313 0.26395-1.2265 0.47992-2.363 0.47992s-2.0663 0.21138-2.0663 0.46975c0 0.25835-1.8889 0.63695-4.1975 0.84131s-4.3281 0.58284-4.4877 0.84105c-0.15959 0.25822-1.22 0.46949-2.3565 0.46949s-2.0664 0.21139-2.0664 0.46975-1.8876 0.63684-4.1946 0.84106c-2.307 0.20421-4.1946 0.58269-4.1946 0.84105 0 0.25837-0.94378 0.46975-2.0973 0.46975-1.1535 0-2.0973 0.20548-2.0973 0.45662s-1.8834 0.62091-4.1854 0.82171c-2.302 0.20081-4.3041 0.55715-4.4492 0.79188s-2.0352 0.59277-4.2002 0.79565c-2.1651 0.20289-4.0699 0.58485-4.2331 0.8488-0.16313 0.26395-2.0383 0.47991-4.1671 0.47991s-4.004-0.21596-4.1671-0.47991zm-13.398-220v-144.45h-37.751v242.16l-3.0148-0.30319c-1.6582-0.16675-3.0935-0.50362-3.1896-0.7486-0.0961-0.24497-1.085-0.44541-2.1974-0.44541s-2.1561-0.21596-2.3192-0.47991-2.068-0.64591-4.2331-0.8488c-2.1651-0.20288-4.065-0.57678-4.222-0.83088-0.15704-0.25411-1.0781-0.46201-2.0468-0.46201-2.7797 0-3.42-0.44648-3.42-2.3846 0-0.96145-0.23595-1.8939-0.52433-2.0721-0.28837-0.17823-0.52432-2.4336-0.52432-5.012s-0.20726-4.688-0.46058-4.688-0.63267-4.1308-0.84301-9.1796c-0.21033-5.0488-0.59293-9.3097-0.85022-9.4687s-0.4678-1.101-0.4678-2.0933v-1.8042h-38.176l0.25149 5.3743c0.13832 2.9559 0.44893 5.8462 0.69026 6.4229 0.38518 0.92055 0.98935 8.2791 1.9155 23.329 0.15074 2.4496 0.46502 4.6911 0.6984 4.9811 0.2334 0.28999 0.59549 4.6002 0.80465 9.5781 0.20918 4.978 0.58911 9.1799 0.84431 9.3377s0.464 2.2531 0.464 4.6564c0 4.9674-0.18603 4.7624 4.8146 5.3066 1.8218 0.19829 3.5484 0.54216 3.8367 0.76415 0.28838 0.222 2.3529 0.5729 4.5878 0.77977s4.0635 0.58436 4.0635 0.83885c0 0.2545 0.94378 0.46272 2.0973 0.46272 1.1535 0 2.0973 0.21139 2.0973 0.46975s1.8876 0.63684 4.1946 0.84105c2.307 0.20422 4.1946 0.5827 4.1946 0.84106s1.0618 0.46975 2.3594 0.46975c1.2977 0 2.3594 0.21138 2.3594 0.46975 0 0.25836 1.8876 0.63683 4.1946 0.84105s4.1946 0.55893 4.1946 0.78826c0 0.22932 1.0028 0.5489 2.2284 0.71017 4.2988 0.56565 10.098 1.6508 10.618 1.9867 0.28838 0.18653 2.3529 0.50918 4.5878 0.717s4.0635 0.58607 4.0635 0.84057c0 0.25449 0.94378 0.46272 2.0973 0.46272 1.1535 0 2.0973 0.21138 2.0973 0.46975 0 0.25836 1.8876 0.63683 4.1946 0.84105s4.1946 0.5827 4.1946 0.84106 0.92985 0.46975 2.0663 0.46975 2.1969 0.21127 2.3565 0.46948c0.15959 0.25822 2.179 0.6367 4.4877 0.84106s4.1975 0.58295 4.1975 0.84131c0 0.25837 0.88479 0.47337 1.9662 0.47778 1.0814 4e-3 2.3201 0.23675 2.7527 0.5163 0.43257 0.27954 1.4353 0.51187 2.2284 0.51629l1.4419 8e-3zm41.29 143.59c1.2256-0.15987 2.2284-0.4783 2.2284-0.70762 0-0.22933 1.8889-0.58416 4.1975-0.78852s4.3281-0.58284 4.4877-0.84106c0.15959-0.25821 1.22-0.46948 2.3565-0.46948s2.0663-0.21139 2.0663-0.46975 1.8876-0.63684 4.1946-0.84106 4.1946-0.58269 4.1946-0.84105c0-0.25837 0.94378-0.46975 2.0973-0.46975s2.0973-0.20823 2.0973-0.46272c0-0.2545 1.8286-0.63275 4.0635-0.84057s4.2994-0.53047 4.5878-0.717c0.51921-0.33585 6.3188-1.421 10.618-1.9867 1.2256-0.16127 2.2284-0.48085 2.2284-0.71017 0-0.22933 1.8889-0.58416 4.1975-0.78852s4.3281-0.58284 4.4877-0.84105c0.15959-0.25822 1.22-0.46949 2.3565-0.46949s2.0663-0.21139 2.0663-0.46975 1.8876-0.63684 4.1946-0.84106c2.307-0.20421 4.1946-0.58269 4.1946-0.84105s0.94377-0.46975 2.0973-0.46975 2.0973-0.20822 2.0973-0.46272c0-0.25449 1.8286-0.63198 4.0635-0.83885s4.2994-0.55777 4.5878-0.77977c0.28838-0.22199 2.0149-0.56586 3.8367-0.76415 5.0006-0.54426 4.8146-0.33923 4.8146-5.3066 0-2.4033 0.2088-4.4987 0.464-4.6564s0.63513-4.3597 0.8443-9.3377 0.57126-9.2881 0.80465-9.5781 0.54767-2.5315 0.6984-4.9811c0.96451-15.674 1.512-22.381 1.8853-23.094 0.2342-0.44755 0.59977-4.7574 0.81239-9.5775 0.21261-4.8201 0.59371-8.8918 0.84687-9.0482 0.25317-0.15646 0.46031-2.3801 0.46031-4.9415s0.21051-4.7871 0.46779-4.9461c0.25729-0.15901 0.63989-4.4199 0.85023-9.4687s0.58969-9.1796 0.84301-9.1796 0.46058-2.1096 0.46058-4.688 0.21051-4.818 0.46779-4.9771c0.25729-0.15901 0.63989-4.4199 0.85023-9.4687 0.21033-5.0488 0.58968-9.1796 0.84301-9.1796 0.25332 0 0.46058-2.3594 0.46058-5.2432v-5.2432h-72.881v-89.659h81.27v-1.8351c0-1.0093 0.23595-1.8351 0.52432-1.8351 0.30617 0 0.52953-1.7998 0.53683-4.3257 7e-3 -2.3791 0.23254-5.2694 0.50145-6.4229 0.26893-1.1535 0.65221-5.5775 0.85174-9.831 0.19953-4.2536 0.56374-7.7337 0.80935-7.7337s0.44656-1.2977 0.44656-2.8838v-2.8838h-122.69v166.21l68.948-8.1e-4 -0.18507 5.1125c-0.1018 2.8119-0.37005 5.2305-0.59613 5.3747s-0.58438 4.4502-0.79623 9.5689-0.59244 9.3067-0.84576 9.3067-0.46058 2.1096-0.46058 4.688-0.21051 4.818-0.46779 4.9771c-0.25729 0.15901-0.63989 4.4199-0.85023 9.4687-0.21033 5.0488-0.58968 9.1796-0.84301 9.1796-0.25332 0-0.46058 2.1096-0.46058 4.688s-0.23594 4.8338-0.52432 5.012c-0.28837 0.17823-0.52432 1.1084-0.52432 2.0671 0 1.8586-0.80528 2.3674-3.7704 2.3825-0.77602 4e-3 -1.5394 0.21506-1.6965 0.46917-0.15705 0.2541-2.057 0.628-4.222 0.83088-2.1651 0.20289-4.07 0.58485-4.2331 0.8488s-1.2265 0.47991-2.363 0.47991-2.0663 0.21139-2.0663 0.46975-1.8889 0.63695-4.1975 0.84132c-2.3086 0.20436-4.3281 0.58284-4.4877 0.84105-0.15958 0.25822-1.22 0.46949-2.3565 0.46949s-2.0663 0.20822-2.0663 0.46272-1.8286 0.63339-4.0635 0.84199c-2.2349 0.20859-4.1815 0.542-4.3257 0.74089-0.22785 0.31432-2.5252 0.74982-10.486 1.9879-1.0093 0.15695-2.0711 0.4647-2.3594 0.68388-0.28837 0.21918-2.1571 0.56821-4.1527 0.77563-6.0661 0.63051-5.5472-1.3251-5.5472 20.907v19.331l1.9662-0.3438c1.0814-0.1891 2.969-0.47462 4.1946-0.63449z" fill="#f60" fill-opacity=".64" filter="url(#filter8561)" stroke-width=".52432"/>
</svg>
