<svg width="546.13" height="546.13" version="1.1" viewBox="0 0 546.13 546.13" xmlns="http://www.w3.org/2000/svg">
 <defs>
  <filter id="filter9816" x="-.052734" y="-.069402" width="1.1055" height="1.1388" color-interpolation-filters="sRGB">
   <feGaussianBlur in="SourceGraphic" result="result0" stdDeviation="6"/>
   <feDiffuseLighting lighting-color="rgb(255,255,255)" result="result5" surfaceScale="4">
    <feDistantLight azimuth="235" elevation="45"/>
   </feDiffuseLighting>
   <feComposite in="result5" in2="SourceGraphic" k1="1.4" operator="arithmetic" result="fbSourceGraphic"/>
   <feGaussianBlur in="fbSourceGraphic" result="result0" stdDeviation="6"/>
   <feSpecularLighting lighting-color="rgb(255,255,255)" in="result0" result="result1" specularExponent="25" surfaceScale="4">
    <feDistantLight azimuth="235" elevation="45"/>
   </feSpecularLighting>
   <feComposite in="fbSourceGraphic" in2="result1" k2="1" k3="1" operator="arithmetic" result="result4"/>
   <feComposite in="result4" in2="SourceGraphic" operator="in" result="result2"/>
  </filter>
 </defs>
 <path d="m48.009 479.99c-0.19376-0.3135-2.8601-0.70163-5.9252-0.86251-3.0651-0.16088-5.9188-0.63842-6.3416-1.0612-0.42279-0.42279-1.4267-0.76871-2.2309-0.76871-0.80422 0-1.6297-0.27103-1.8345-0.60229-0.20473-0.33126-1.2497-0.79501-2.3222-1.0306-1.0725-0.23555-1.95-0.66589-1.95-0.95631s-0.95818-0.70779-2.1293-0.92749-2.6803-1.1332-3.3538-2.0301c-0.6735-0.89684-1.5012-1.6306-1.8393-1.6306-0.75469 0-8.9898-8.0446-8.9898-8.7819 0-0.29126-0.73405-1.2098-1.6312-2.0413-0.89717-0.83148-1.6312-1.8475-1.6312-2.2579 0-0.8265-2.0207-4.6641-2.7424-5.2082-0.25228-0.19018-0.65788-1.5914-0.90132-3.1138-0.24344-1.5224-0.69767-2.9256-1.0094-3.1183s-0.56678-1.067-0.56678-1.943c0-0.876-0.29362-1.5927-0.65249-1.5927-0.37285 0-0.65249-1.9575-0.65249-4.5674s-0.27964-4.5674-0.65249-4.5674c-0.43322 0-0.65249-53.722-0.65249-159.86s0.21927-159.86 0.65249-159.86c0.37285 0 0.65249-1.9575 0.65249-4.5674 0-2.5121 0.26029-4.5674 0.57843-4.5674 0.31814 0 0.73458-0.80746 0.92543-1.7944 0.74433-3.849 1.8544-7.6505 2.3293-7.9769 0.27392-0.18826 1.1372-1.6803 1.9183-3.3156 0.78116-1.6353 2.0088-3.605 2.7281-4.377 0.71929-0.77206 1.3078-1.6146 1.3078-1.8723 0-0.69496 8.2734-8.7209 8.9898-8.7209 0.33813 0 1.1658-0.73378 1.8393-1.6306s2.1827-1.8104 3.3538-2.0301c1.1711-0.2197 2.1293-0.63707 2.1293-0.92749s0.88086-0.7215 1.9575-0.95796c1.0766-0.23646 1.9575-0.70022 1.9575-1.0306s0.82214-0.60065 1.827-0.60065 2.1729-0.34592 2.5957-0.76871c0.42279-0.42279 3.2765-0.90033 6.3416-1.0612 3.0651-0.16088 5.7314-0.54901 5.9252-0.86251 0.46499-0.75238 449.65-0.75238 450.12 0 0.19375 0.31351 2.8601 0.70164 5.9252 0.86251 3.0651 0.16088 5.9188 0.63842 6.3416 1.0612s1.4267 0.76871 2.2309 0.76871c0.80422 0 1.6297 0.27103 1.8345 0.60229s1.2497 0.79502 2.3222 1.0306c1.0725 0.23556 1.95 0.6659 1.95 0.95632s0.95818 0.70778 2.1293 0.92749c1.1711 0.2197 2.6803 1.1332 3.3538 2.0301 0.67349 0.89684 1.5012 1.6306 1.8393 1.6306 0.75468 0 8.9898 8.0446 8.9898 8.7819 0 0.29126 0.73405 1.2099 1.6312 2.0413 0.89717 0.83147 1.6312 1.8475 1.6312 2.2579 0 0.75937 1.9703 4.5947 2.6656 5.1886 0.40847 0.34896 1.7909 5.0345 2.3583 7.993 0.18926 0.98689 0.60441 1.7944 0.92255 1.7944s0.57843 2.0553 0.57843 4.5674c0 2.61 0.27964 4.5674 0.65249 4.5674 0.43322 0 0.65249 53.722 0.65249 159.86s-0.21927 159.86-0.65249 159.86c-0.37285 0-0.65249 1.9575-0.65249 4.5674 0 2.5121-0.26029 4.5674-0.57843 4.5674s-0.73329 0.80746-0.92255 1.7944c-0.56738 2.9585-1.9498 7.644-2.3583 7.993-0.69526 0.59396-2.6656 4.4292-2.6656 5.1886 0 0.41035-0.73405 1.4264-1.6312 2.2579-0.89717 0.83147-1.6312 1.7501-1.6312 2.0413 0 0.73724-8.2351 8.7819-8.9898 8.7819-0.33814 0-1.1658 0.73378-1.8393 1.6306-0.6735 0.89685-2.1827 1.8104-3.3538 2.0301-1.1711 0.2197-2.1293 0.63707-2.1293 0.92749s-0.87749 0.72076-1.95 0.95631c-1.0725 0.23557-2.1175 0.69932-2.3222 1.0306s-1.0302 0.60229-1.8345 0.60229c-0.80421 0-1.8081 0.34592-2.2309 0.76871s-3.2765 0.90033-6.3416 1.0612-5.7314 0.54901-5.9252 0.86251c-0.465 0.75238-449.65 0.75238-450.12 0zm443.97-31.132c0-1.5918-152.29-153.6-153.89-153.6-0.86817 0-10.58 9.2615-28.394 27.078-14.891 14.893-27.365 27.078-27.719 27.078s-0.76772 0.36703-0.91772 0.81562c-0.19469 0.58226-2.2015 0.81561-7.0146 0.81561-4.8137 0-6.8195-0.23327-7.0134-0.81561-0.14934-0.44859-0.53123-0.81562-0.84864-0.81562s-13.077-12.479-28.354-27.731c-15.277-15.252-28.231-27.731-28.786-27.731-1.3354 0-154.89 153.58-154.89 154.91 0 0.9415 19.566 1.0339 218.91 1.0339 199.47 0 218.91-0.0919 218.91-1.0354zm-381.74-98.832c42.365-42.366 77.027-77.249 77.027-77.517 0-0.42549-4.9885-5.6437-7.3248-7.6621-0.45725-0.39503-1.6264-1.5695-2.598-2.61-1.8193-1.948-2.8312-2.9733-4.3001-4.3566-0.46578-0.43864-1.1998-1.1786-1.6312-1.6444-0.4314-0.46578-1.1592-1.1998-1.6173-1.6312-0.45809-0.4314-2.4355-2.3993-4.3942-4.373-1.9587-1.9738-3.8563-3.8823-4.217-4.2412-2.628-2.6151-11.191-11.192-11.592-11.611-0.27296-0.28507-18.59-18.49-40.705-40.454-56.555-56.171-75.308-74.486-76.517-74.729-0.96084-0.1933-1.0486 12.687-1.0486 153.82 0 134.1 0.12238 154.04 0.94584 154.04 0.52021 0 35.608-34.663 77.972-77.03zm404.58-76.958c0-133.07-0.1267-153.99-0.93277-153.99-1.4394 0-153.71 152.55-153.71 153.99 0 1.4426 152.27 153.98 153.71 153.98 0.80734 0 0.93373-20.843 0.93373-153.99zm-131.42-66.17c59.72-59.72 108.58-109.05 108.58-109.62 0-0.94539-19.28-1.0368-218.6-1.0368-193.68 0-218.65 0.11155-218.98 0.9784-0.36055 0.93957 31.221 32.91 56.272 56.966 5.3459 5.1334 10.013 9.618 10.372 9.9655 0.98725 0.95623 10.998 10.926 11.745 11.696 0.35887 0.37032 2.1889 2.2097 4.0667 4.0875 1.8778 1.8778 3.7864 3.7894 4.2412 4.2479 0.45483 0.45854 1.208 1.1926 1.6738 1.6312 0.46578 0.43864 1.1998 1.1757 1.6312 1.6379 0.91961 0.98525 7.2039 7.2793 8.4264 8.4395 1.0216 0.96959 2.2375 2.1827 3.3053 3.2978 0.43864 0.45809 2.4124 2.4355 4.3862 4.3942s3.8823 3.8676 4.2412 4.242c0.35887 0.37439 1.0336 1.0396 1.4994 1.4782 0.46578 0.43864 1.1998 1.1723 1.6312 1.6304 0.84499 0.89727 7.1026 7.1442 8.4483 8.4338 0.45015 0.43139 1.1436 1.1654 1.541 1.6312s2.306 2.3803 4.2412 4.2545c1.9352 1.8742 3.847 3.7828 4.2484 4.2412 0.4014 0.45843 13.271 13.166 28.6 28.238 15.329 15.072 34.673 34.208 42.987 42.522 8.3142 8.3148 15.51 15.141 15.991 15.17 0.48066 0.0289 49.735-48.809 109.46-108.53z" fill="#fff" filter="url(#filter9816)" stroke-width=".65249"/>
</svg>
