<svg width="327.68" height="327.68" version="1.1" viewBox="0 0 327.68 327.68" xmlns="http://www.w3.org/2000/svg">
 <defs>
  <filter id="filter8390" x="-.17663" y="-.19189" width="1.3533" height="1.3838" color-interpolation-filters="sRGB">
   <feGaussianBlur in="SourceGraphic" result="result0" stdDeviation="6"/>
   <feDiffuseLighting lighting-color="rgb(255,255,255)" result="result5" surfaceScale="4">
    <feDistantLight azimuth="235" elevation="45"/>
   </feDiffuseLighting>
   <feComposite in="result5" in2="SourceGraphic" k1="1.4" operator="arithmetic" result="fbSourceGraphic"/>
   <feGaussianBlur in="fbSourceGraphic" result="result0" stdDeviation="6"/>
   <feSpecularLighting lighting-color="rgb(255,255,255)" in="result0" result="result1" specularExponent="25" surfaceScale="4">
    <feDistantLight azimuth="235" elevation="45"/>
   </feSpecularLighting>
   <feComposite in="fbSourceGraphic" in2="result1" k2="1" k3="1" operator="arithmetic" result="result4"/>
   <feComposite in="result4" in2="SourceGraphic" operator="in" result="result2"/>
  </filter>
  <filter id="filter8410" x="-.088441" y="-.088484" width="1.1769" height="1.177" color-interpolation-filters="sRGB">
   <feGaussianBlur in="SourceGraphic" result="result0" stdDeviation="6"/>
   <feDiffuseLighting lighting-color="rgb(255,255,255)" result="result5" surfaceScale="4">
    <feDistantLight azimuth="235" elevation="45"/>
   </feDiffuseLighting>
   <feComposite in="result5" in2="SourceGraphic" k1="1.4" operator="arithmetic" result="fbSourceGraphic"/>
   <feGaussianBlur in="fbSourceGraphic" result="result0" stdDeviation="6"/>
   <feSpecularLighting lighting-color="rgb(255,255,255)" in="result0" result="result1" specularExponent="25" surfaceScale="4">
    <feDistantLight azimuth="235" elevation="45"/>
   </feSpecularLighting>
   <feComposite in="fbSourceGraphic" in2="result1" k2="1" k3="1" operator="arithmetic" result="result4"/>
   <feComposite in="result4" in2="SourceGraphic" operator="in" result="result2"/>
  </filter>
  <filter id="filter8430" color-interpolation-filters="sRGB">
   <feGaussianBlur in="SourceGraphic" result="result0" stdDeviation="6"/>
   <feDiffuseLighting lighting-color="rgb(255,255,255)" result="result5" surfaceScale="4">
    <feDistantLight azimuth="235" elevation="45"/>
   </feDiffuseLighting>
   <feComposite in="result5" in2="SourceGraphic" k1="1.4" operator="arithmetic" result="fbSourceGraphic"/>
   <feGaussianBlur in="fbSourceGraphic" result="result0" stdDeviation="6"/>
   <feSpecularLighting lighting-color="rgb(255,255,255)" in="result0" result="result1" specularExponent="25" surfaceScale="4">
    <feDistantLight azimuth="235" elevation="45"/>
   </feSpecularLighting>
   <feComposite in="fbSourceGraphic" in2="result1" k2="1" k3="1" operator="arithmetic" result="result4"/>
   <feComposite in="result4" in2="SourceGraphic" operator="in" result="result2"/>
  </filter>
 </defs>
 <g fill="#fff">
  <path d="m2.1349 325.88c-0.60945-0.35497-0.99627-1.2648-0.99627-2.3433 0-1.7638 2.7754-11.187 4.2427-14.405 0.42828-0.93935 1.6243-4.5259 2.6578-7.9702 1.0335-3.4443 2.0392-6.3904 2.2349-6.5469s1.3318-3.487 2.5246-7.4009c1.1929-3.9139 2.3617-7.3724 2.5974-7.6855 0.2357-0.31311 1.3623-3.6435 2.5036-7.4009 1.1413-3.7574 2.4048-7.472 2.8078-8.2548 0.40306-0.78279 1.5963-4.3694 2.6517-7.9702 1.0554-3.6008 2.0907-6.675 2.3007-6.8316 0.21-0.15656 0.96127-2.0917 1.6695-4.3003l1.2877-4.0157-1.2109-2.5313c-0.66601-1.3922-1.7026-3.2998-2.3036-4.2392-0.60098-0.93934-1.6685-3.1169-2.3723-4.839-0.70379-1.7221-1.5915-3.5154-1.9726-3.9851-0.38114-0.46967-1.6608-3.5439-2.8437-6.8316-1.1829-3.2877-2.3355-6.2338-2.5614-6.5469-0.48745-0.67573-3.0163-9.5043-3.9952-13.948-0.37939-1.7221-0.88974-3.3873-1.1341-3.7004-0.24438-0.31311-1.0002-4.1559-1.6797-8.5395-1.5559-10.038-2.1731-31.467-1.1971-41.559 0.789-8.1579 2.1991-17.309 2.854-18.521 0.25928-0.47995 0.65771-1.7609 0.88542-2.8465 0.75215-3.586 3.8278-14.488 4.251-15.068 0.22847-0.31312 1.4029-3.2592 2.6099-6.5469 1.207-3.2877 2.3706-6.1057 2.5859-6.2623 0.21528-0.15656 1.3782-2.4622 2.5844-5.1237 1.2061-2.6615 2.8003-5.7357 3.5427-6.8316s1.5512-2.5091 1.7974-3.1404c0.50021-1.2827 6.3771-10.332 7.5735-11.661 0.4226-0.46967 1.3797-1.7506 2.127-2.8465 1.6811-2.4655 4.9101-6.3984 9.3788-11.423 1.8787-2.1126 3.6968-4.1852 4.0403-4.606 1.1695-1.4324 13.902-12.624 15.466-13.595 0.85681-0.53161 2.1789-1.6411 2.938-2.4655 0.75909-0.82444 1.6737-1.499 2.0324-1.499 0.35873 0 1.659-0.85013 2.8896-1.8892s3.7745-2.7491 5.6531-3.8c1.8787-1.051 4.14-2.5065 5.025-3.2345 0.88508-0.72802 1.8651-1.3237 2.1779-1.3237 0.31274 0 2.2962-1.009 4.4078-2.2422 2.1115-1.2332 5.8195-3.0289 8.2399-3.9904 2.4204-0.96148 4.9645-2.0978 5.6536-2.5251 0.68907-0.42731 3.9428-1.6152 7.2305-2.6397 3.2877-1.0245 6.2338-2.05 6.5469-2.2789 0.75415-0.55123 12.047-3.1853 17.079-3.9837 2.1918-0.34777 4.4975-0.86141 5.1237-1.1414 4.8413-2.1647 46.686-2.1593 49.529 0.00635 0.31311 0.23855 1.8502 0.61378 3.4158 0.83384 4.3145 0.60646 18.084 3.7196 18.761 4.2415 0.32744 0.25261 3.5415 1.4171 7.1423 2.5878 3.6008 1.1707 6.8241 2.3566 7.1628 2.6353 0.33874 0.27874 2.8969 1.4264 5.6849 2.5503 2.788 1.1239 5.2008 2.2448 5.3618 2.4908 0.16102 0.24597 2.2724 1.3953 4.692 2.5541 2.4196 1.1588 4.5505 2.3517 4.7354 2.6508 0.18488 0.29915 1.4076 1.0866 2.717 1.7498 6.5096 3.2971 23.746 17.073 30.561 24.425 5.3166 5.7358 8.7825 9.7424 10.083 11.656 0.73933 1.088 1.5441 1.9782 1.7885 1.9782 0.44948 0 3.8324 4.8798 7.4895 10.803 1.0984 1.7792 2.4434 3.6812 2.9888 4.2266s0.99164 1.1983 0.99164 1.451c0 0.25264 1.189 2.6041 2.6423 5.2254 1.4533 2.6213 3.4057 6.5593 4.3388 8.7511s1.8875 4.1132 2.121 4.2697c0.2335 0.15656 1.3363 2.9746 2.4506 6.2623s2.4079 6.879 2.8747 7.9806c0.91706 2.1644 2.728 9.4201 3.8339 15.361 0.37887 2.0352 0.89183 3.963 1.1399 4.284 0.97055 1.2556 2.2322 17.175 2.2322 28.166 0 10.991-1.2616 26.91-2.2322 28.166-0.24809 0.32095-0.75811 2.2487-1.1334 4.284-0.94829 5.1431-3.5157 15.537-4.0076 16.225-0.22396 0.31312-1.391 3.3873-2.5935 6.8316-1.2024 3.4443-2.3714 6.3904-2.5976 6.5469s-1.3342 2.5749-2.462 5.3741-2.2747 5.233-2.5485 5.4083c-0.27379 0.17539-1.4521 2.2196-2.6186 4.5426-1.1664 2.3231-2.5014 4.6044-2.9667 5.0697-0.46527 0.46528-1.0556 1.3826-1.3118 2.0385-0.51977 1.3308-6.7539 10.255-8.3662 11.976-0.56947 0.60796-1.804 2.1451-2.7433 3.4158-3.2147 4.3488-14.764 16.099-20.456 20.813-2.0797 1.7221-4.7326 3.9147-5.8952 4.8725-2.531 2.0849-10.369 7.4982-13.367 9.2315-1.1794 0.68193-2.4603 1.5241-2.8465 1.8716-1.359 1.2226-13.774 7.4168-17.758 8.86-1.2397 0.44907-2.3925 1.0303-2.5618 1.2916-0.34366 0.53031-12.281 4.6151-13.487 4.6151-0.42265 0-0.76846 0.21327-0.76846 0.47392 0 0.47463-10.126 2.9099-17.079 4.1075-2.0352 0.35054-4.2128 0.86068-4.839 1.1336-5.3612 2.3368-45.755 2.3263-50.322-0.0131-0.50342-0.25788-3.4772-0.903-6.6083-1.4336-6.8782-1.1656-14.184-2.91-16.51-3.9419-0.93935-0.41683-4.2698-1.5957-7.4009-2.6196-3.1312-1.024-5.8211-2.0242-5.9776-2.2227s-2.0779-1.095-4.2697-1.9922c-2.1918-0.89716-5.3471-2.3902-7.0117-3.3179-2.8904-1.6108-3.1466-1.6543-5.693-0.96568-1.4665 0.39658-2.9226 0.90763-3.2357 1.1357-0.31312 0.22805-3.8997 1.374-7.9702 2.5466-4.0705 1.1726-7.6571 2.3258-7.9702 2.5628-0.31312 0.23692-4.0278 1.4038-8.2548 2.5931-4.227 1.1893-7.8136 2.3246-7.9702 2.5229s-3.7431 1.3362-7.9702 2.5287c-4.227 1.1925-7.8136 2.3462-7.9702 2.5637-0.15656 0.21752-3.8072 1.3684-8.1125 2.5575-4.3053 1.1891-7.8279 2.3881-7.8279 2.6644 0 0.27631-0.44832 0.50503-0.99627 0.50828-0.54795 3e-3 -3.9424 0.89724-7.5432 1.9866-6.8807 2.0817-8.7544 2.3302-10.39 1.3776zm178.05-39.789c0.62623-0.25735 3.4747-0.75083 6.33-1.0966 5.683-0.68823 17.775-3.2768 18.705-4.0041 0.32097-0.25113 3.1454-1.2913 6.2766-2.3115 3.1311-1.0202 6.4615-2.3036 7.4009-2.8521 0.93935-0.54847 3.3731-1.7211 5.4084-2.6059 2.0352-0.88475 4.4932-2.1974 5.4621-2.917 0.96891-0.71963 1.9603-1.3084 2.2032-1.3084 0.67819 0 12.83-8.1597 12.83-8.6151 0-0.22046 0.9607-0.98286 2.1349-1.6942 3.6403-2.2054 17.4-15.788 19.67-19.416 0.53169-0.84997 1.4955-2.1309 2.1417-2.8465 2.0002-2.2148 4.9885-6.548 6.8808-9.9774 0.99511-1.8035 2.2507-3.7914 2.7903-4.4176 0.53954-0.62623 1.8082-3.06 2.8193-5.4083 1.0111-2.3484 2.1596-4.654 2.5522-5.1237 0.39264-0.46968 1.4206-3.0315 2.2842-5.693 0.86371-2.6615 2.0246-5.8638 2.5798-7.1162 1.1911-2.687 3.7686-13.919 4.3113-18.787 0.20946-1.8787 0.66615-3.7754 1.0149-4.2149 0.88301-1.1129 0.88301-30.877 0-31.99-0.34871-0.43952-0.8054-2.3362-1.0149-4.2149-0.54286-4.8691-3.1204-16.1-4.3115-18.787-0.55529-1.2524-1.5836-4.0705-2.2852-6.2623-0.7016-2.1918-1.7482-4.8136-2.3257-5.8261s-1.8586-3.7025-2.8468-5.9776c-0.9882-2.2751-2.2382-4.649-2.7777-5.2752-0.53955-0.62623-1.7952-2.6142-2.7903-4.4176-1.722-3.1208-4.4656-7.0754-6.9618-10.035-0.63024-0.74718-1.8901-2.4124-2.7997-3.7004-1.9743-2.7959-14.706-15.402-17.935-17.759-1.2525-0.91405-2.7896-2.0977-3.4158-2.6304-2.1784-1.8528-6.8547-4.9956-10.532-7.0782-2.0352-1.1526-4.2128-2.5337-4.839-3.0692-0.62623-0.53542-3.2521-1.8263-5.8353-2.8686-2.5832-1.0423-4.6967-2.0836-4.6967-2.314s-3.0102-1.3969-6.6893-2.5922c-3.6791-1.1953-6.8174-2.3316-6.9739-2.5252-0.52703-0.6516-12.76-3.2479-18.502-3.9269-3.1311-0.37026-6.2073-0.914-6.8359-1.2083-2.0616-0.96525-24.836-0.22661-32.73 1.0615-7.7939 1.2718-17.604 3.4633-18.502 4.1332-0.31311 0.2336-3.4514 1.3768-6.9739 2.5405-3.5225 1.1637-6.4046 2.3142-6.4046 2.5566 0 0.24243-2.1762 1.2821-4.8359 2.3104-2.6598 1.0283-5.147 2.2445-5.5273 2.7026s-1.2142 1.0552-1.8533 1.3269c-2.8253 1.2008-11.781 7.0805-14.143 9.2848-0.8772 0.81881-1.7738 1.49-1.9925 1.4915-0.2187 0.0017-1.4224 0.93418-2.6748 2.0726-1.2525 1.1384-3.43 3.1111-4.839 4.3837-4.7981 4.3335-11.692 12.053-15.247 17.072-1.1458 1.6178-2.2753 3.08-2.5098 3.2492-1.7509 1.2632-11.164 18.715-13.28 24.62-0.80913 2.2584-1.9451 5.1309-2.5245 6.3834-0.57932 1.2525-1.734 5.3514-2.5659 9.1088-0.83192 3.7574-1.7455 7.344-2.0301 7.9702-1.9554 4.302-2.8183 27.483-1.4707 39.51 0.50522 4.509 1.1452 8.4798 1.4222 8.8241 0.27697 0.3443 0.68675 1.7788 0.91063 3.1878 0.55963 3.5221 3.679 14.991 4.177 15.358 0.22293 0.16402 1.0214 2.0915 1.7744 4.2833 2.2609 6.581 9.9313 20.742 13.815 25.505 2.4874 3.0507 2.5823 5.1208 0.44898 9.7915-0.57207 1.2525-1.9848 5.3514-3.1393 9.1088-1.1546 3.7574-2.3063 7.0878-2.5593 7.4009-0.25306 0.31312-1.4199 3.7716-2.593 7.6855-1.1731 3.9139-2.3096 7.2443-2.5255 7.4009-0.21593 0.15656-0.55904 0.96536-0.76247 1.7973-0.20343 0.83198-0.52647 1.9208-0.71786 2.4195-0.25341 0.66037-0.0073 0.90683 0.90547 0.90683 1.4153 0 9.2475-2.2666 9.685-2.8028 0.15656-0.19186 3.3589-1.2109 7.1162-2.2644 3.7574-1.0536 7.6001-2.2543 8.5395-2.6683 0.93934-0.41396 4.9102-1.6855 8.8241-2.8256 3.9139-1.1402 7.3596-2.3045 7.6571-2.5875 0.67926-0.6462 3.0006-0.67486 3.2545-0.0402 0.10437 0.26087 1.9831 1.4627 4.1749 2.6707 2.1918 1.208 4.1222 2.3936 4.2897 2.6348s1.3204 0.86043 2.5618 1.3763c1.2415 0.51583 4.2451 1.9273 6.6747 3.1366 2.4296 1.2093 6.6566 2.8765 9.3934 3.7049 2.7368 0.8284 5.2321 1.7108 5.5452 1.9608 0.89288 0.71293 9.1128 2.6415 15.371 3.6063 3.1311 0.48273 6.7177 1.0378 7.9702 1.2335 7.8175 1.2216 25.747 1.3996 28.465 0.28256z" filter="url(#filter8410)" stroke-width=".5693"/>
  <path d="m201.82 235.32c-1.8787-0.28472-3.9282-0.75831-4.5544-1.0524s-3.3162-1.0564-5.9776-1.694c-5.5951-1.3404-10.975-2.987-11.386-3.4851-0.15655-0.18952-2.4622-1.0521-5.1237-1.9168-2.6615-0.86471-5.6311-2.0232-6.5992-2.5743-0.96808-0.55115-3.4018-1.7193-5.4083-2.5959-2.0065-0.87658-4.4637-2.1901-5.4604-2.9189-0.99673-0.72878-1.9536-1.3251-2.1263-1.3251-0.53434 0-6.2978-3.6298-6.4934-4.0894-0.10153-0.23862-1.7027-1.3561-3.5581-2.4832-1.8554-1.1271-3.3735-2.2616-3.3735-2.5212 0-0.25951-0.8326-0.96827-1.8502-1.575-5.5319-3.2984-24.013-22.365-29.386-30.318-0.74164-1.0976-1.7053-2.3799-2.1414-2.8496-1.1759-1.2662-5.7374-7.6849-8.0512-11.329-1.1133-1.7534-2.2-3.3161-2.415-3.4726-1.2002-0.87413-6.9908-13.603-8.2877-18.218-0.83591-2.9746-1.8091-6.0237-2.1626-6.7758-0.92446-1.9667-0.86552-17.994 0.06962-18.929 0.39096-0.39095 0.71083-1.1587 0.71083-1.7062 0-0.54744 0.63389-3.002 1.4086-5.4545 1.7546-5.5542 6.7069-13.263 10.094-15.713 1.3447-0.97257 2.5732-1.9444 2.7299-2.1595 0.55369-0.76021 7.181-2.7015 12.24-3.5853 10.599-1.8518 13.893-0.81051 17.436 5.513 1.1865 2.1175 2.8043 5.6439 3.5952 7.8364 0.79089 2.1925 1.9718 5.0714 2.6243 6.3974 0.65244 1.326 2.1028 4.8447 3.2231 7.8193 1.1203 2.9746 2.2049 5.5364 2.4102 5.693 0.20536 0.15655 0.84128 1.5317 1.4132 3.0559 2.1642 5.7681 0.0509 11.216-7.8682 20.285-1.7772 2.0352-3.4683 3.9986-3.758 4.3631-0.5055 0.63594 2.776 6.2525 5.2764 9.0309 0.55587 0.61769 2.2523 2.6602 3.7698 4.5389 2.7972 3.4629 13.08 13.845 15.153 15.299 0.62206 0.43646 2.2837 1.848 3.6926 3.1368 1.4089 1.2888 2.8422 2.3432 3.1852 2.3432 0.343 0 1.0835 0.50819 1.6456 1.1293 0.5621 0.62112 2.4592 1.9367 4.2156 2.9235 1.7565 0.98678 3.3298 2.0042 3.4961 2.261 0.16638 0.25676 1.8316 1.1488 3.7004 1.9823s4.7598 2.1414 6.4243 2.9064l3.0264 1.391 2.6666-2.8658c1.4666-1.5762 3.7482-4.2176 5.0702-5.8698 9.2644-11.578 9.1849-11.517 14.391-11.118 2.2807 0.17454 4.832 1.058 9.3934 3.2528 3.4443 1.6573 7.2766 3.3726 8.5162 3.8119 1.2397 0.43926 2.3925 0.99065 2.5618 1.2253 0.16934 0.23464 2.2293 1.3014 4.5776 2.3705s6.3901 3.0718 8.9817 4.4503c5.9406 3.16 6.6204 4.4172 6.2217 11.506-0.26301 4.6765-1.932 13.081-2.7133 13.663-0.21 0.15656-0.92453 1.3552-1.5878 2.6637-1.3922 2.7464-6.1688 7.6526-9.479 9.7362-1.2525 0.78838-2.4053 1.6177-2.5618 1.8429-0.43366 0.62392-5.6895 3.1576-8.2548 3.9794-1.2524 0.40124-2.4112 0.93362-2.5749 1.1831-0.9356 1.4254-13.861 2.05-20.766 1.0035z" filter="url(#filter8390)" stroke-width=".5693"/>
 </g>
</svg>
